<?xml version="1.0" standalone="no"?>
<!DOCTYPE svg PUBLIC "-//W3C//DTD SVG 1.1//EN" "http://www.w3.org/Graphics/SVG/1.1/DTD/svg11.dtd" >
<svg xmlns="http://www.w3.org/2000/svg" xmlns:xlink="http://www.w3.org/1999/xlink" version="1.1">
<metadata>
Created by FontForge 20170731 at Fri Aug 28 20:07:00 2020
 By Aleksey,,,
Felix H.
</metadata>
<defs>
<font id="Fractured-Regular" horiz-adv-x="886" >
  <font-face 
    font-family="Fractured"
    font-weight="400"
    font-stretch="normal"
    units-per-em="2048"
    panose-1="0 0 0 0 0 0 0 0 0 0"
    ascent="1536"
    descent="-512"
    x-height="1085"
    cap-height="1536"
    bbox="-672 -444 2236 2148"
    underline-thickness="102"
    underline-position="-358"
    unicode-range="U+000D-E058"
  />
<missing-glyph horiz-adv-x="1024" 
 />
    <glyph glyph-name=".notdef" horiz-adv-x="1024" 
 />
    <glyph glyph-name="uni0000" horiz-adv-x="0" 
 />
    <glyph glyph-name="uni0000" horiz-adv-x="0" 
 />
    <glyph glyph-name="uni000D" unicode="&#xd;" horiz-adv-x="512" 
 />
    <glyph glyph-name="space" unicode=" " horiz-adv-x="268" 
 />
    <glyph glyph-name="exclam" unicode="!" horiz-adv-x="411" 
d="M61 1536h289v-1126h-289v1126zM350 289v-289h-289v289h289z" />
    <glyph glyph-name="quotedbl" unicode="&#x22;" horiz-adv-x="761" 
d="M473 1106l-61 430h288l-61 -430h-166zM123 1106l-62 430h289l-61 -430h-166z" />
    <glyph glyph-name="numbersign" unicode="#" horiz-adv-x="1290" 
d="M199 393h-138l37 260h144l37 232h-156l37 260h159l64 391h289l-64 -391h195l61 391h289l-61 -391h137l-37 -260h-143l-37 -232h155l-37 -260h-159l-64 -393h-289l64 393h-195l-61 -393h-289zM530 653h193l37 232h-193z" />
    <glyph glyph-name="dollar" unicode="$" horiz-adv-x="743" 
d="M61 821v531q0 83 51 133.5t134 50.5h30v131h191v-131h215v-262h-307q-11 0 -18 -7t-7 -18v-325q0 -10 7 -17.5t18 -7.5h123q83 0 133.5 -50.5t50.5 -133.5v-531q0 -83 -50.5 -133.5t-133.5 -50.5h-31v-131h-191v131h-215v262h308q10 0 17 7t7 18v325q0 11 -7 18t-17 7
h-123q-83 0 -134 50.5t-51 133.5z" />
    <glyph glyph-name="percent" unicode="%" horiz-adv-x="1679" 
d="M924 1536h268l-436 -1536h-269zM618 1341v-555q0 -51 -30.5 -81.5t-81.5 -30.5h-332q-51 0 -82 30.5t-31 81.5v555q0 51 31 82t82 31h332q51 0 81.5 -31t30.5 -82zM434 952v224q0 16 -16 16h-154q-16 0 -16 -16v-224q0 -16 16 -16h154q16 0 16 16zM1618 752v-555
q0 -51 -31 -82t-82 -31h-331q-51 0 -82 31t-31 82v555q0 51 31 81.5t82 30.5h331q51 0 82 -30.5t31 -81.5zM1434 362v224q0 16 -17 16h-153q-17 0 -17 -16v-224q0 -16 17 -16h153q17 0 17 16z" />
    <glyph glyph-name="ampersand" unicode="&#x26;" horiz-adv-x="952" 
d="M61 967v385q0 83 51 133.5t134 50.5h407v-262h-278q-11 0 -18 -7t-7 -18v-327q0 -10 7 -17.5t18 -7.5h162v129h288v-129h66v-262h-66v-451q0 -83 -50.5 -133.5t-133.5 -50.5h-395q-83 0 -134 50.5t-51 133.5v383q0 66 37.5 121t100.5 80q-62 23 -100 78t-38 121zM350 287
q0 -11 7 -18t18 -7h137q10 0 17.5 7t7.5 18v348h-162q-11 0 -18 -7.5t-7 -17.5v-323z" />
    <glyph glyph-name="quotesingle" unicode="'" horiz-adv-x="411" 
d="M123 1106l-62 430h289l-61 -430h-166z" />
    <glyph glyph-name="parenleft" unicode="(" horiz-adv-x="595" 
d="M246 -250q-83 0 -134 50.5t-51 133.5v1668q0 83 51 133.5t134 50.5h289v-262h-160q-11 0 -18 -7t-7 -18v-1462q0 -11 7 -18t18 -7h160v-262h-289z" />
    <glyph glyph-name="parenright" unicode=")" horiz-adv-x="595" 
d="M61 12h160q11 0 18 7t7 18v1462q0 11 -7 18t-18 7h-160v262h289q83 0 134 -50.5t51 -133.5v-1668q0 -83 -51 -133.5t-134 -50.5h-289v262z" />
    <glyph glyph-name="asterisk" unicode="*" horiz-adv-x="735" 
d="M674 1239l-139 -45l86 -121l-166 -121l-86 121l-88 -121l-166 121l88 121l-142 45l64 195l141 -45v147h205v-147l139 45z" />
    <glyph glyph-name="plus" unicode="+" horiz-adv-x="700" 
d="M61 870h187v187h205v-187h186v-204h-186v-187h-205v187h-187v204z" />
    <glyph glyph-name="comma" unicode="," horiz-adv-x="411" 
d="M61 287h289v-287l-82 -266h-100l20 266h-127v287z" />
    <glyph glyph-name="hyphen" unicode="-" horiz-adv-x="700" 
d="M639 870v-204h-578v204h578z" />
    <glyph glyph-name="period" unicode="." horiz-adv-x="411" 
d="M61 0v287h289v-287h-289z" />
    <glyph glyph-name="slash" unicode="/" horiz-adv-x="827" 
d="M498 1536h268l-436 -1536h-269z" />
    <glyph glyph-name="zero" unicode="0" horiz-adv-x="884" 
d="M225 1536h434q73 0 118.5 -45t45.5 -119v-1208q0 -74 -45.5 -119t-118.5 -45h-434q-73 0 -118.5 45t-45.5 119v1208q0 74 45.5 119t118.5 45zM375 262h135q10 0 17.5 7t7.5 18v962q0 11 -7.5 18t-17.5 7h-135q-11 0 -18 -7t-7 -18v-962q0 -11 7 -18t18 -7z" />
    <glyph glyph-name="one" unicode="1" horiz-adv-x="577" 
d="M61 1536h390v-1274h65v-262h-438v262h84v1012h-101v262z" />
    <glyph glyph-name="two" unicode="2" horiz-adv-x="804" 
d="M61 1274v262h498q83 0 133.5 -50.5t50.5 -133.5v-531q0 -83 -50.5 -133.5t-133.5 -50.5h-184q-11 0 -18 -7.5t-7 -17.5v-350h393v-262h-682v715q0 83 51 133.5t134 50.5h209v350q0 11 -7.5 18t-17.5 7h-369z" />
    <glyph glyph-name="uni0417" unicode="3" horiz-adv-x="714" 
d="M61 262h279q10 0 17.5 7t7.5 18v325q0 10 -7.5 17.5t-17.5 7.5h-193v262h193q10 0 17.5 7.5t7.5 17.5v325q0 11 -7.5 18t-17.5 7h-279v262h408q83 0 133.5 -50.5t50.5 -133.5v-383q0 -66 -37.5 -121t-99.5 -80q61 -23 99 -79t38 -122v-383q0 -83 -50.5 -133.5
t-133.5 -50.5h-408v262z" />
    <glyph glyph-name="uni0417" unicode="&#x417;" horiz-adv-x="714" 
d="M61 262h279q10 0 17.5 7t7.5 18v325q0 10 -7.5 17.5t-17.5 7.5h-193v262h193q10 0 17.5 7.5t7.5 17.5v325q0 11 -7.5 18t-17.5 7h-279v262h408q83 0 133.5 -50.5t50.5 -133.5v-383q0 -66 -37.5 -121t-99.5 -80q61 -23 99 -79t38 -122v-383q0 -83 -50.5 -133.5
t-133.5 -50.5h-408v262z" />
    <glyph glyph-name="four" unicode="4" 
d="M246 637q-83 0 -134 50.5t-51 133.5v715h289v-612q0 -10 7 -17.5t18 -7.5h162v637h288v-1536h-288v637h-291z" />
    <glyph glyph-name="five" unicode="5" horiz-adv-x="743" 
d="M61 821v715h621v-262h-332v-352q0 -23 23 -23h125q83 0 133.5 -50.5t50.5 -133.5v-531q0 -83 -50.5 -133.5t-133.5 -50.5h-437v262h310q22 0 22 23v329q0 23 -22 23h-125q-83 0 -134 50.5t-51 133.5z" />
    <glyph glyph-name="six" unicode="6" 
d="M246 0q-83 0 -134 50.5t-51 133.5v1168q0 83 51 133.5t134 50.5h518v-262h-389q-11 0 -18 -7t-7 -18v-266h291q83 0 133.5 -50.5t50.5 -133.5v-615q0 -83 -50.5 -133.5t-133.5 -50.5h-395zM350 721v-434q0 -11 7 -18t18 -7h137q10 0 17.5 7t7.5 18v409q0 10 -7.5 17.5
t-17.5 7.5h-162z" />
    <glyph glyph-name="seven" unicode="7" horiz-adv-x="827" 
d="M477 1274h-416v262h705v-262l-291 -1274h-289z" />
    <glyph glyph-name="eight" unicode="8" 
d="M61 184v385q0 66 37 120t99 79q-61 23 -98.5 78t-37.5 121v385q0 83 51 133.5t134 50.5h395q83 0 133.5 -50.5t50.5 -133.5v-383q0 -66 -37.5 -121t-99.5 -80q61 -23 99 -79t38 -122v-383q0 -83 -50.5 -133.5t-133.5 -50.5h-395q-83 0 -134 50.5t-51 133.5zM350 612v-325
q0 -11 7 -18t18 -7h137q10 0 17.5 7t7.5 18v325q0 10 -7.5 17.5t-17.5 7.5h-137q-11 0 -18 -7.5t-7 -17.5zM350 924q0 -10 7 -17.5t18 -7.5h137q10 0 17.5 7.5t7.5 17.5v325q0 11 -7.5 18t-17.5 7h-137q-11 0 -18 -7t-7 -18v-325z" />
    <glyph glyph-name="nine" unicode="9" 
d="M61 1352q0 83 51 133.5t134 50.5h395q83 0 133.5 -50.5t50.5 -133.5v-1168q0 -83 -50.5 -133.5t-133.5 -50.5h-518v262h389q10 0 17.5 7t7.5 18v266h-291q-83 0 -134 50.5t-51 133.5v615zM350 1249v-409q0 -10 7 -17.5t18 -7.5h162v434q0 11 -7.5 18t-17.5 7h-137
q-11 0 -18 -7t-7 -18z" />
    <glyph glyph-name="colon" unicode=":" horiz-adv-x="411" 
d="M61 0v287h289v-287h-289zM61 1024h289v-287h-289v287z" />
    <glyph glyph-name="semicolon" unicode=";" horiz-adv-x="411" 
d="M61 287h289v-287l-82 -266h-100l20 266h-127v287zM61 737v287h289v-287h-289z" />
    <glyph glyph-name="less" unicode="&#x3c;" horiz-adv-x="700" 
d="M61 666v204l578 205v-205l-289 -102l289 -102v-205z" />
    <glyph glyph-name="equal" unicode="=" horiz-adv-x="700" 
d="M61 823v205h578v-205h-578zM61 510v205h578v-205h-578z" />
    <glyph glyph-name="greater" unicode="&#x3e;" horiz-adv-x="700" 
d="M639 666l-578 -205v205l289 102l-289 102v205l578 -205v-204z" />
    <glyph glyph-name="question" unicode="?" horiz-adv-x="741" 
d="M496 707h-39q-11 0 -18 -7.5t-7 -17.5v-272h-289v374q0 83 51 134t134 51h39q11 0 17.5 6.5t6.5 17.5v256q0 11 -7 18t-17 7h-306v262h463q70 0 113 -43t43 -113v-489q0 -83 -50.5 -133.5t-133.5 -50.5zM430 0v289h-289v-289h289z" />
    <glyph glyph-name="at" unicode="@" horiz-adv-x="1296" 
d="M246 68q-83 0 -134 50.5t-51 133.5v1032q0 83 51 133.5t134 50.5h805q83 0 133.5 -50.5t50.5 -133.5v-905h-784q-32 0 -52 20t-20 52v600q0 32 20 51.5t52 19.5h395q32 0 52 -19.5t20 -51.5v-467h112v655q0 11 -7 18t-17 7h-715q-11 0 -18 -7t-7 -18v-942q0 -11 7 -18
t18 -7h944v-204h-989zM584 918v-334h129v334h-129z" />
    <glyph glyph-name="uni0410" unicode="A" horiz-adv-x="878" 
d="M61 0v1352q0 83 51 133.5t134 50.5h571v-1536h-289v276h-178v-276h-289zM350 539h178v735h-153q-11 0 -18 -7t-7 -18v-710z" />
    <glyph glyph-name="uni0410" unicode="&#x410;" horiz-adv-x="878" 
d="M61 0v1352q0 83 51 133.5t134 50.5h571v-1536h-289v276h-178v-276h-289zM350 539h178v735h-153q-11 0 -18 -7t-7 -18v-710z" />
    <glyph glyph-name="uni0410" unicode="&#x391;" horiz-adv-x="878" 
d="M61 0v1352q0 83 51 133.5t134 50.5h571v-1536h-289v276h-178v-276h-289zM350 539h178v735h-153q-11 0 -18 -7t-7 -18v-710z" />
    <glyph glyph-name="B" unicode="B" 
d="M641 0h-580v1536h580q83 0 133.5 -50.5t50.5 -133.5v-383q0 -66 -38 -122t-99 -79q61 -23 99 -78t38 -121v-385q0 -83 -50.5 -133.5t-133.5 -50.5zM350 899h162q10 0 17.5 7.5t7.5 17.5v325q0 11 -7.5 18t-17.5 7h-162v-375zM350 262h162q10 0 17.5 7t7.5 18v325
q0 10 -7.5 17.5t-17.5 7.5h-162v-375z" />
    <glyph glyph-name="B" unicode="&#x412;" 
d="M641 0h-580v1536h580q83 0 133.5 -50.5t50.5 -133.5v-383q0 -66 -38 -122t-99 -79q61 -23 99 -78t38 -121v-385q0 -83 -50.5 -133.5t-133.5 -50.5zM350 899h162q10 0 17.5 7.5t7.5 17.5v325q0 11 -7.5 18t-17.5 7h-162v-375zM350 262h162q10 0 17.5 7t7.5 18v325
q0 10 -7.5 17.5t-17.5 7.5h-162v-375z" />
    <glyph glyph-name="B" unicode="&#x392;" 
d="M641 0h-580v1536h580q83 0 133.5 -50.5t50.5 -133.5v-383q0 -66 -38 -122t-99 -79q61 -23 99 -78t38 -121v-385q0 -83 -50.5 -133.5t-133.5 -50.5zM350 899h162q10 0 17.5 7.5t7.5 17.5v325q0 11 -7.5 18t-17.5 7h-162v-375zM350 262h162q10 0 17.5 7t7.5 18v325
q0 10 -7.5 17.5t-17.5 7.5h-162v-375z" />
    <glyph glyph-name="uni0421" unicode="C" horiz-adv-x="821" 
d="M246 0q-83 0 -134 50.5t-51 133.5v1168q0 83 51 133.5t134 50.5h514v-262h-385q-11 0 -18 -7t-7 -18v-962q0 -11 7 -18t18 -7h385v-262h-514z" />
    <glyph glyph-name="uni0421" unicode="&#x421;" horiz-adv-x="821" 
d="M246 0q-83 0 -134 50.5t-51 133.5v1168q0 83 51 133.5t134 50.5h514v-262h-385q-11 0 -18 -7t-7 -18v-962q0 -11 7 -18t18 -7h385v-262h-514z" />
    <glyph glyph-name="D" unicode="D" 
d="M641 0h-580v1536h580q83 0 133.5 -50.5t50.5 -133.5v-1168q0 -83 -50.5 -133.5t-133.5 -50.5zM512 1274h-162v-1012h162q10 0 17.5 7t7.5 18v962q0 11 -7.5 18t-17.5 7z" />
    <glyph glyph-name="uni0415" unicode="E" horiz-adv-x="626" 
d="M61 1536h504v-262h-215v-375h166v-262h-166v-375h215v-262h-504v1536z" />
    <glyph glyph-name="uni0415" unicode="&#x415;" horiz-adv-x="626" 
d="M61 1536h504v-262h-215v-375h166v-262h-166v-375h215v-262h-504v1536z" />
    <glyph glyph-name="uni0415" unicode="&#x395;" horiz-adv-x="626" 
d="M61 1536h504v-262h-215v-375h166v-262h-166v-375h215v-262h-504v1536z" />
    <glyph glyph-name="F" unicode="F" horiz-adv-x="628" 
d="M61 1536h506v-262h-217v-375h168v-262h-168v-637h-289v1536z" />
    <glyph glyph-name="G" unicode="G" 
d="M246 0q-83 0 -134 50.5t-51 133.5v1168q0 83 51 133.5t134 50.5h579v-262h-450q-11 0 -18 -7t-7 -18v-962q0 -11 7 -18t18 -7h137q10 0 17.5 7t7.5 18v635h288v-738q0 -83 -50.5 -133.5t-133.5 -50.5h-395z" />
    <glyph glyph-name="Eta" unicode="H" 
d="M61 1536h289v-637h187v637h288v-1536h-288v637h-187v-637h-289v1536z" />
    <glyph glyph-name="Eta" unicode="&#x41d;" 
d="M61 1536h289v-637h187v637h288v-1536h-288v637h-187v-637h-289v1536z" />
    <glyph glyph-name="Eta" unicode="&#x397;" 
d="M61 1536h289v-637h187v637h288v-1536h-288v637h-187v-637h-289v1536z" />
    <glyph glyph-name="Iota" unicode="I" horiz-adv-x="411" 
d="M61 0v1536h289v-1536h-289z" />
    <glyph glyph-name="Iota" unicode="&#x406;" horiz-adv-x="411" 
d="M61 0v1536h289v-1536h-289z" />
    <glyph glyph-name="Iota" unicode="&#x399;" horiz-adv-x="411" 
d="M61 0v1536h289v-1536h-289z" />
    <glyph glyph-name="uni0408" unicode="J" horiz-adv-x="884" 
d="M535 287v987h-330v262h618v-1352q0 -83 -50.5 -133.5t-133.5 -50.5h-393q-83 0 -134 50.5t-51 133.5v209h289v-106q0 -11 7 -18t18 -7h135q10 0 17.5 7t7.5 18z" />
    <glyph glyph-name="uni0408" unicode="&#x408;" horiz-adv-x="884" 
d="M535 287v987h-330v262h618v-1352q0 -83 -50.5 -133.5t-133.5 -50.5h-393q-83 0 -134 50.5t-51 133.5v209h289v-106q0 -11 7 -18t18 -7h135q10 0 17.5 7t7.5 18z" />
    <glyph glyph-name="Kappa" unicode="K" horiz-adv-x="954" 
d="M350 0h-289v1536h289v-526l129 526h289l-184 -750l309 -786h-289l-254 649v-649z" />
    <glyph glyph-name="Kappa" unicode="&#x39a;" horiz-adv-x="954" 
d="M350 0h-289v1536h289v-526l129 526h289l-184 -750l309 -786h-289l-254 649v-649z" />
    <glyph glyph-name="L" unicode="L" horiz-adv-x="626" 
d="M350 262h215v-262h-504v1536h289v-1274z" />
    <glyph glyph-name="uni041C" unicode="M" horiz-adv-x="1073" 
d="M61 0v1536h289l187 -651l186 651h289v-1536h-289v651l-186 -651l-187 651v-651h-289z" />
    <glyph glyph-name="uni041C" unicode="&#x41c;" horiz-adv-x="1073" 
d="M61 0v1536h289l187 -651l186 651h289v-1536h-289v651l-186 -651l-187 651v-651h-289z" />
    <glyph glyph-name="uni041C" unicode="&#x39c;" horiz-adv-x="1073" 
d="M61 0v1536h289l187 -651l186 651h289v-1536h-289v651l-186 -651l-187 651v-651h-289z" />
    <glyph glyph-name="N" unicode="N" 
d="M61 0v1536h289l187 -651v651h288v-1536h-288l-187 651v-651h-289z" />
    <glyph glyph-name="N" unicode="&#x39d;" 
d="M61 0v1536h289l187 -651v651h288v-1536h-288l-187 651v-651h-289z" />
    <glyph glyph-name="uni041E" unicode="O" 
d="M225 1536h437q73 0 118 -45t45 -119v-1208q0 -74 -45 -119t-118 -45h-437q-73 0 -118.5 45t-45.5 119v1208q0 74 45.5 119t118.5 45zM375 262h137q10 0 17.5 7t7.5 18v962q0 11 -7.5 18t-17.5 7h-137q-11 0 -18 -7t-7 -18v-962q0 -11 7 -18t18 -7z" />
    <glyph glyph-name="uni041E" unicode="&#x41e;" 
d="M225 1536h437q73 0 118 -45t45 -119v-1208q0 -74 -45 -119t-118 -45h-437q-73 0 -118.5 45t-45.5 119v1208q0 74 45.5 119t118.5 45zM375 262h137q10 0 17.5 7t7.5 18v962q0 11 -7.5 18t-17.5 7h-137q-11 0 -18 -7t-7 -18v-962q0 -11 7 -18t18 -7z" />
    <glyph glyph-name="uni041E" unicode="&#x39f;" 
d="M225 1536h437q73 0 118 -45t45 -119v-1208q0 -74 -45 -119t-118 -45h-437q-73 0 -118.5 45t-45.5 119v1208q0 74 45.5 119t118.5 45zM375 262h137q10 0 17.5 7t7.5 18v962q0 11 -7.5 18t-17.5 7h-137q-11 0 -18 -7t-7 -18v-962q0 -11 7 -18t18 -7z" />
    <glyph glyph-name="Rho" unicode="P" horiz-adv-x="884" 
d="M61 0v1536h578q83 0 133.5 -50.5t50.5 -133.5v-613q0 -83 -50.5 -133.5t-133.5 -50.5h-289v-555h-289zM510 1274h-160v-457h160q10 0 17.5 7.5t7.5 17.5v407q0 11 -7.5 18t-17.5 7z" />
    <glyph glyph-name="Rho" unicode="&#x420;" horiz-adv-x="884" 
d="M61 0v1536h578q83 0 133.5 -50.5t50.5 -133.5v-613q0 -83 -50.5 -133.5t-133.5 -50.5h-289v-555h-289zM510 1274h-160v-457h160q10 0 17.5 7.5t7.5 17.5v407q0 11 -7.5 18t-17.5 7z" />
    <glyph glyph-name="Rho" unicode="&#x3a1;" horiz-adv-x="884" 
d="M61 0v1536h578q83 0 133.5 -50.5t50.5 -133.5v-613q0 -83 -50.5 -133.5t-133.5 -50.5h-289v-555h-289zM510 1274h-160v-457h160q10 0 17.5 7.5t7.5 17.5v407q0 11 -7.5 18t-17.5 7z" />
    <glyph glyph-name="Q" unicode="Q" 
d="M246 0q-83 0 -134 50.5t-51 133.5v1168q0 83 51 133.5t134 50.5h395q83 0 133.5 -50.5t50.5 -133.5v-1168q0 -83 -50.5 -133.5t-133.5 -50.5h-41l78 -201h-262l-78 201h-92zM375 1274q-11 0 -18 -7t-7 -18v-962q0 -11 7 -18t18 -7h137q10 0 17.5 7t7.5 18v962
q0 11 -7.5 18t-17.5 7h-137z" />
    <glyph glyph-name="R" unicode="R" 
d="M350 0h-289v1536h580q83 0 133.5 -50.5t50.5 -133.5v-643q0 -69 -42 -111.5t-111 -42.5h-13l140 -555h-289l-139 555h-21v-555zM350 1274v-457h164q23 0 23 23v411q0 23 -23 23h-164z" />
    <glyph glyph-name="S" unicode="S" horiz-adv-x="743" 
d="M61 0v262h310q22 0 22 23v329q0 23 -22 23h-125q-83 0 -134 50.5t-51 133.5v531q0 83 51 133.5t134 50.5h436v-262h-309q-23 0 -23 -23v-329q0 -23 23 -23h125q83 0 133.5 -50.5t50.5 -133.5v-531q0 -83 -50.5 -133.5t-133.5 -50.5h-437z" />
    <glyph glyph-name="S" unicode="&#x405;" horiz-adv-x="743" 
d="M61 0v262h310q22 0 22 23v329q0 23 -22 23h-125q-83 0 -134 50.5t-51 133.5v531q0 83 51 133.5t134 50.5h436v-262h-309q-23 0 -23 -23v-329q0 -23 23 -23h125q83 0 133.5 -50.5t50.5 -133.5v-531q0 -83 -50.5 -133.5t-133.5 -50.5h-437z" />
    <glyph glyph-name="T" unicode="T" horiz-adv-x="710" 
d="M61 1274v262h588v-262h-149v-1274h-289v1274h-150z" />
    <glyph glyph-name="T" unicode="&#x422;" horiz-adv-x="710" 
d="M61 1274v262h588v-262h-149v-1274h-289v1274h-150z" />
    <glyph glyph-name="T" unicode="&#x3a4;" horiz-adv-x="710" 
d="M61 1274v262h588v-262h-149v-1274h-289v1274h-150z" />
    <glyph glyph-name="U" unicode="U" horiz-adv-x="878" 
d="M246 0q-83 0 -134 50.5t-51 133.5v1352h289v-1251q0 -23 23 -23h155v1274h289v-1536h-571z" />
    <glyph glyph-name="V" unicode="V" horiz-adv-x="970" 
d="M283 0l-222 1536h289l135 -1055l136 1055h288l-221 -1536h-405z" />
    <glyph glyph-name="W" unicode="W" horiz-adv-x="1486" 
d="M283 0l-222 1536h289l135 -1055l136 1055h245l135 -1055l136 1055h288l-221 -1536h-405l-56 508l-55 -508h-405z" />
    <glyph glyph-name="X" unicode="X" horiz-adv-x="978" 
d="M61 0l285 768l-285 768h289l139 -408l140 408h289l-283 -768l283 -768h-289l-140 408l-139 -408h-289z" />
    <glyph glyph-name="X" unicode="&#x425;" horiz-adv-x="978" 
d="M61 0l285 768l-285 768h289l139 -408l140 408h289l-283 -768l283 -768h-289l-140 408l-139 -408h-289z" />
    <glyph glyph-name="X" unicode="&#x3a7;" horiz-adv-x="978" 
d="M61 0l285 768l-285 768h289l139 -408l140 408h289l-283 -768l283 -768h-289l-140 408l-139 -408h-289z" />
    <glyph glyph-name="Y" unicode="Y" horiz-adv-x="1026" 
d="M369 645l-308 891h289l162 -473l164 473h289l-308 -891v-645h-288v645z" />
    <glyph glyph-name="Y" unicode="&#x3a5;" horiz-adv-x="1026" 
d="M369 645l-308 891h289l162 -473l164 473h289l-308 -891v-645h-288v645z" />
    <glyph glyph-name="Z" unicode="Z" horiz-adv-x="743" 
d="M61 221l359 1053h-359v262h621v-221l-358 -1053h358v-262h-621v221z" />
    <glyph glyph-name="Z" unicode="&#x396;" horiz-adv-x="743" 
d="M61 221l359 1053h-359v262h621v-221l-358 -1053h358v-262h-621v221z" />
    <glyph glyph-name="bracketleft" unicode="[" horiz-adv-x="595" 
d="M61 1786h474v-262h-185v-1512h185v-262h-474v2036z" />
    <glyph glyph-name="backslash" unicode="\" horiz-adv-x="827" 
d="M330 1536l436 -1536h-268l-437 1536h269z" />
    <glyph glyph-name="bracketright" unicode="]" horiz-adv-x="595" 
d="M535 -250h-474v262h185v1512h-185v262h474v-2036z" />
    <glyph glyph-name="asciicircum" unicode="^" horiz-adv-x="585" 
d="M61 1266l95 270h276l92 -270h-184l-47 133l-45 -133h-187z" />
    <glyph glyph-name="underscore" unicode="_" horiz-adv-x="700" 
d="M639 0v-205h-578v205h578z" />
    <glyph glyph-name="grave" unicode="`" horiz-adv-x="401" 
d="M61 1806h187l92 -270h-186z" />
    <glyph glyph-name="uni0430" unicode="a" horiz-adv-x="837" 
d="M61 164v758q0 73 45 118t119 45h551v-1085h-246v78q-43 -78 -143 -78h-162q-73 0 -118.5 45t-45.5 119zM324 860q-17 0 -17 -16v-602q0 -17 17 -17h206v635h-206z" />
    <glyph glyph-name="uni0430" unicode="&#x430;" horiz-adv-x="837" 
d="M61 164v758q0 73 45 118t119 45h551v-1085h-246v78q-43 -78 -143 -78h-162q-73 0 -118.5 45t-45.5 119zM324 860q-17 0 -17 -16v-602q0 -17 17 -17h206v635h-206z" />
    <glyph glyph-name="b" unicode="b" horiz-adv-x="837" 
d="M61 1495h246v-410h305q74 0 119 -45t45 -118v-758q0 -74 -45 -119t-119 -45h-161q-101 0 -144 78v-78h-246v1495zM514 860h-207v-635h207q16 0 16 17v602q0 16 -16 16z" />
    <glyph glyph-name="uni0441" unicode="c" horiz-adv-x="743" 
d="M225 0q-73 0 -118.5 45t-45.5 119v758q0 73 45 118t119 45h457v-225h-358q-17 0 -17 -16v-602q0 -17 17 -17h358v-225h-457z" />
    <glyph glyph-name="uni0441" unicode="&#x441;" horiz-adv-x="743" 
d="M225 0q-73 0 -118.5 45t-45.5 119v758q0 73 45 118t119 45h457v-225h-358q-17 0 -17 -16v-602q0 -17 17 -17h358v-225h-457z" />
    <glyph glyph-name="d" unicode="d" horiz-adv-x="837" 
d="M61 164v758q0 73 45 118t119 45h305v410h246v-1495h-246v78q-43 -78 -143 -78h-162q-73 0 -118.5 45t-45.5 119zM324 860q-17 0 -17 -16v-602q0 -17 17 -17h206v635h-206z" />
    <glyph glyph-name="e" unicode="e" horiz-adv-x="837" 
d="M61 922q0 73 45 118t119 45h387q74 0 119 -45t45 -118v-512h-469v-168q0 -17 17 -17h401v-225h-500q-73 0 -118.5 45t-45.5 119v758zM307 844v-209h223v209q0 16 -16 16h-190q-17 0 -17 -16z" />
    <glyph glyph-name="e" unicode="&#x435;" horiz-adv-x="837" 
d="M61 922q0 73 45 118t119 45h387q74 0 119 -45t45 -118v-512h-469v-168q0 -17 17 -17h401v-225h-500q-73 0 -118.5 45t-45.5 119v758zM307 844v-209h223v209q0 16 -16 16h-190q-17 0 -17 -16z" />
    <glyph glyph-name="f" unicode="f" horiz-adv-x="696" 
d="M188 860h-127v225h127v246q0 73 45 118.5t119 45.5h283v-225h-184q-17 0 -17 -17v-168h127v-225h-127v-860h-246v860z" />
    <glyph glyph-name="g" unicode="g" horiz-adv-x="837" 
d="M225 0q-73 0 -118.5 45t-45.5 119v758q0 73 45 118t119 45h162q101 0 143 -77v77h246v-1306q0 -73 -45 -118.5t-119 -45.5h-465v225h367q16 0 16 17v143h-305zM307 242q0 -17 17 -17h206v635h-206q-17 0 -17 -16v-602z" />
    <glyph glyph-name="h" unicode="h" horiz-adv-x="837" 
d="M307 0h-246v1495h246v-487q42 77 144 77h161q74 0 119 -45t45 -118v-922h-246v844q0 16 -16 16h-207v-860z" />
    <glyph glyph-name="i" unicode="i" horiz-adv-x="368" 
d="M307 0h-246v1085h246v-1085zM307 1249h-246v246h246v-246z" />
    <glyph glyph-name="i" unicode="&#x456;" horiz-adv-x="368" 
d="M307 0h-246v1085h246v-1085zM307 1249h-246v246h246v-246z" />
    <glyph glyph-name="j" unicode="j" horiz-adv-x="368" 
d="M-98 -160h143q16 0 16 17v1228h246v-1306q0 -73 -45.5 -118.5t-118.5 -45.5h-241v225zM307 1249h-246v246h246v-246z" />
    <glyph glyph-name="j" unicode="&#x458;" horiz-adv-x="368" 
d="M-98 -160h143q16 0 16 17v1228h246v-1306q0 -73 -45.5 -118.5t-118.5 -45.5h-241v225zM307 1249h-246v246h246v-246z" />
    <glyph glyph-name="k" unicode="k" horiz-adv-x="763" 
d="M61 0v1495h226v-823l102 413h225l-131 -530l219 -555h-225l-190 483v-483h-226z" />
    <glyph glyph-name="k" unicode="&#x138;" horiz-adv-x="763" 
d="M61 0v1495h226v-823l102 413h225l-131 -530l219 -555h-225l-190 483v-483h-226z" />
    <glyph glyph-name="l" unicode="l" horiz-adv-x="368" 
d="M307 1495v-1495h-246v1495h246z" />
    <glyph glyph-name="m" unicode="m" horiz-adv-x="1325" 
d="M307 0h-246v1085h246v-77q42 77 144 77h178q57 0 97.5 -27t57.5 -77q15 49 56 76.5t98 27.5h162q74 0 119 -45t45 -118v-922h-230v844q0 16 -16 16h-225v-860h-246v844q0 16 -17 16h-223v-860z" />
    <glyph glyph-name="n" unicode="n" horiz-adv-x="854" 
d="M61 0v1085h246v-77q42 77 144 77h178q74 0 119 -45t45 -118v-922h-246v844q0 16 -17 16h-223v-860h-246z" />
    <glyph glyph-name="o" unicode="o" horiz-adv-x="882" 
d="M61 164v758q0 73 45 118t119 45h432q74 0 119 -45t45 -118v-758q0 -74 -45.5 -119t-118.5 -45h-432q-73 0 -118.5 45t-45.5 119zM559 860h-235q-17 0 -17 -16v-602q0 -17 17 -17h235q16 0 16 17v602q0 16 -16 16z" />
    <glyph glyph-name="o" unicode="&#x43e;" horiz-adv-x="882" 
d="M61 164v758q0 73 45 118t119 45h432q74 0 119 -45t45 -118v-758q0 -74 -45.5 -119t-118.5 -45h-432q-73 0 -118.5 45t-45.5 119zM559 860h-235q-17 0 -17 -16v-602q0 -17 17 -17h235q16 0 16 17v602q0 16 -16 16z" />
    <glyph glyph-name="o" unicode="&#x3bf;" horiz-adv-x="882" 
d="M61 164v758q0 73 45 118t119 45h432q74 0 119 -45t45 -118v-758q0 -74 -45.5 -119t-118.5 -45h-432q-73 0 -118.5 45t-45.5 119zM559 860h-235q-17 0 -17 -16v-602q0 -17 17 -17h235q16 0 16 17v602q0 16 -16 16z" />
    <glyph glyph-name="p" unicode="p" horiz-adv-x="837" 
d="M61 -385v1470h246v-77q42 77 144 77h161q74 0 119 -45t45 -118v-758q0 -74 -45 -119t-119 -45h-305v-385h-246zM307 225h207q16 0 16 17v602q0 16 -16 16h-207v-635z" />
    <glyph glyph-name="p" unicode="&#x440;" horiz-adv-x="837" 
d="M61 -385v1470h246v-77q42 77 144 77h161q74 0 119 -45t45 -118v-758q0 -74 -45 -119t-119 -45h-305v-385h-246zM307 225h207q16 0 16 17v602q0 16 -16 16h-207v-635z" />
    <glyph glyph-name="q" unicode="q" horiz-adv-x="837" 
d="M61 164v758q0 73 45 118t119 45h162q101 0 143 -77v77h246v-1470h-246v385h-305q-73 0 -118.5 45t-45.5 119zM324 860q-17 0 -17 -16v-602q0 -17 17 -17h206v635h-206z" />
    <glyph glyph-name="r" unicode="r" horiz-adv-x="669" 
d="M61 0v1085h246v-77q42 77 144 77h157v-225h-301v-860h-246z" />
    <glyph glyph-name="s" unicode="s" horiz-adv-x="796" 
d="M61 225h412q16 0 16 17v172q0 16 -16 16h-248q-73 0 -118.5 45t-45.5 119v328q0 73 45 118t119 45h510v-225h-411q-17 0 -17 -16v-172q0 -17 17 -17h247q74 0 119 -45t45 -118v-328q0 -74 -45.5 -119t-118.5 -45h-510v225z" />
    <glyph glyph-name="s" unicode="&#x455;" horiz-adv-x="796" 
d="M61 225h412q16 0 16 17v172q0 16 -16 16h-248q-73 0 -118.5 45t-45.5 119v328q0 73 45 118t119 45h510v-225h-411q-17 0 -17 -16v-172q0 -17 17 -17h247q74 0 119 -45t45 -118v-328q0 -74 -45.5 -119t-118.5 -45h-510v225z" />
    <glyph glyph-name="t" unicode="t" horiz-adv-x="655" 
d="M61 1126v226h127v143h246v-143h127v-226h-127v-884q0 -17 17 -17h143v-225h-242q-74 0 -119 45t-45 119v962h-127z" />
    <glyph glyph-name="u" unicode="u" horiz-adv-x="854" 
d="M225 0q-73 0 -118.5 45t-45.5 119v921h246v-843q0 -17 17 -17h223v860h246v-1085h-246v78q-43 -78 -144 -78h-178z" />
    <glyph glyph-name="nu" unicode="v" horiz-adv-x="862" 
d="M61 1085h246l125 -720l123 720h246l-187 -1085h-366z" />
    <glyph glyph-name="nu" unicode="&#x3bd;" horiz-adv-x="862" 
d="M61 1085h246l125 -720l123 720h246l-187 -1085h-366z" />
    <glyph glyph-name="w" unicode="w" horiz-adv-x="1335" 
d="M61 1085h246l125 -761l123 761h225l125 -761l123 761h246l-187 -1085h-366l-53 412l-54 -412h-366z" />
    <glyph glyph-name="x" unicode="x" horiz-adv-x="835" 
d="M307 0h-246l234 543l-234 542h246l111 -258l110 258h246l-233 -542l233 -543h-246l-110 258z" />
    <glyph glyph-name="x" unicode="&#x445;" horiz-adv-x="835" 
d="M307 0h-246l234 543l-234 542h246l111 -258l110 258h246l-233 -542l233 -543h-246l-110 258z" />
    <glyph glyph-name="y" unicode="y" horiz-adv-x="948" 
d="M324 0l-263 1085h246l152 -686l182 686h246l-430 -1470h-246z" />
    <glyph glyph-name="y" unicode="&#x443;" horiz-adv-x="948" 
d="M324 0l-263 1085h246l152 -686l182 686h246l-430 -1470h-246z" />
    <glyph glyph-name="z" unicode="z" horiz-adv-x="743" 
d="M61 184l359 676h-359v225h621v-184l-358 -676h358v-225h-621v184z" />
    <glyph glyph-name="braceleft" unicode="{" horiz-adv-x="733" 
d="M61 899h138v703q0 83 50.5 133.5t133.5 50.5h289v-262h-160q-10 0 -17.5 -7t-7.5 -18v-1462q0 -11 7.5 -18t17.5 -7h160v-262h-289q-83 0 -133.5 50.5t-50.5 133.5v703h-138v262z" />
    <glyph glyph-name="bar" unicode="|" horiz-adv-x="411" 
d="M61 1786h289v-2036h-289v2036z" />
    <glyph glyph-name="braceright" unicode="}" horiz-adv-x="733" 
d="M61 1786h289q83 0 134 -50.5t51 -133.5v-703h137v-262h-137v-703q0 -83 -51 -133.5t-134 -50.5h-289v262h160q11 0 18 7t7 18v1462q0 11 -7 18t-18 7h-160v262z" />
    <glyph glyph-name="asciitilde" unicode="~" horiz-adv-x="772" 
d="M248 633h-187l95 270h276l47 -133l45 133h187l-95 -270h-276l-45 133z" />
    <glyph glyph-name="uni00A0" unicode="&#xa0;" horiz-adv-x="532" 
 />
    <glyph glyph-name="exclamdown" unicode="&#xa1;" horiz-adv-x="411" 
d="M61 741h289v-1126h-289v1126zM350 1151v-289h-289v289h289z" />
    <glyph glyph-name="cent" unicode="&#xa2;" horiz-adv-x="946" 
d="M246 242q-83 0 -134 50.5t-51 133.5v684q0 83 51 133.5t134 50.5h178v217h221v-217h240v-262h-240v-528h240v-262h-240v-217h-221v217h-178zM350 1008v-480q0 -10 7 -17t18 -7h49v528h-49q-11 0 -18 -7t-7 -17z" />
    <glyph glyph-name="sterling" unicode="&#xa3;" 
d="M61 262h154v375h-154v262h154v453q0 83 50.5 133.5t133.5 50.5h426v-262h-297q-10 0 -17 -7t-7 -18v-350h153v-262h-153v-375h321v-262h-764v262z" />
    <glyph glyph-name="currency" unicode="&#xa4;" horiz-adv-x="972" 
d="M61 1049l146 145l145 -145h271l145 145l143 -145l-143 -144v-272l143 -144l-143 -145l-145 145h-271l-145 -145l-146 145l146 144v272zM582 674v190h-191v-190h191z" />
    <glyph glyph-name="yen" unicode="&#xa5;" horiz-adv-x="1026" 
d="M301 838l-240 698h289l162 -473l164 473h289l-242 -698h139v-193h-205v-121h205v-192h-205v-332h-288v332h-207v192h207v121h-207v193h139z" />
    <glyph glyph-name="brokenbar" unicode="&#xa6;" horiz-adv-x="411" 
d="M61 1786h289v-887h-289v887zM350 -250h-289v887h289v-887z" />
    <glyph glyph-name="section" unicode="&#xa7;" horiz-adv-x="1021" 
d="M246 455q-83 0 -134 50.5t-51 133.5v713q0 83 51 133.5t134 50.5h569v-262h-465v-193h426q83 0 134 -50.5t51 -133.5v-713q0 -83 -51 -133.5t-134 -50.5h-571v262h467v193h-426zM672 819h-322v-102h322v102z" />
    <glyph glyph-name="dieresis" unicode="&#xa8;" horiz-adv-x="544" 
d="M297 1657h186v-121h-186v121zM248 1536h-187v121h187v-121z" />
    <glyph glyph-name="copyright" unicode="&#xa9;" horiz-adv-x="1290" 
d="M215 82q-69 0 -111.5 42.5t-42.5 111.5v1064q0 69 42.5 111.5t111.5 42.5h860q69 0 111.5 -42.5t42.5 -111.5v-1064q0 -69 -42.5 -111.5t-111.5 -42.5h-860zM291 1249q-11 0 -18 -7t-7 -17v-914q0 -10 7 -17t18 -7h708q11 0 18 7t7 17v914q0 10 -7 17t-18 7h-708z
M414 932q0 69 42 111t111 42h310v-151h-265q-10 0 -17 -7t-7 -18v-284q0 -11 7 -18t17 -7h265v-151h-310q-69 0 -111 42t-42 111v330z" />
    <glyph glyph-name="ordfeminine" unicode="&#xaa;" horiz-adv-x="622" 
d="M61 891v530q0 53 31.5 84t83.5 31h385v-760h-172v53q-29 -53 -100 -53h-113q-52 0 -83.5 31t-31.5 84zM246 1378q-13 0 -13 -12v-420q0 -12 13 -12h143v444h-143z" />
    <glyph glyph-name="guillemotleft" unicode="&#xab;" horiz-adv-x="770" 
d="M709 475h-205l-156 293l156 293h205l-156 -293zM61 768l156 293h205l-156 -293l156 -293h-205z" />
    <glyph glyph-name="logicalnot" unicode="&#xac;" horiz-adv-x="921" 
d="M61 899h799v-551h-289v289h-510v262z" />
    <glyph glyph-name="uni00AD" unicode="&#xad;" horiz-adv-x="681" 
 />
    <glyph glyph-name="registered" unicode="&#xae;" horiz-adv-x="1290" 
d="M215 82q-69 0 -111.5 42.5t-42.5 111.5v1064q0 69 42.5 111.5t111.5 42.5h860q69 0 111.5 -42.5t42.5 -111.5v-1064q0 -69 -42.5 -111.5t-111.5 -42.5h-860zM291 1249q-11 0 -18 -7t-7 -17v-914q0 -10 7 -17t18 -7h708q11 0 18 7t7 17v914q0 10 -7 17t-18 7h-708z
M414 1085h424q19 0 30 -11t11 -30v-346q0 -19 -11 -30t-30 -11h-17l53 -208h-167l-54 208h-71v-208h-168v636zM700 932h-118v-119h118q11 0 11 10v99q0 10 -11 10z" />
    <glyph glyph-name="macron" unicode="&#xaf;" horiz-adv-x="700" 
d="M639 1741v-205h-578v205h578z" />
    <glyph glyph-name="degree" unicode="&#xb0;" horiz-adv-x="581" 
d="M215 1995h152q69 0 111 -42.5t42 -111.5v-151q0 -69 -42 -111.5t-111 -42.5h-152q-69 0 -111.5 42.5t-42.5 111.5v151q0 69 42.5 111.5t111.5 42.5zM369 1704v123q0 16 -17 16h-123q-16 0 -16 -16v-123q0 -16 16 -16h123q17 0 17 16z" />
    <glyph glyph-name="plusminus" unicode="&#xb1;" horiz-adv-x="700" 
d="M61 934h187v186h205v-186h186v-205h-578v205zM61 621h578v-205h-578v205z" />
    <glyph glyph-name="twosuperior" unicode="&#xb2;" horiz-adv-x="600" 
d="M61 1352v184h349q58 0 93.5 -35t35.5 -94v-371q0 -58 -35.5 -93.5t-93.5 -35.5h-129q-17 0 -17 -18v-244h275v-184h-478v500q0 59 35.5 94t93.5 35h146v245q0 17 -17 17h-258z" />
    <glyph glyph-name="threesuperior" unicode="&#xb3;" horiz-adv-x="536" 
d="M61 645h195q18 0 18 17v227q0 7 -5 12.5t-13 5.5h-135v183h135q8 0 13 5t5 13v227q0 17 -18 17h-195v184h285q58 0 93.5 -35t35.5 -94v-268q0 -46 -26.5 -84.5t-69.5 -55.5q43 -17 69.5 -56t26.5 -85v-268q0 -58 -35.5 -93.5t-93.5 -35.5h-285v184z" />
    <glyph glyph-name="acute" unicode="&#xb4;" horiz-adv-x="401" 
d="M61 1536l93 270h186l-92 -270h-187z" />
    <glyph glyph-name="mu" unicode="&#xb5;" horiz-adv-x="878" 
d="M61 -444v1468h289v-762h154q10 0 17 7t7 18v737h289v-840q0 -83 -50.5 -133.5t-133.5 -50.5h-283v-444h-289z" />
    <glyph glyph-name="paragraph" unicode="&#xb6;" horiz-adv-x="1167" 
d="M61 1352q0 83 51 133.5t134 50.5h860v-262h-111v-1274h-288v1274h-154q-11 0 -18 -7t-7 -18v-1249h-288v891h-25q-69 0 -111.5 42t-42.5 111v308z" />
    <glyph glyph-name="periodcentered" unicode="&#xb7;" horiz-adv-x="327" 
d="M61 666v204h205v-204h-205z" />
    <glyph glyph-name="cedilla" unicode="&#xb8;" horiz-adv-x="407" 
d="M160 -100v100h186v-135q0 -69 -42 -111.5t-111 -42.5h-132v164h74q11 0 18 7.5t7 17.5z" />
    <glyph glyph-name="onesuperior" unicode="&#xb9;" horiz-adv-x="440" 
d="M61 1536h273v-891h47v-184h-307v184h59v707h-72v184z" />
    <glyph glyph-name="ordmasculine" unicode="&#xba;" horiz-adv-x="657" 
d="M178 1536h303q53 0 84 -31t31 -84v-846q0 -52 -31 -83t-84 -31h-303q-53 0 -84 31t-31 83v846q0 53 31.5 84t83.5 31zM283 645h94q16 0 16 17v673q0 17 -16 17h-94q-8 0 -13.5 -5t-5.5 -12v-673q0 -7 5.5 -12t13.5 -5z" />
    <glyph glyph-name="guillemotright" unicode="&#xbb;" horiz-adv-x="770" 
d="M504 768l-156 293h205l156 -293l-156 -293h-205zM61 475l156 293l-156 293h205l156 -293l-156 -293h-205z" />
    <glyph glyph-name="onequarter" unicode="&#xbc;" horiz-adv-x="1503" 
d="M907 575v500h201v-428q0 -7 5 -12.5t13 -5.5h113v446h203v-1075h-203v446h-203q-58 0 -93.5 35t-35.5 94zM309 0l436 1536h207l-436 -1536h-207zM61 1536h273v-891h47v-184h-307v184h59v707h-72v184z" />
    <glyph glyph-name="onehalf" unicode="&#xbd;" horiz-adv-x="1431" 
d="M1370 0h-477v500q0 58 35.5 93.5t93.5 35.5h147v245q0 17 -18 17h-258v184h348q59 0 94 -35.5t35 -93.5v-371q0 -59 -35 -94t-94 -35h-129q-16 0 -16 -18v-244h274v-184zM516 0h-207l436 1536h207zM61 1352v184h273v-891h47v-184h-307v184h59v707h-72z" />
    <glyph glyph-name="threequarters" unicode="&#xbe;" horiz-adv-x="1542" 
d="M946 1075h201v-430q0 -6 5.5 -11t12.5 -5h113v446h203v-1075h-203v444h-203q-58 0 -93.5 36t-35.5 93v502zM379 0l436 1536h207l-436 -1536h-207zM61 645h195q18 0 18 17v227q0 7 -5 12.5t-13 5.5h-135v183h135q8 0 13 5t5 13v227q0 17 -18 17h-195v184h285
q58 0 93.5 -35t35.5 -94v-268q0 -46 -26.5 -84.5t-69.5 -55.5q43 -17 69.5 -56t26.5 -85v-268q0 -58 -35.5 -93.5t-93.5 -35.5h-285v184z" />
    <glyph glyph-name="questiondown" unicode="&#xbf;" horiz-adv-x="741" 
d="M246 444h39q10 0 17 7t7 18v272h289v-374q0 -83 -50.5 -134t-133.5 -51h-39q-11 0 -18 -7t-7 -17v-256q0 -10 7 -17.5t18 -7.5h305v-262h-463q-71 0 -113.5 42.5t-42.5 113.5v489q0 83 51 133.5t134 50.5zM311 1151v-289h289v289h-289z" />
    <glyph glyph-name="Agrave" unicode="&#xc0;" horiz-adv-x="878" 
d="M350 0h-289v1352q0 83 51 133.5t134 50.5h571v-1536h-289v276h-178v-276zM375 1274q-11 0 -18 -7t-7 -18v-710h178v735h-153zM346 1690l-92 270h186l92 -270h-186z" />
    <glyph glyph-name="Aacute" unicode="&#xc1;" horiz-adv-x="878" 
d="M350 0h-289v1352q0 83 51 133.5t134 50.5h571v-1536h-289v276h-178v-276zM350 539h178v735h-153q-11 0 -18 -7t-7 -18v-710zM535 1690h-187l92 270h187z" />
    <glyph glyph-name="Acircumflex" unicode="&#xc2;" horiz-adv-x="878" 
d="M61 0v1352q0 83 51 133.5t134 50.5h571v-1536h-289v276h-178v-276h-289zM350 1249v-710h178v735h-153q-11 0 -18 -7t-7 -18zM395 1690h-186l94 270h277l92 -270h-185l-47 133z" />
    <glyph glyph-name="Atilde" unicode="&#xc3;" horiz-adv-x="878" 
d="M61 0v1352q0 83 51 133.5t134 50.5h571v-1536h-289v276h-178v-276h-289zM301 1690h-186l94 270h276l47 -133l46 133h186l-94 -270h-277l-45 133zM375 1274q-11 0 -18 -7t-7 -18v-710h178v735h-153z" />
    <glyph glyph-name="Adieresis" unicode="&#xc4;" horiz-adv-x="878" 
d="M350 0h-289v1352q0 83 51 133.5t134 50.5h571v-1536h-289v276h-178v-276zM350 539h178v735h-153q-11 0 -18 -7t-7 -18v-710zM651 1810v-120h-186v120h186zM229 1690v120h187v-120h-187z" />
    <glyph glyph-name="Aring" unicode="&#xc5;" horiz-adv-x="878" 
d="M61 0v1352q0 83 51 133.5t134 50.5h571v-1536h-289v276h-178v-276h-289zM211 1843v152q0 69 42.5 111t111.5 42h151q69 0 111.5 -42t42.5 -111v-152q0 -69 -42.5 -111t-111.5 -42h-151q-69 0 -111.5 42t-42.5 111zM350 539h178v735h-153q-11 0 -18 -7t-7 -18v-710z
M362 1858q0 -17 17 -17h123q16 0 16 17v122q0 17 -16 17h-123q-17 0 -17 -17v-122z" />
    <glyph glyph-name="AE" unicode="&#xc6;" horiz-adv-x="1093" 
d="M61 0v1352q0 83 51 133.5t134 50.5h786v-262h-215v-375h166v-262h-166v-375h215v-262h-504v276h-178v-276h-289zM350 1249v-710h178v735h-153q-11 0 -18 -7t-7 -18z" />
    <glyph glyph-name="Ccedilla" unicode="&#xc7;" horiz-adv-x="821" 
d="M246 0q-83 0 -134 50.5t-51 133.5v1168q0 83 51 133.5t134 50.5h514v-262h-385q-11 0 -18 -7t-7 -18v-962q0 -11 7 -18t18 -7h385v-262h-162v-135q0 -69 -42.5 -111.5t-111.5 -42.5h-131v164h74q11 0 18 7.5t7 17.5v100h-166z" />
    <glyph glyph-name="Egrave" unicode="&#xc8;" horiz-adv-x="626" 
d="M61 1536h504v-262h-215v-375h166v-262h-166v-375h215v-262h-504v1536zM219 1690l-92 270h186l93 -270h-187z" />
    <glyph glyph-name="Egrave" unicode="&#x400;" horiz-adv-x="626" 
d="M61 1536h504v-262h-215v-375h166v-262h-166v-375h215v-262h-504v1536zM219 1690l-92 270h186l93 -270h-187z" />
    <glyph glyph-name="Eacute" unicode="&#xc9;" horiz-adv-x="626" 
d="M61 0v1536h504v-262h-215v-375h166v-262h-166v-375h215v-262h-504zM221 1690l92 270h187l-92 -270h-187z" />
    <glyph glyph-name="Ecircumflex" unicode="&#xca;" horiz-adv-x="626" 
d="M61 0v1536h504v-262h-215v-375h166v-262h-166v-375h215v-262h-504zM268 1690h-186l94 270h277l92 -270h-185l-47 133z" />
    <glyph glyph-name="uni0401" unicode="&#xcb;" horiz-adv-x="626" 
d="M565 0h-504v1536h504v-262h-215v-375h166v-262h-166v-375h215v-262zM338 1690v120h186v-120h-186zM102 1690v120h187v-120h-187z" />
    <glyph glyph-name="uni0401" unicode="&#x401;" horiz-adv-x="626" 
d="M565 0h-504v1536h504v-262h-215v-375h166v-262h-166v-375h215v-262zM338 1690v120h186v-120h-186zM102 1690v120h187v-120h-187z" />
    <glyph glyph-name="Igrave" unicode="&#xcc;" horiz-adv-x="411" 
d="M61 0v1536h289v-1536h-289zM20 1960h187l92 -270h-186z" />
    <glyph glyph-name="Iacute" unicode="&#xcd;" horiz-adv-x="411" 
d="M61 0v1536h289v-1536h-289zM115 1690l92 270h186l-92 -270h-186z" />
    <glyph glyph-name="Icircumflex" unicode="&#xce;" horiz-adv-x="411" 
d="M61 0v1536h289v-1536h-289zM-25 1690l95 270h276l92 -270h-184l-47 133l-45 -133h-187z" />
    <glyph glyph-name="Idieresis" unicode="&#xcf;" horiz-adv-x="411" 
d="M350 0h-289v1536h289v-1536zM231 1690v120h187v-120h-187zM-4 1690v120h186v-120h-186z" />
    <glyph glyph-name="Idieresis" unicode="&#x407;" horiz-adv-x="411" 
d="M350 0h-289v1536h289v-1536zM231 1690v120h187v-120h-187zM-4 1690v120h186v-120h-186z" />
    <glyph glyph-name="Idieresis" unicode="&#x3aa;" horiz-adv-x="411" 
d="M350 0h-289v1536h289v-1536zM231 1690v120h187v-120h-187zM-4 1690v120h186v-120h-186z" />
    <glyph glyph-name="Dcroat" unicode="&#xd0;" 
d="M61 659h-155v205h155v672h580q83 0 133.5 -50.5t50.5 -133.5v-1168q0 -83 -50.5 -133.5t-133.5 -50.5h-580v659zM483 659h-133v-397h162q10 0 17.5 7t7.5 18v962q0 11 -7.5 18t-17.5 7h-162v-410h133v-205z" />
    <glyph glyph-name="Dcroat" unicode="&#x110;" 
d="M61 659h-155v205h155v672h580q83 0 133.5 -50.5t50.5 -133.5v-1168q0 -83 -50.5 -133.5t-133.5 -50.5h-580v659zM483 659h-133v-397h162q10 0 17.5 7t7.5 18v962q0 11 -7.5 18t-17.5 7h-162v-410h133v-205z" />
    <glyph glyph-name="Ntilde" unicode="&#xd1;" 
d="M61 1536h289l187 -651v651h288v-1536h-288l-187 651v-651h-289v1536zM119 1690l94 270h276l48 -133l45 133h186l-94 -270h-277l-45 133l-47 -133h-186z" />
    <glyph glyph-name="Ograve" unicode="&#xd2;" 
d="M225 1536h437q73 0 118 -45t45 -119v-1208q0 -74 -45 -119t-118 -45h-437q-73 0 -118.5 45t-45.5 119v1208q0 74 45.5 119t118.5 45zM375 262h137q10 0 17.5 7t7.5 18v962q0 11 -7.5 18t-17.5 7h-137q-11 0 -18 -7t-7 -18v-962q0 -11 7 -18t18 -7zM258 1960h186l93 -270
h-187z" />
    <glyph glyph-name="Oacute" unicode="&#xd3;" 
d="M225 1536h437q73 0 118 -45t45 -119v-1208q0 -74 -45 -119t-118 -45h-437q-73 0 -118.5 45t-45.5 119v1208q0 74 45.5 119t118.5 45zM375 262h137q10 0 17.5 7t7.5 18v962q0 11 -7.5 18t-17.5 7h-137q-11 0 -18 -7t-7 -18v-962q0 -11 7 -18t18 -7zM352 1690l92 270h187
l-92 -270h-187z" />
    <glyph glyph-name="Ocircumflex" unicode="&#xd4;" 
d="M225 0q-73 0 -118.5 45t-45.5 119v1208q0 74 45.5 119t118.5 45h437q73 0 118 -45t45 -119v-1208q0 -74 -45 -119t-118 -45h-437zM350 1249v-962q0 -11 7 -18t18 -7h137q10 0 17.5 7t7.5 18v962q0 11 -7.5 18t-17.5 7h-137q-11 0 -18 -7t-7 -18zM399 1690h-186l94 270
h277l92 -270h-184l-48 133z" />
    <glyph glyph-name="Otilde" unicode="&#xd5;" 
d="M225 0q-73 0 -118.5 45t-45.5 119v1208q0 74 45.5 119t118.5 45h437q73 0 118 -45t45 -119v-1208q0 -74 -45 -119t-118 -45h-437zM350 1249v-962q0 -11 7 -18t18 -7h137q10 0 17.5 7t7.5 18v962q0 11 -7.5 18t-17.5 7h-137q-11 0 -18 -7t-7 -18zM305 1690h-186l94 270
h276l48 -133l45 133h186l-94 -270h-277l-45 133z" />
    <glyph glyph-name="Odieresis" unicode="&#xd6;" 
d="M225 0q-73 0 -118.5 45t-45.5 119v1208q0 74 45.5 119t118.5 45h437q73 0 118 -45t45 -119v-1208q0 -74 -45 -119t-118 -45h-437zM350 1249v-962q0 -11 7 -18t18 -7h137q10 0 17.5 7t7.5 18v962q0 11 -7.5 18t-17.5 7h-137q-11 0 -18 -7t-7 -18zM469 1690v120h186v-120
h-186zM233 1690v120h187v-120h-187z" />
    <glyph glyph-name="multiply" unicode="&#xd7;" horiz-adv-x="868" 
d="M61 541l228 227l-228 227l144 146l229 -228l228 228l145 -146l-227 -227l227 -227l-145 -146l-228 228l-229 -228z" />
    <glyph glyph-name="Oslash" unicode="&#xd8;" 
d="M156 -143h-146l82 204q-31 45 -31 103v1208q0 74 45.5 119t118.5 45h437h14l57 143h146l-82 -206q28 -42 28 -101v-1208q0 -74 -45 -119t-118 -45h-437h-12zM350 715l187 469v65q0 11 -7.5 18t-17.5 7h-137q-11 0 -18 -7t-7 -18v-534zM537 817l-187 -469v-61q0 -11 7 -18
t18 -7h137q10 0 17.5 7t7.5 18v530z" />
    <glyph glyph-name="Ugrave" unicode="&#xd9;" horiz-adv-x="878" 
d="M61 1536h289v-1251q0 -23 23 -23h155v1274h289v-1536h-571q-83 0 -134 50.5t-51 133.5v1352zM346 1690l-92 270h186l92 -270h-186z" />
    <glyph glyph-name="Uacute" unicode="&#xda;" horiz-adv-x="878" 
d="M61 1536h289v-1251q0 -23 23 -23h155v1274h289v-1536h-571q-83 0 -134 50.5t-51 133.5v1352zM535 1690h-187l92 270h187z" />
    <glyph glyph-name="Ucircumflex" unicode="&#xdb;" horiz-adv-x="878" 
d="M246 0q-83 0 -134 50.5t-51 133.5v1352h289v-1251q0 -23 23 -23h155v1274h289v-1536h-571zM209 1690l94 270h277l92 -270h-185l-47 133l-45 -133h-186z" />
    <glyph glyph-name="Udieresis" unicode="&#xdc;" horiz-adv-x="878" 
d="M246 0q-83 0 -134 50.5t-51 133.5v1352h289v-1251q0 -23 23 -23h155v1274h289v-1536h-571zM465 1690v120h186v-120h-186zM229 1810h187v-120h-187v120z" />
    <glyph glyph-name="Yacute" unicode="&#xdd;" horiz-adv-x="1026" 
d="M369 645l-308 891h289l162 -473l164 473h289l-308 -891v-645h-288v645zM608 1690h-186l92 270h186z" />
    <glyph glyph-name="Thorn" unicode="&#xde;" 
d="M61 1536h289v-319h291q83 0 133.5 -51t50.5 -134v-530q0 -83 -50.5 -134t-133.5 -51h-291v-317h-289v1536zM350 580h162q11 0 18 7t7 17v326q0 10 -7 17t-18 7h-162v-374z" />
    <glyph glyph-name="germandbls" unicode="&#xdf;" 
d="M61 0v1352q0 83 51 133.5t134 50.5h395q83 0 133.5 -50.5t50.5 -133.5v-383q0 -66 -38 -122t-99 -79q61 -23 99 -78t38 -121v-385q0 -83 -50.5 -133.5t-133.5 -50.5h-231v262h102q10 0 17.5 7t7.5 18v325q0 10 -7.5 17.5t-17.5 7.5h-82v262h82q10 0 17.5 7.5t7.5 17.5
v325q0 11 -7.5 18t-17.5 7h-137q-11 0 -18 -7t-7 -18v-1249h-289z" />
    <glyph glyph-name="agrave" unicode="&#xe0;" horiz-adv-x="837" 
d="M225 0q-73 0 -118.5 45t-45.5 119v758q0 73 45 118t119 45h551v-1085h-246v78q-43 -78 -143 -78h-162zM307 242q0 -17 17 -17h206v635h-206q-17 0 -17 -16v-602zM326 1239l-93 270h187l92 -270h-186z" />
    <glyph glyph-name="aacute" unicode="&#xe1;" horiz-adv-x="837" 
d="M61 164v758q0 73 45 118t119 45h551v-1085h-246v78q-43 -78 -143 -78h-162q-73 0 -118.5 45t-45.5 119zM324 860q-17 0 -17 -16v-602q0 -17 17 -17h206v635h-206zM514 1239h-186l92 270h186z" />
    <glyph glyph-name="acircumflex" unicode="&#xe2;" horiz-adv-x="837" 
d="M61 922q0 73 45 118t119 45h551v-1085h-246v78q-43 -78 -143 -78h-162q-73 0 -118.5 45t-45.5 119v758zM307 242q0 -17 17 -17h206v635h-206q-17 0 -17 -16v-602zM375 1239h-187l95 270h276l92 -270h-184l-47 133z" />
    <glyph glyph-name="atilde" unicode="&#xe3;" horiz-adv-x="837" 
d="M61 922q0 73 45 118t119 45h551v-1085h-246v78q-43 -78 -143 -78h-162q-73 0 -118.5 45t-45.5 119v758zM307 844v-602q0 -17 17 -17h206v635h-206q-17 0 -17 -16zM281 1239h-187l94 270h277l47 -133l45 133h186l-94 -270h-276l-45 133z" />
    <glyph glyph-name="adieresis" unicode="&#xe4;" horiz-adv-x="837" 
d="M61 164v758q0 73 45 118t119 45h551v-1085h-246v78q-43 -78 -143 -78h-162q-73 0 -118.5 45t-45.5 119zM307 844v-602q0 -17 17 -17h206v635h-206q-17 0 -17 -16zM631 1360v-121h-187v121h187zM209 1360h186v-121h-186v121z" />
    <glyph glyph-name="aring" unicode="&#xe5;" horiz-adv-x="837" 
d="M61 164v758q0 73 45 118t119 45h551v-1085h-246v78q-43 -78 -143 -78h-162q-73 0 -118.5 45t-45.5 119zM190 1544q0 69 42.5 111.5t111.5 42.5h152q69 0 111 -42.5t42 -111.5v-151q0 -69 -42 -111.5t-111 -42.5h-152q-69 0 -111.5 42.5t-42.5 111.5v151zM307 844v-602
q0 -17 17 -17h206v635h-206q-17 0 -17 -16zM342 1530v-123q0 -16 16 -16h123q17 0 17 16v123q0 16 -17 16h-123q-16 0 -16 -16z" />
    <glyph glyph-name="ae" unicode="&#xe6;" horiz-adv-x="1306" 
d="M225 0q-73 0 -118.5 45t-45.5 119v758q0 73 45 118t119 45h856q74 0 119 -45t45 -118v-512h-469v-168q0 -17 17 -17h401v-225h-500q-56 0 -95.5 26.5t-57.5 73.5q-18 -47 -58 -73.5t-96 -26.5h-162zM307 242q0 -17 17 -17h206v635h-206q-17 0 -17 -16v-602zM776 844v-209
h223v209q0 16 -16 16h-190q-17 0 -17 -16z" />
    <glyph glyph-name="ccedilla" unicode="&#xe7;" horiz-adv-x="743" 
d="M225 0q-73 0 -118.5 45t-45.5 119v758q0 73 45 118t119 45h457v-225h-358q-17 0 -17 -16v-602q0 -17 17 -17h358v-225h-127v-135q0 -69 -42.5 -111.5t-111.5 -42.5h-131v164h74q10 0 17.5 7.5t7.5 17.5v100h-144z" />
    <glyph glyph-name="egrave" unicode="&#xe8;" horiz-adv-x="837" 
d="M61 164v758q0 73 45 118t119 45h387q74 0 119 -45t45 -118v-512h-469v-168q0 -17 17 -17h401v-225h-500q-73 0 -118.5 45t-45.5 119zM326 1239l-93 270h187l92 -270h-186zM307 635h223v209q0 16 -16 16h-190q-17 0 -17 -16v-209z" />
    <glyph glyph-name="egrave" unicode="&#x450;" horiz-adv-x="837" 
d="M61 164v758q0 73 45 118t119 45h387q74 0 119 -45t45 -118v-512h-469v-168q0 -17 17 -17h401v-225h-500q-73 0 -118.5 45t-45.5 119zM326 1239l-93 270h187l92 -270h-186zM307 635h223v209q0 16 -16 16h-190q-17 0 -17 -16v-209z" />
    <glyph glyph-name="eacute" unicode="&#xe9;" horiz-adv-x="837" 
d="M61 922q0 73 45 118t119 45h387q74 0 119 -45t45 -118v-512h-469v-168q0 -17 17 -17h401v-225h-500q-73 0 -118.5 45t-45.5 119v758zM514 1239h-186l92 270h186zM307 635h223v209q0 16 -16 16h-190q-17 0 -17 -16v-209z" />
    <glyph glyph-name="ecircumflex" unicode="&#xea;" horiz-adv-x="837" 
d="M61 164v758q0 73 45 118t119 45h387q74 0 119 -45t45 -118v-512h-469v-168q0 -17 17 -17h401v-225h-500q-73 0 -118.5 45t-45.5 119zM188 1239l95 270h276l92 -270h-184l-47 133l-45 -133h-187zM307 844v-209h223v209q0 16 -16 16h-190q-17 0 -17 -16z" />
    <glyph glyph-name="edieresis" unicode="&#xeb;" horiz-adv-x="837" 
d="M61 164v758q0 73 45 118t119 45h387q74 0 119 -45t45 -118v-512h-469v-168q0 -17 17 -17h401v-225h-500q-73 0 -118.5 45t-45.5 119zM324 860q-17 0 -17 -16v-209h223v209q0 16 -16 16h-190zM444 1239v121h187v-121h-187zM395 1360v-121h-186v121h186z" />
    <glyph glyph-name="edieresis" unicode="&#x451;" horiz-adv-x="837" 
d="M61 164v758q0 73 45 118t119 45h387q74 0 119 -45t45 -118v-512h-469v-168q0 -17 17 -17h401v-225h-500q-73 0 -118.5 45t-45.5 119zM324 860q-17 0 -17 -16v-209h223v209q0 16 -16 16h-190zM444 1239v121h187v-121h-187zM395 1360v-121h-186v121h186z" />
    <glyph glyph-name="igrave" unicode="&#xec;" horiz-adv-x="368" 
d="M307 1085v-1085h-246v1085h246zM-2 1520h186l92 -271h-186z" />
    <glyph glyph-name="iacute" unicode="&#xed;" horiz-adv-x="368" 
d="M307 1085v-1085h-246v1085h246zM92 1249l92 271h187l-92 -271h-187z" />
    <glyph glyph-name="icircumflex" unicode="&#xee;" horiz-adv-x="368" 
d="M61 1085h246v-1085h-246v1085zM-47 1249l94 271h277l92 -271h-185l-47 133l-45 -133h-186z" />
    <glyph glyph-name="idieresis" unicode="&#xef;" horiz-adv-x="368" 
d="M61 1085h246v-1085h-246v1085zM209 1249v121h186v-121h-186zM-27 1249v121h187v-121h-187z" />
    <glyph glyph-name="idieresis" unicode="&#x457;" horiz-adv-x="368" 
d="M61 1085h246v-1085h-246v1085zM209 1249v121h186v-121h-186zM-27 1249v121h187v-121h-187z" />
    <glyph glyph-name="dcroat" unicode="&#xf0;" horiz-adv-x="1001" 
d="M61 164v758q0 73 45 118t119 45h305v86h-168v205h168v119h246v-119h164v-205h-164v-1171h-246v78q-43 -78 -143 -78h-162q-73 0 -118.5 45t-45.5 119zM324 860q-17 0 -17 -16v-602q0 -17 17 -17h206v635h-206z" />
    <glyph glyph-name="dcroat" unicode="&#x111;" horiz-adv-x="1001" 
d="M61 164v758q0 73 45 118t119 45h305v86h-168v205h168v119h246v-119h164v-205h-164v-1171h-246v78q-43 -78 -143 -78h-162q-73 0 -118.5 45t-45.5 119zM324 860q-17 0 -17 -16v-602q0 -17 17 -17h206v635h-206z" />
    <glyph glyph-name="ntilde" unicode="&#xf1;" horiz-adv-x="854" 
d="M61 1085h246v-77q42 77 144 77h178q74 0 119 -45t45 -118v-922h-246v844q0 16 -17 16h-223v-860h-246v1085zM289 1239h-187l95 270h276l47 -133l45 133h187l-95 -270h-276l-45 133z" />
    <glyph glyph-name="ograve" unicode="&#xf2;" horiz-adv-x="882" 
d="M61 164v758q0 73 45 118t119 45h432q74 0 119 -45t45 -118v-758q0 -74 -45.5 -119t-118.5 -45h-432q-73 0 -118.5 45t-45.5 119zM559 860h-235q-17 0 -17 -16v-602q0 -17 17 -17h235q16 0 16 17v602q0 16 -16 16zM256 1509h186l93 -270h-187z" />
    <glyph glyph-name="oacute" unicode="&#xf3;" horiz-adv-x="882" 
d="M61 164v758q0 73 45 118t119 45h432q74 0 119 -45t45 -118v-758q0 -74 -45.5 -119t-118.5 -45h-432q-73 0 -118.5 45t-45.5 119zM559 860h-235q-17 0 -17 -16v-602q0 -17 17 -17h235q16 0 16 17v602q0 16 -16 16zM350 1239l92 270h187l-92 -270h-187z" />
    <glyph glyph-name="ocircumflex" unicode="&#xf4;" horiz-adv-x="882" 
d="M61 164v758q0 73 45 118t119 45h432q74 0 119 -45t45 -118v-758q0 -74 -45.5 -119t-118.5 -45h-432q-73 0 -118.5 45t-45.5 119zM324 860q-17 0 -17 -16v-602q0 -17 17 -17h235q16 0 16 17v602q0 16 -16 16h-235zM211 1239l94 270h277l92 -270h-185l-47 133l-45 -133
h-186z" />
    <glyph glyph-name="otilde" unicode="&#xf5;" horiz-adv-x="882" 
d="M61 164v758q0 73 45 118t119 45h432q74 0 119 -45t45 -118v-758q0 -74 -45.5 -119t-118.5 -45h-432q-73 0 -118.5 45t-45.5 119zM307 844v-602q0 -17 17 -17h235q16 0 16 17v602q0 16 -16 16h-235q-17 0 -17 -16zM303 1239h-186l94 270h276l48 -133l45 133h186l-94 -270
h-277l-45 133z" />
    <glyph glyph-name="odieresis" unicode="&#xf6;" horiz-adv-x="882" 
d="M61 922q0 73 45 118t119 45h432q74 0 119 -45t45 -118v-758q0 -74 -45.5 -119t-118.5 -45h-432q-73 0 -118.5 45t-45.5 119v758zM307 844v-602q0 -17 17 -17h235q16 0 16 17v602q0 16 -16 16h-235q-17 0 -17 -16zM653 1360v-121h-186v121h186zM418 1360v-121h-187v121
h187z" />
    <glyph glyph-name="divide" unicode="&#xf7;" horiz-adv-x="1028" 
d="M61 694v205h906v-205h-906zM369 305v287h288v-287h-288zM657 1001h-288v287h288v-287z" />
    <glyph glyph-name="oslash" unicode="&#xf8;" horiz-adv-x="882" 
d="M61 164v758q0 73 45 118t119 45h359l57 144h145l-61 -156q45 -18 70.5 -57t25.5 -94v-758q0 -74 -45.5 -119t-118.5 -45h-358l-57 -143h-146l62 155q-45 18 -71 57.5t-26 94.5zM575 698l-188 -473h172q16 0 16 17v456zM307 387l189 473h-172q-17 0 -17 -16v-457z" />
    <glyph glyph-name="ugrave" unicode="&#xf9;" horiz-adv-x="854" 
d="M61 1085h246v-843q0 -17 17 -17h223v860h246v-1085h-246v78q-43 -78 -144 -78h-178q-73 0 -118.5 45t-45.5 119v921zM334 1239l-92 270h186l92 -270h-186z" />
    <glyph glyph-name="uacute" unicode="&#xfa;" horiz-adv-x="854" 
d="M61 1085h246v-843q0 -17 17 -17h223v860h246v-1085h-246v78q-43 -78 -144 -78h-178q-73 0 -118.5 45t-45.5 119v921zM522 1239h-186l92 270h186z" />
    <glyph glyph-name="ucircumflex" unicode="&#xfb;" horiz-adv-x="854" 
d="M61 164v921h246v-843q0 -17 17 -17h223v860h246v-1085h-246v78q-43 -78 -144 -78h-178q-73 0 -118.5 45t-45.5 119zM383 1239h-186l94 270h276l92 -270h-184l-47 133z" />
    <glyph glyph-name="udieresis" unicode="&#xfc;" horiz-adv-x="854" 
d="M61 1085h246v-843q0 -17 17 -17h223v860h246v-1085h-246v78q-43 -78 -144 -78h-178q-73 0 -118.5 45t-45.5 119v921zM453 1239v121h186v-121h-186zM217 1360h186v-121h-186v121z" />
    <glyph glyph-name="yacute" unicode="&#xfd;" horiz-adv-x="948" 
d="M324 0l-263 1085h246l152 -686l182 686h246l-430 -1470h-246zM569 1239h-186l92 270h187z" />
    <glyph glyph-name="thorn" unicode="&#xfe;" horiz-adv-x="800" 
d="M61 1495h246v-299h248q83 0 133.5 -50.5t50.5 -133.5v-531q0 -83 -50.5 -133.5t-133.5 -50.5h-248v-297h-246v1495zM307 522h162q11 0 18 7t7 18v399q0 10 -7 17.5t-18 7.5h-162v-449z" />
    <glyph glyph-name="ydieresis" unicode="&#xff;" horiz-adv-x="948" 
d="M61 1085h246l152 -686l182 686h246l-430 -1470h-246l113 385zM500 1239v121h186v-121h-186zM264 1360h187v-121h-187v121z" />
    <glyph glyph-name="Amacron" unicode="&#x100;" horiz-adv-x="878" 
d="M61 0v1352q0 83 51 133.5t134 50.5h571v-1536h-289v276h-178v-276h-289zM350 539h178v735h-153q-11 0 -18 -7t-7 -18v-710zM152 1894h577v-204h-577v204z" />
    <glyph glyph-name="amacron" unicode="&#x101;" horiz-adv-x="837" 
d="M61 922q0 73 45 118t119 45h551v-1085h-246v78q-43 -78 -143 -78h-162q-73 0 -118.5 45t-45.5 119v758zM324 860q-17 0 -17 -16v-602q0 -17 17 -17h206v635h-206zM131 1444h578v-205h-578v205z" />
    <glyph glyph-name="Abreve" unicode="&#x102;" horiz-adv-x="878" 
d="M61 0v1352q0 83 51 133.5t134 50.5h571v-1536h-289v276h-178v-276h-289zM375 1274q-11 0 -18 -7t-7 -18v-710h178v735h-153zM211 1923h151v-82h156v82h152v-121q0 -51 -31 -81.5t-82 -30.5h-233q-51 0 -82 30.5t-31 81.5v121z" />
    <glyph glyph-name="abreve" unicode="&#x103;" horiz-adv-x="837" 
d="M61 922q0 73 45 118t119 45h551v-1085h-246v78q-43 -78 -143 -78h-162q-73 0 -118.5 45t-45.5 119v758zM307 844v-602q0 -17 17 -17h206v635h-206q-17 0 -17 -16zM303 1239q-51 0 -82 31t-31 82v121h152v-82h156v82h151v-121q0 -51 -30.5 -82t-81.5 -31h-234z" />
    <glyph glyph-name="Aogonek" unicode="&#x104;" horiz-adv-x="878" 
d="M350 0h-289v1352q0 83 51 133.5t134 50.5h571v-1536h-49v-100q0 -10 7 -17.5t18 -7.5h73v-164h-131q-69 0 -111 42.5t-42 111.5v135h-54v276h-178v-276zM350 1249v-710h178v735h-153q-11 0 -18 -7t-7 -18z" />
    <glyph glyph-name="aogonek" unicode="&#x105;" horiz-adv-x="837" 
d="M61 164v758q0 73 45 118t119 45h551v-1085h-26v-100q0 -11 7 -18t17 -7h74v-164h-131q-69 0 -111.5 42.5t-42.5 111.5v135h-33v78q-43 -78 -143 -78h-162q-73 0 -118.5 45t-45.5 119zM307 844v-602q0 -17 17 -17h206v635h-206q-17 0 -17 -16z" />
    <glyph glyph-name="Cacute" unicode="&#x106;" horiz-adv-x="821" 
d="M61 1352q0 83 51 133.5t134 50.5h514v-262h-385q-11 0 -18 -7t-7 -18v-962q0 -11 7 -18t18 -7h385v-262h-514q-83 0 -134 50.5t-51 133.5v1168zM506 1690h-187l93 270h186z" />
    <glyph glyph-name="cacute" unicode="&#x107;" horiz-adv-x="743" 
d="M61 922q0 73 45 118t119 45h457v-225h-358q-17 0 -17 -16v-602q0 -17 17 -17h358v-225h-457q-73 0 -118.5 45t-45.5 119v758zM467 1239h-186l92 270h186z" />
    <glyph glyph-name="Ccircumflex" unicode="&#x108;" horiz-adv-x="821" 
d="M246 0q-83 0 -134 50.5t-51 133.5v1168q0 83 51 133.5t134 50.5h514v-262h-385q-11 0 -18 -7t-7 -18v-962q0 -11 7 -18t18 -7h385v-262h-514zM367 1690h-187l94 270h277l92 -270h-184l-47 133z" />
    <glyph glyph-name="ccircumflex" unicode="&#x109;" horiz-adv-x="743" 
d="M225 0q-73 0 -118.5 45t-45.5 119v758q0 73 45 118t119 45h457v-225h-358q-17 0 -17 -16v-602q0 -17 17 -17h358v-225h-457zM328 1239h-187l95 270h276l92 -270h-184l-47 133z" />
    <glyph glyph-name="Cdotaccent" unicode="&#x10a;" horiz-adv-x="821" 
d="M246 0q-83 0 -134 50.5t-51 133.5v1168q0 83 51 133.5t134 50.5h514v-262h-385q-11 0 -18 -7t-7 -18v-962q0 -11 7 -18t18 -7h385v-262h-514zM309 1894h205v-204h-205v204z" />
    <glyph glyph-name="cdotaccent" unicode="&#x10b;" horiz-adv-x="743" 
d="M225 0q-73 0 -118.5 45t-45.5 119v758q0 73 45 118t119 45h457v-225h-358q-17 0 -17 -16v-602q0 -17 17 -17h358v-225h-457zM270 1444h205v-205h-205v205z" />
    <glyph glyph-name="Ccaron" unicode="&#x10c;" horiz-adv-x="821" 
d="M246 0q-83 0 -134 50.5t-51 133.5v1168q0 83 51 133.5t134 50.5h514v-262h-385q-11 0 -18 -7t-7 -18v-962q0 -11 7 -18t18 -7h385v-262h-514zM274 1690l-94 270h187l45 -133l47 133h184l-92 -270h-277z" />
    <glyph glyph-name="ccaron" unicode="&#x10d;" horiz-adv-x="743" 
d="M225 0q-73 0 -118.5 45t-45.5 119v758q0 73 45 118t119 45h457v-225h-358q-17 0 -17 -16v-602q0 -17 17 -17h358v-225h-457zM236 1239l-95 270h187l45 -133l47 133h184l-92 -270h-276z" />
    <glyph glyph-name="Dcaron" unicode="&#x10e;" 
d="M61 0v1536h580q83 0 133.5 -50.5t50.5 -133.5v-1168q0 -83 -50.5 -133.5t-133.5 -50.5h-580zM350 262h162q10 0 17.5 7t7.5 18v962q0 11 -7.5 18t-17.5 7h-162v-1012zM213 1960h186l45 -133l48 133h184l-92 -270h-277z" />
    <glyph glyph-name="dcaron" unicode="&#x10f;" horiz-adv-x="1136" 
d="M61 164v758q0 73 45 118t119 45h305v410h246v-1495h-246v78q-43 -78 -143 -78h-162q-73 0 -118.5 45t-45.5 119zM324 860q-17 0 -17 -16v-602q0 -17 17 -17h206v635h-206zM940 1266h-123l72 270h186z" />
    <glyph glyph-name="Emacron" unicode="&#x112;" horiz-adv-x="626" 
d="M565 0h-504v1536h504v-262h-215v-375h166v-262h-166v-375h215v-262zM602 1690h-577v204h577v-204z" />
    <glyph glyph-name="emacron" unicode="&#x113;" horiz-adv-x="837" 
d="M61 922q0 73 45 118t119 45h387q74 0 119 -45t45 -118v-512h-469v-168q0 -17 17 -17h401v-225h-500q-73 0 -118.5 45t-45.5 119v758zM131 1444h578v-205h-578v205zM307 635h223v209q0 16 -16 16h-190q-17 0 -17 -16v-209z" />
    <glyph glyph-name="Ebreve" unicode="&#x114;" horiz-adv-x="626" 
d="M565 0h-504v1536h504v-262h-215v-375h166v-262h-166v-375h215v-262zM84 1923h152v-82h155v82h152v-121q0 -51 -31 -81.5t-82 -30.5h-233q-51 0 -82 30.5t-31 81.5v121z" />
    <glyph glyph-name="ebreve" unicode="&#x115;" horiz-adv-x="837" 
d="M61 922q0 73 45 118t119 45h387q74 0 119 -45t45 -118v-512h-469v-168q0 -17 17 -17h401v-225h-500q-73 0 -118.5 45t-45.5 119v758zM303 1239q-51 0 -82 31t-31 82v121h152v-82h156v82h151v-121q0 -51 -30.5 -82t-81.5 -31h-234zM307 635h223v209q0 16 -16 16h-190
q-17 0 -17 -16v-209z" />
    <glyph glyph-name="Edotaccent" unicode="&#x116;" horiz-adv-x="626" 
d="M61 0v1536h504v-262h-215v-375h166v-262h-166v-375h215v-262h-504zM211 1690v204h205v-204h-205z" />
    <glyph glyph-name="edotaccent" unicode="&#x117;" horiz-adv-x="837" 
d="M61 922q0 73 45 118t119 45h387q74 0 119 -45t45 -118v-512h-469v-168q0 -17 17 -17h401v-225h-500q-73 0 -118.5 45t-45.5 119v758zM307 635h223v209q0 16 -16 16h-190q-17 0 -17 -16v-209zM317 1239v205h205v-205h-205z" />
    <glyph glyph-name="Eogonek" unicode="&#x118;" horiz-adv-x="626" 
d="M164 0h-103v1536h504v-262h-215v-375h166v-262h-166v-375h215v-262h-215v-100q0 -10 7 -17.5t18 -7.5h74v-164h-132q-69 0 -111 42.5t-42 111.5v135z" />
    <glyph glyph-name="eogonek" unicode="&#x119;" horiz-adv-x="837" 
d="M61 164v758q0 73 45 118t119 45h387q74 0 119 -45t45 -118v-512h-469v-168q0 -17 17 -17h401v-225h-231v-100q0 -11 7 -18t17 -7h74v-164h-131q-69 0 -111.5 42.5t-42.5 111.5v135h-82q-73 0 -118.5 45t-45.5 119zM307 635h223v209q0 16 -16 16h-190q-17 0 -17 -16v-209z
" />
    <glyph glyph-name="Ecaron" unicode="&#x11a;" horiz-adv-x="626" 
d="M61 0v1536h504v-262h-215v-375h166v-262h-166v-375h215v-262h-504zM176 1690l-94 270h186l45 -133l47 133h185l-92 -270h-277z" />
    <glyph glyph-name="ecaron" unicode="&#x11b;" horiz-adv-x="837" 
d="M61 922q0 73 45 118t119 45h387q74 0 119 -45t45 -118v-512h-469v-168q0 -17 17 -17h401v-225h-500q-73 0 -118.5 45t-45.5 119v758zM283 1239l-95 270h187l45 -133l47 133h184l-92 -270h-276zM307 635h223v209q0 16 -16 16h-190q-17 0 -17 -16v-209z" />
    <glyph glyph-name="Gcircumflex" unicode="&#x11c;" 
d="M61 1352q0 83 51 133.5t134 50.5h579v-262h-450q-11 0 -18 -7t-7 -18v-962q0 -11 7 -18t18 -7h137q10 0 17.5 7t7.5 18v635h288v-738q0 -83 -50.5 -133.5t-133.5 -50.5h-395q-83 0 -134 50.5t-51 133.5v1168zM399 1690h-186l94 270h277l92 -270h-184l-48 133z" />
    <glyph glyph-name="gcircumflex" unicode="&#x11d;" horiz-adv-x="837" 
d="M61 164v758q0 73 45 118t119 45h162q101 0 143 -77v77h246v-1306q0 -73 -45 -118.5t-119 -45.5h-465v225h367q16 0 16 17v143h-305q-73 0 -118.5 45t-45.5 119zM307 242q0 -17 17 -17h206v635h-206q-17 0 -17 -16v-602zM375 1239h-187l95 270h276l92 -270h-184l-47 133z
" />
    <glyph glyph-name="Gbreve" unicode="&#x11e;" 
d="M61 184v1168q0 83 51 133.5t134 50.5h579v-262h-450q-11 0 -18 -7t-7 -18v-962q0 -11 7 -18t18 -7h137q10 0 17.5 7t7.5 18v635h288v-738q0 -83 -50.5 -133.5t-133.5 -50.5h-395q-83 0 -134 50.5t-51 133.5zM215 1923h152v-82h155v82h152v-121q0 -51 -31 -81.5t-82 -30.5
h-233q-51 0 -82 30.5t-31 81.5v121z" />
    <glyph glyph-name="gbreve" unicode="&#x11f;" horiz-adv-x="837" 
d="M225 0q-73 0 -118.5 45t-45.5 119v758q0 73 45 118t119 45h162q101 0 143 -77v77h246v-1306q0 -73 -45 -118.5t-119 -45.5h-465v225h367q16 0 16 17v143h-305zM324 860q-17 0 -17 -16v-602q0 -17 17 -17h206v635h-206zM190 1473h152v-82h156v82h151v-121q0 -51 -30.5 -82
t-81.5 -31h-234q-51 0 -82 31t-31 82v121z" />
    <glyph glyph-name="Gdotaccent" unicode="&#x120;" 
d="M61 1352q0 83 51 133.5t134 50.5h579v-262h-450q-11 0 -18 -7t-7 -18v-962q0 -11 7 -18t18 -7h137q10 0 17.5 7t7.5 18v635h288v-738q0 -83 -50.5 -133.5t-133.5 -50.5h-395q-83 0 -134 50.5t-51 133.5v1168zM342 1894h205v-204h-205v204z" />
    <glyph glyph-name="gdotaccent" unicode="&#x121;" horiz-adv-x="837" 
d="M61 164v758q0 73 45 118t119 45h162q101 0 143 -77v77h246v-1306q0 -73 -45 -118.5t-119 -45.5h-465v225h367q16 0 16 17v143h-305q-73 0 -118.5 45t-45.5 119zM324 860q-17 0 -17 -16v-602q0 -17 17 -17h206v635h-206zM317 1444h205v-205h-205v205z" />
    <glyph glyph-name="uni0122" unicode="&#x122;" 
d="M61 1352q0 83 51 133.5t134 50.5h579v-262h-450q-11 0 -18 -7t-7 -18v-962q0 -11 7 -18t18 -7h137q10 0 17.5 7t7.5 18v635h288v-738q0 -83 -50.5 -133.5t-133.5 -50.5h-395q-83 0 -134 50.5t-51 133.5v1168zM315 -385l72 270h186l-135 -270h-123z" />
    <glyph glyph-name="uni0123" unicode="&#x123;" horiz-adv-x="837" 
d="M61 164v758q0 73 45 118t119 45h162q101 0 143 -77v77h246v-1306q0 -73 -45 -118.5t-119 -45.5h-465v225h367q16 0 16 17v143h-305q-73 0 -118.5 45t-45.5 119zM307 242q0 -17 17 -17h206v635h-206q-17 0 -17 -16v-602zM481 1239h-186l135 270h123z" />
    <glyph glyph-name="Hcircumflex" unicode="&#x124;" 
d="M350 0h-289v1536h289v-637h187v637h288v-1536h-288v637h-187v-637zM399 1690h-186l94 270h277l92 -270h-184l-48 133z" />
    <glyph glyph-name="hcircumflex" unicode="&#x125;" horiz-adv-x="837" 
d="M61 1495h246v-487q42 77 144 77h161q74 0 119 -45t45 -118v-922h-246v844q0 16 -16 16h-207v-860h-246v1495zM375 1649h-187l95 270h276l92 -270h-184l-47 133z" />
    <glyph glyph-name="Hbar" unicode="&#x126;" 
d="M61 0v1536h289v-637h187v637h288v-1536h-288v637h-187v-637h-289zM156 1894h577v-204h-577v204z" />
    <glyph glyph-name="hbar" unicode="&#x127;" horiz-adv-x="837" 
d="M61 1495h246v-487q42 77 144 77h161q74 0 119 -45t45 -118v-922h-246v844q0 16 -16 16h-207v-860h-246v1495zM131 1853h578v-204h-578v204z" />
    <glyph glyph-name="Itilde" unicode="&#x128;" horiz-adv-x="411" 
d="M350 0h-289v1536h289v-1536zM-119 1690l94 270h277l47 -133l45 133h186l-94 -270h-276l-45 133l-47 -133h-187z" />
    <glyph glyph-name="itilde" unicode="&#x129;" horiz-adv-x="368" 
d="M61 1085h246v-1085h-246v1085zM-141 1249l94 271h276l47 -134l46 134h186l-94 -271h-277l-45 133l-47 -133h-186z" />
    <glyph glyph-name="Imacron" unicode="&#x12a;" horiz-adv-x="411" 
d="M61 0v1536h289v-1536h-289zM496 1894v-204h-578v204h578z" />
    <glyph glyph-name="imacron" unicode="&#x12b;" horiz-adv-x="368" 
d="M307 1085v-1085h-246v1085h246zM473 1454v-205h-577v205h577z" />
    <glyph glyph-name="Ibreve" unicode="&#x12c;" horiz-adv-x="411" 
d="M61 0v1536h289v-1536h-289zM-23 1923h152v-82h156v82h151v-121q0 -51 -30.5 -81.5t-81.5 -30.5h-234q-51 0 -82 30.5t-31 81.5v121z" />
    <glyph glyph-name="ibreve" unicode="&#x12d;" horiz-adv-x="368" 
d="M307 0h-246v1085h246v-1085zM-45 1483h151v-82h156v82h152v-121q0 -51 -31 -82t-82 -31h-233q-51 0 -82 31t-31 82v121z" />
    <glyph glyph-name="Iogonek" unicode="&#x12e;" horiz-adv-x="411" 
d="M61 0v1536h289v-1536h-47v-100q0 -10 7.5 -17.5t17.5 -7.5h73v-164h-131q-69 0 -111 42.5t-42 111.5v135h-56z" />
    <glyph glyph-name="iogonek" unicode="&#x12f;" horiz-adv-x="368" 
d="M61 0v1085h246v-1085h-28v-100q0 -11 7 -18t17 -7h74v-164h-131q-69 0 -111.5 42.5t-42.5 111.5v135h-31zM61 1249v246h246v-246h-246z" />
    <glyph glyph-name="Idotaccent" unicode="&#x130;" horiz-adv-x="411" 
d="M61 0v1536h289v-1536h-289zM104 1690v204h205v-204h-205z" />
    <glyph glyph-name="dotlessi" unicode="&#x131;" horiz-adv-x="368" 
d="M307 1085v-1085h-246v1085h246z" />
    <glyph glyph-name="IJ" unicode="&#x132;" horiz-adv-x="1296" 
d="M473 393h289v-106q0 -11 7 -18t17 -7h136q10 0 17 7t7 18v987h-330v262h619v-1352q0 -83 -50.5 -133.5t-133.5 -50.5h-394q-83 0 -133.5 50.5t-50.5 133.5v209zM350 0h-289v1536h289v-1536z" />
    <glyph glyph-name="ij" unicode="&#x133;" horiz-adv-x="739" 
d="M272 -160h144q16 0 16 17v1228h246v-1306q0 -73 -45 -118.5t-119 -45.5h-242v225zM61 1085h246v-1085h-246v1085zM678 1249h-246v246h246v-246zM61 1249v246h246v-246h-246z" />
    <glyph glyph-name="Jcircumflex" unicode="&#x134;" horiz-adv-x="884" 
d="M61 393h289v-106q0 -11 7 -18t18 -7h135q10 0 17.5 7t7.5 18v987h-330v262h618v-1352q0 -83 -50.5 -133.5t-133.5 -50.5h-393q-83 0 -134 50.5t-51 133.5v209zM479 1690h-186l94 270h277l92 -270h-185l-47 133z" />
    <glyph glyph-name="jcircumflex" unicode="&#x135;" horiz-adv-x="368" 
d="M-98 -160h149q10 0 10 10v1235h246v-1306q0 -73 -45.5 -118.5t-118.5 -45.5h-241v225zM-47 1249l94 271h277l92 -271h-185l-47 133l-45 -133h-186z" />
    <glyph glyph-name="uni0136" unicode="&#x136;" horiz-adv-x="954" 
d="M61 0v1536h289v-526l129 526h289l-184 -750l309 -786h-289l-254 649v-649h-289zM334 -381l72 270h186l-135 -270h-123z" />
    <glyph glyph-name="uni0137" unicode="&#x137;" horiz-adv-x="763" 
d="M61 0v1495h226v-823l102 413h225l-131 -530l219 -555h-225l-190 483v-483h-226zM225 -381l72 270h186l-135 -270h-123z" />
    <glyph glyph-name="Lacute" unicode="&#x139;" horiz-adv-x="626" 
d="M350 262h215v-262h-504v1536h289v-1274zM221 1690l92 270h187l-92 -270h-187z" />
    <glyph glyph-name="lacute" unicode="&#x13a;" horiz-adv-x="368" 
d="M307 1495v-1495h-246v1495h246zM92 1649l92 270h187l-92 -270h-187z" />
    <glyph glyph-name="uni013B" unicode="&#x13b;" horiz-adv-x="626" 
d="M350 262h215v-262h-504v1536h289v-1274zM483 -111l-135 -270h-123l72 270h186z" />
    <glyph glyph-name="uni013C" unicode="&#x13c;" horiz-adv-x="368" 
d="M307 1495v-1495h-246v1495h246zM281 -111l-136 -270h-122l71 270h187z" />
    <glyph glyph-name="Lcaron" unicode="&#x13d;" horiz-adv-x="626" 
d="M350 262h215v-262h-504v1536h289v-1274zM442 1987l-135 -271h-123l72 271h186z" />
    <glyph glyph-name="lcaron" unicode="&#x13e;" horiz-adv-x="700" 
d="M307 1495v-1495h-246v1495h246zM639 1536l-135 -270h-123l72 270h186z" />
    <glyph glyph-name="Ldot" unicode="&#x13f;" horiz-adv-x="686" 
d="M350 262h215v-262h-504v1536h289v-1274zM420 1116v205h205v-205h-205z" />
    <glyph glyph-name="ldot" unicode="&#x140;" horiz-adv-x="612" 
d="M307 1495v-1495h-246v1495h246zM346 1116v205h205v-205h-205z" />
    <glyph glyph-name="Lslash" unicode="&#x141;" horiz-adv-x="626" 
d="M-86 666v204h147v666h289v-666h142v-204h-142v-404h215v-262h-504v666h-147z" />
    <glyph glyph-name="lslash" unicode="&#x142;" horiz-adv-x="368" 
d="M307 870h166v-204h-166v-666h-246v666h-165v204h165v625h246v-625z" />
    <glyph glyph-name="Nacute" unicode="&#x143;" 
d="M350 0h-289v1536h289l187 -651v651h288v-1536h-288l-187 651v-651zM539 1690h-187l92 270h187z" />
    <glyph glyph-name="nacute" unicode="&#x144;" horiz-adv-x="854" 
d="M61 1085h246v-77q42 77 144 77h178q74 0 119 -45t45 -118v-922h-246v844q0 16 -17 16h-223v-860h-246v1085zM522 1239h-186l92 270h186z" />
    <glyph glyph-name="uni0145" unicode="&#x145;" 
d="M61 1536h289l187 -651v651h288v-1536h-288l-187 651v-651h-289v1536zM418 -381h-123l72 270h186z" />
    <glyph glyph-name="uni0146" unicode="&#x146;" horiz-adv-x="854" 
d="M61 1085h246v-77q42 77 144 77h178q74 0 119 -45t45 -118v-922h-246v844q0 16 -17 16h-223v-860h-246v1085zM279 -381l71 270h187l-136 -270h-122z" />
    <glyph glyph-name="Ncaron" unicode="&#x147;" 
d="M350 0h-289v1536h289l187 -651v651h288v-1536h-288l-187 651v-651zM307 1690l-94 270h186l45 -133l48 133h184l-92 -270h-277z" />
    <glyph glyph-name="ncaron" unicode="&#x148;" horiz-adv-x="854" 
d="M61 1085h246v-77q42 77 144 77h178q74 0 119 -45t45 -118v-922h-246v844q0 16 -17 16h-223v-860h-246v1085zM197 1509h186l45 -133l47 133h184l-92 -270h-276z" />
    <glyph glyph-name="Eng" unicode="&#x14a;" 
d="M350 0h-289v1536h289l187 -651v651h288v-1536h-47v-135q0 -69 -42 -111.5t-111 -42.5h-131v164h73q11 0 18 7.5t7 17.5v100h-55l-187 651v-651z" />
    <glyph glyph-name="eng" unicode="&#x14b;" horiz-adv-x="854" 
d="M61 0v1085h246v-77q42 77 144 77h178q74 0 119 -45t45 -118v-922h-27v-135q0 -69 -42.5 -111.5t-111.5 -42.5h-131v164h74q11 0 18 7.5t7 17.5v100h-33v844q0 16 -17 16h-223v-860h-246z" />
    <glyph glyph-name="Omacron" unicode="&#x14c;" 
d="M225 1536h437q73 0 118 -45t45 -119v-1208q0 -74 -45 -119t-118 -45h-437q-73 0 -118.5 45t-45.5 119v1208q0 74 45.5 119t118.5 45zM375 262h137q10 0 17.5 7t7.5 18v962q0 11 -7.5 18t-17.5 7h-137q-11 0 -18 -7t-7 -18v-962q0 -11 7 -18t18 -7zM733 1894v-204h-577
v204h577z" />
    <glyph glyph-name="omacron" unicode="&#x14d;" horiz-adv-x="882" 
d="M61 164v758q0 73 45 118t119 45h432q74 0 119 -45t45 -118v-758q0 -74 -45.5 -119t-118.5 -45h-432q-73 0 -118.5 45t-45.5 119zM559 860h-235q-17 0 -17 -16v-602q0 -17 17 -17h235q16 0 16 17v602q0 16 -16 16zM731 1444v-205h-577v205h577z" />
    <glyph glyph-name="Obreve" unicode="&#x14e;" 
d="M61 1372q0 74 45.5 119t118.5 45h437q73 0 118 -45t45 -119v-1208q0 -74 -45 -119t-118 -45h-437q-73 0 -118.5 45t-45.5 119v1208zM350 1249v-962q0 -11 7 -18t18 -7h137q10 0 17.5 7t7.5 18v962q0 11 -7.5 18t-17.5 7h-137q-11 0 -18 -7t-7 -18zM215 1923h152v-82h155
v82h152v-121q0 -51 -31 -81.5t-82 -30.5h-233q-51 0 -82 30.5t-31 81.5v121z" />
    <glyph glyph-name="obreve" unicode="&#x14f;" horiz-adv-x="882" 
d="M61 922q0 73 45 118t119 45h432q74 0 119 -45t45 -118v-758q0 -74 -45.5 -119t-118.5 -45h-432q-73 0 -118.5 45t-45.5 119v758zM307 844v-602q0 -17 17 -17h235q16 0 16 17v602q0 16 -16 16h-235q-17 0 -17 -16zM326 1239q-51 0 -82 31t-31 82v121h152v-82h155v82h152
v-121q0 -51 -31 -82t-82 -31h-233z" />
    <glyph glyph-name="Ohungarumlaut" unicode="&#x150;" 
d="M61 1372q0 74 45.5 119t118.5 45h437q73 0 118 -45t45 -119v-1208q0 -74 -45 -119t-118 -45h-437q-73 0 -118.5 45t-45.5 119v1208zM350 1249v-962q0 -11 7 -18t18 -7h137q10 0 17.5 7t7.5 18v962q0 11 -7.5 18t-17.5 7h-137q-11 0 -18 -7t-7 -18zM610 1690h-186l92 270
h186zM281 1960h184l-92 -270h-187z" />
    <glyph glyph-name="ohungarumlaut" unicode="&#x151;" horiz-adv-x="882" 
d="M225 0q-73 0 -118.5 45t-45.5 119v758q0 73 45 118t119 45h432q74 0 119 -45t45 -118v-758q0 -74 -45.5 -119t-118.5 -45h-432zM307 844v-602q0 -17 17 -17h235q16 0 16 17v602q0 16 -16 16h-235q-17 0 -17 -16zM608 1239h-186l92 270h186zM279 1509h184l-92 -270h-187z
" />
    <glyph glyph-name="OE" unicode="&#x152;" horiz-adv-x="1101" 
d="M61 164v1208q0 74 45.5 119t118.5 45h815v-262h-215v-375h166v-262h-166v-375h215v-262h-815q-73 0 -118.5 45t-45.5 119zM375 1274q-11 0 -18 -7t-7 -18v-962q0 -11 7 -18t18 -7h137q10 0 17.5 7t7.5 18v962q0 11 -7.5 18t-17.5 7h-137z" />
    <glyph glyph-name="oe" unicode="&#x153;" horiz-adv-x="1351" 
d="M225 0q-73 0 -118.5 45t-45.5 119v758q0 73 45 118t119 45h901q74 0 119 -45t45 -118v-512h-469v-185h418v-225h-1014zM307 225h268v635h-268v-635zM1044 860h-223v-225h223v225z" />
    <glyph glyph-name="Racute" unicode="&#x154;" 
d="M350 0h-289v1536h580q83 0 133.5 -50.5t50.5 -133.5v-643q0 -69 -42 -111.5t-111 -42.5h-13l140 -555h-289l-139 555h-21v-555zM350 1274v-457h164q23 0 23 23v411q0 23 -23 23h-164zM539 1690h-187l92 270h187z" />
    <glyph glyph-name="racute" unicode="&#x155;" horiz-adv-x="669" 
d="M61 1085h246v-77q42 77 144 77h157v-225h-301v-860h-246v1085zM430 1239h-186l92 270h186z" />
    <glyph glyph-name="uni0156" unicode="&#x156;" 
d="M350 0h-289v1536h580q83 0 133.5 -50.5t50.5 -133.5v-643q0 -69 -42 -111.5t-111 -42.5h-13l140 -555h-289l-139 555h-21v-555zM350 1274v-457h164q23 0 23 23v411q0 23 -23 23h-164z" />
    <glyph glyph-name="uni0157" unicode="&#x157;" horiz-adv-x="669" 
d="M61 0v1085h246v-77q42 77 144 77h157v-225h-301v-860h-246z" />
    <glyph glyph-name="Rcaron" unicode="&#x158;" 
d="M350 0h-289v1536h580q83 0 133.5 -50.5t50.5 -133.5v-643q0 -69 -42 -111.5t-111 -42.5h-13l140 -555h-289l-139 555h-21v-555zM307 1690l-94 270h186l45 -133l48 133h184l-92 -270h-277zM350 817h164q23 0 23 23v411q0 23 -23 23h-164v-457z" />
    <glyph glyph-name="rcaron" unicode="&#x159;" horiz-adv-x="669" 
d="M61 0v1085h246v-77q42 77 144 77h157v-225h-301v-860h-246zM104 1509h187l45 -133l47 133h184l-92 -270h-276z" />
    <glyph glyph-name="Sacute" unicode="&#x15a;" horiz-adv-x="743" 
d="M61 821v531q0 83 51 133.5t134 50.5h436v-262h-309q-23 0 -23 -23v-329q0 -23 23 -23h125q83 0 133.5 -50.5t50.5 -133.5v-531q0 -83 -50.5 -133.5t-133.5 -50.5h-437v262h310q22 0 22 23v329q0 23 -22 23h-125q-83 0 -134 50.5t-51 133.5zM467 1690h-186l92 270h186z
" />
    <glyph glyph-name="sacute" unicode="&#x15b;" horiz-adv-x="796" 
d="M61 225h412q16 0 16 17v172q0 16 -16 16h-248q-73 0 -118.5 45t-45.5 119v328q0 73 45 118t119 45h510v-225h-411q-17 0 -17 -16v-172q0 -17 17 -17h247q74 0 119 -45t45 -118v-328q0 -74 -45.5 -119t-118.5 -45h-510v225zM494 1239h-187l92 270h187z" />
    <glyph glyph-name="Scircumflex" unicode="&#x15c;" horiz-adv-x="743" 
d="M61 821v531q0 83 51 133.5t134 50.5h436v-262h-309q-23 0 -23 -23v-329q0 -23 23 -23h125q83 0 133.5 -50.5t50.5 -133.5v-531q0 -83 -50.5 -133.5t-133.5 -50.5h-437v262h310q22 0 22 23v329q0 23 -22 23h-125q-83 0 -134 50.5t-51 133.5zM141 1690l95 270h276l92 -270
h-184l-47 133l-45 -133h-187z" />
    <glyph glyph-name="scircumflex" unicode="&#x15d;" horiz-adv-x="796" 
d="M61 225h412q16 0 16 17v172q0 16 -16 16h-248q-73 0 -118.5 45t-45.5 119v328q0 73 45 118t119 45h510v-225h-411q-17 0 -17 -16v-172q0 -17 17 -17h247q74 0 119 -45t45 -118v-328q0 -74 -45.5 -119t-118.5 -45h-510v225zM168 1239l94 270h277l92 -270h-185l-47 133
l-45 -133h-186z" />
    <glyph glyph-name="Scedilla" unicode="&#x15e;" horiz-adv-x="743" 
d="M61 821v531q0 83 51 133.5t134 50.5h436v-262h-309q-23 0 -23 -23v-329q0 -23 23 -23h125q83 0 133.5 -50.5t50.5 -133.5v-531q0 -83 -50.5 -133.5t-133.5 -50.5h16v-135q0 -69 -42.5 -111.5t-111.5 -42.5h-131v164h74q11 0 18 7.5t7 17.5v100h-267v262h310q22 0 22 23
v329q0 23 -22 23h-125q-83 0 -134 50.5t-51 133.5z" />
    <glyph glyph-name="scedilla" unicode="&#x15f;" horiz-adv-x="796" 
d="M61 225h412q16 0 16 17v172q0 16 -16 16h-248q-73 0 -118.5 45t-45.5 119v328q0 73 45 118t119 45h510v-225h-411q-17 0 -17 -16v-172q0 -17 17 -17h247q74 0 119 -45t45 -118v-328q0 -74 -45.5 -119t-118.5 -45h-30v-135q0 -69 -42.5 -111.5t-111.5 -42.5h-131v164h74
q10 0 17 7t7 18v100h-293v225z" />
    <glyph glyph-name="Scaron" unicode="&#x160;" horiz-adv-x="743" 
d="M61 821v531q0 83 51 133.5t134 50.5h436v-262h-309q-23 0 -23 -23v-329q0 -23 23 -23h125q83 0 133.5 -50.5t50.5 -133.5v-531q0 -83 -50.5 -133.5t-133.5 -50.5h-437v262h310q22 0 22 23v329q0 23 -22 23h-125q-83 0 -134 50.5t-51 133.5zM141 1960h187l45 -133l47 133
h184l-92 -270h-276z" />
    <glyph glyph-name="scaron" unicode="&#x161;" horiz-adv-x="796" 
d="M61 225h412q16 0 16 17v172q0 16 -16 16h-248q-73 0 -118.5 45t-45.5 119v328q0 73 45 118t119 45h510v-225h-411q-17 0 -17 -16v-172q0 -17 17 -17h247q74 0 119 -45t45 -118v-328q0 -74 -45.5 -119t-118.5 -45h-510v225zM262 1239l-94 270h186l45 -133l47 133h185
l-92 -270h-277z" />
    <glyph glyph-name="uni0162" unicode="&#x162;" horiz-adv-x="710" 
d="M61 1274v262h588v-262h-149v-1274h-49v-135q0 -69 -42.5 -111.5t-111.5 -42.5h-131v164h74q10 0 17 7t7 18v100h-53v1274h-150z" />
    <glyph glyph-name="uni0163" unicode="&#x163;" horiz-adv-x="655" 
d="M61 1126v226h127v143h246v-143h127v-226h-127v-884q0 -17 17 -17h143v-225h-33v-135q0 -69 -42 -111.5t-111 -42.5h-132v164h74q10 0 17.5 7.5t7.5 17.5v100h-23q-74 0 -119 45t-45 119v962h-127z" />
    <glyph glyph-name="Tcaron" unicode="&#x164;" horiz-adv-x="710" 
d="M61 1274v262h588v-262h-149v-1274h-289v1274h-150zM125 1960h186l45 -133l47 133h185l-92 -270h-277z" />
    <glyph glyph-name="tcaron" unicode="&#x165;" horiz-adv-x="819" 
d="M61 1126v226h127v143h246v-143h127v-226h-127v-884q0 -17 17 -17h143v-225h-242q-74 0 -119 45t-45 119v962h-127zM623 1370h-123l71 270h187z" />
    <glyph glyph-name="Tbar" unicode="&#x166;" horiz-adv-x="710" 
d="M61 1274v262h588v-262h-149v-189h149v-204h-149v-881h-289v881h-139v204h139v189h-150z" />
    <glyph glyph-name="tbar" unicode="&#x167;" horiz-adv-x="655" 
d="M39 678v205h149v243h-127v226h127v143h246v-143h127v-226h-127v-243h182v-205h-182v-436q0 -17 17 -17h143v-225h-242q-74 0 -119 45t-45 119v514h-149z" />
    <glyph glyph-name="Utilde" unicode="&#x168;" horiz-adv-x="878" 
d="M246 0q-83 0 -134 50.5t-51 133.5v1352h289v-1251q0 -23 23 -23h155v1274h289v-1536h-571zM301 1690h-186l94 270h276l47 -133l46 133h186l-94 -270h-277l-45 133z" />
    <glyph glyph-name="utilde" unicode="&#x169;" horiz-adv-x="854" 
d="M61 1085h246v-843q0 -17 17 -17h223v860h246v-1085h-246v78q-43 -78 -144 -78h-178q-73 0 -118.5 45t-45.5 119v921zM102 1239l95 270h276l47 -133l45 133h187l-95 -270h-276l-45 133l-47 -133h-187z" />
    <glyph glyph-name="Umacron" unicode="&#x16a;" horiz-adv-x="878" 
d="M246 0q-83 0 -134 50.5t-51 133.5v1352h289v-1251q0 -23 23 -23h155v1274h289v-1536h-571zM152 1894h577v-204h-577v204z" />
    <glyph glyph-name="umacron" unicode="&#x16b;" horiz-adv-x="854" 
d="M61 164v921h246v-843q0 -17 17 -17h223v860h246v-1085h-246v78q-43 -78 -144 -78h-178q-73 0 -118.5 45t-45.5 119zM139 1444h578v-205h-578v205z" />
    <glyph glyph-name="Ubreve" unicode="&#x16c;" horiz-adv-x="878" 
d="M61 1536h289v-1251q0 -23 23 -23h155v1274h289v-1536h-571q-83 0 -134 50.5t-51 133.5v1352zM211 1802v121h151v-82h156v82h152v-121q0 -51 -31 -81.5t-82 -30.5h-233q-51 0 -82 30.5t-31 81.5z" />
    <glyph glyph-name="ubreve" unicode="&#x16d;" horiz-adv-x="854" 
d="M61 164v921h246v-843q0 -17 17 -17h223v860h246v-1085h-246v78q-43 -78 -144 -78h-178q-73 0 -118.5 45t-45.5 119zM199 1352v121h151v-82h156v82h151v-121q0 -51 -30.5 -82t-81.5 -31h-234q-51 0 -81.5 31t-30.5 82z" />
    <glyph glyph-name="Uring" unicode="&#x16e;" horiz-adv-x="878" 
d="M61 1536h289v-1251q0 -23 23 -23h155v1274h289v-1536h-571q-83 0 -134 50.5t-51 133.5v1352zM211 1843v152q0 69 42.5 111t111.5 42h151q69 0 111.5 -42t42.5 -111v-152q0 -69 -42.5 -111t-111.5 -42h-151q-69 0 -111.5 42t-42.5 111zM362 1980v-122q0 -17 17 -17h123
q16 0 16 17v122q0 17 -16 17h-123q-17 0 -17 -17z" />
    <glyph glyph-name="uring" unicode="&#x16f;" horiz-adv-x="854" 
d="M61 1085h246v-843q0 -17 17 -17h223v860h246v-1085h-246v78q-43 -78 -144 -78h-178q-73 0 -118.5 45t-45.5 119v921zM352 1239q-69 0 -111 42.5t-42 111.5v151q0 69 42 111.5t111 42.5h152q69 0 111 -42.5t42 -111.5v-151q0 -69 -42 -111.5t-111 -42.5h-152zM350 1530
v-123q0 -16 17 -16h122q17 0 17 16v123q0 16 -17 16h-122q-17 0 -17 -16z" />
    <glyph glyph-name="Uhungarumlaut" unicode="&#x170;" horiz-adv-x="878" 
d="M61 184v1352h289v-1251q0 -23 23 -23h155v1274h289v-1536h-571q-83 0 -134 50.5t-51 133.5zM606 1690h-186l92 270h186zM276 1960h185l-92 -270h-187z" />
    <glyph glyph-name="uhungarumlaut" unicode="&#x171;" horiz-adv-x="854" 
d="M61 1085h246v-843q0 -17 17 -17h223v860h246v-1085h-246v78q-43 -78 -144 -78h-178q-73 0 -118.5 45t-45.5 119v921zM594 1239h-186l92 270h186zM264 1509h185l-93 -270h-186z" />
    <glyph glyph-name="Uogonek" unicode="&#x172;" horiz-adv-x="878" 
d="M61 184v1352h289v-1251q0 -23 23 -23h155v1274h289v-1536h-98v-100q0 -11 7 -18t17 -7h74v-164h-131q-69 0 -111.5 42.5t-42.5 111.5v135h-286q-83 0 -134 50.5t-51 133.5z" />
    <glyph glyph-name="uogonek" unicode="&#x173;" horiz-adv-x="854" 
d="M61 164v921h246v-843q0 -17 17 -17h223v860h246v-1085h-25v-100q0 -10 7 -17.5t18 -7.5h73v-164h-131q-69 0 -111 42.5t-42 111.5v135h-35v78q-43 -78 -144 -78h-178q-73 0 -118.5 45t-45.5 119z" />
    <glyph glyph-name="Wcircumflex" unicode="&#x174;" horiz-adv-x="1486" 
d="M283 0l-222 1536h289l135 -1055l136 1055h245l135 -1055l136 1055h288l-221 -1536h-405l-56 508l-55 -508h-405zM512 1690l94 270h277l92 -270h-184l-48 133l-45 -133h-186z" />
    <glyph glyph-name="wcircumflex" unicode="&#x175;" horiz-adv-x="1335" 
d="M248 0l-187 1085h246l125 -761l123 761h225l125 -761l123 761h246l-187 -1085h-366l-53 412l-54 -412h-366zM623 1239h-187l94 270h277l92 -270h-184l-47 133z" />
    <glyph glyph-name="Ycircumflex" unicode="&#x176;" horiz-adv-x="1026" 
d="M369 645l-308 891h289l162 -473l164 473h289l-308 -891v-645h-288v645zM283 1690l94 270h276l92 -270h-184l-47 133l-45 -133h-186z" />
    <glyph glyph-name="ycircumflex" unicode="&#x177;" horiz-adv-x="948" 
d="M324 0l-263 1085h246l152 -686l182 686h246l-430 -1470h-246zM430 1239h-186l94 270h276l93 -270h-185l-47 133z" />
    <glyph glyph-name="Ydieresis" unicode="&#x178;" horiz-adv-x="1026" 
d="M61 1536h289l162 -473l164 473h289l-308 -891v-645h-288v645zM539 1690v120h186v-120h-186zM303 1810h186v-120h-186v120z" />
    <glyph glyph-name="Ydieresis" unicode="&#x3ab;" horiz-adv-x="1026" 
d="M61 1536h289l162 -473l164 473h289l-308 -891v-645h-288v645zM539 1690v120h186v-120h-186zM303 1810h186v-120h-186v120z" />
    <glyph glyph-name="Zacute" unicode="&#x179;" horiz-adv-x="743" 
d="M682 0h-621v221l359 1053h-359v262h621v-221l-358 -1053h358v-262zM467 1690h-186l92 270h186z" />
    <glyph glyph-name="zacute" unicode="&#x17a;" horiz-adv-x="743" 
d="M682 0h-621v184l359 676h-359v225h621v-184l-358 -676h358v-225zM467 1239h-186l92 270h186z" />
    <glyph glyph-name="Zdotaccent" unicode="&#x17b;" horiz-adv-x="743" 
d="M682 0h-621v221l359 1053h-359v262h621v-221l-358 -1053h358v-262zM270 1894h205v-204h-205v204z" />
    <glyph glyph-name="zdotaccent" unicode="&#x17c;" horiz-adv-x="743" 
d="M682 0h-621v184l359 676h-359v225h621v-184l-358 -676h358v-225zM270 1444h205v-205h-205v205z" />
    <glyph glyph-name="Zcaron" unicode="&#x17d;" horiz-adv-x="743" 
d="M682 0h-621v221l359 1053h-359v262h621v-221l-358 -1053h358v-262zM141 1960h187l45 -133l47 133h184l-92 -270h-276z" />
    <glyph glyph-name="zcaron" unicode="&#x17e;" horiz-adv-x="743" 
d="M682 0h-621v184l359 676h-359v225h621v-184l-358 -676h358v-225zM141 1509h187l45 -133l47 133h184l-92 -270h-276z" />
    <glyph glyph-name="florin" unicode="&#x192;" horiz-adv-x="927" 
d="M225 -385q-73 0 -118.5 45.5t-45.5 118.5v168h246v-90q0 -17 17 -17h79q17 0 17 17v1003h-127v225h127v246q0 73 45 118.5t119 45.5h282v-225h-184q-16 0 -16 -17v-168h127v-225h-127v-1081q0 -73 -45 -118.5t-119 -45.5h-277z" />
    <glyph glyph-name="uni0218" unicode="&#x218;" horiz-adv-x="743" 
d="M61 821v531q0 83 51 133.5t134 50.5h436v-262h-309q-23 0 -23 -23v-329q0 -23 23 -23h125q83 0 133.5 -50.5t50.5 -133.5v-531q0 -83 -50.5 -133.5t-133.5 -50.5h-437v262h310q22 0 22 23v329q0 23 -22 23h-125q-83 0 -134 50.5t-51 133.5zM350 -385h-123l72 270h186z
" />
    <glyph glyph-name="uni0219" unicode="&#x219;" horiz-adv-x="796" 
d="M61 225h412q16 0 16 17v172q0 16 -16 16h-248q-73 0 -118.5 45t-45.5 119v328q0 73 45 118t119 45h510v-225h-411q-17 0 -17 -16v-172q0 -17 17 -17h247q74 0 119 -45t45 -118v-328q0 -74 -45.5 -119t-118.5 -45h-510v225zM393 -385h-123l72 270h186z" />
    <glyph glyph-name="uni021A" unicode="&#x21a;" horiz-adv-x="710" 
d="M61 1274v262h588v-262h-149v-1274h-289v1274h-150zM334 -385h-123l72 270h186z" />
    <glyph glyph-name="uni021B" unicode="&#x21b;" horiz-adv-x="655" 
d="M61 1126v226h127v143h246v-143h127v-226h-127v-884q0 -17 17 -17h143v-225h-242q-74 0 -119 45t-45 119v962h-127zM393 -385h-123l72 270h186z" />
    <glyph glyph-name="circumflex" unicode="&#x2c6;" horiz-adv-x="585" 
d="M61 1536l95 270h276l92 -270h-184l-47 133l-45 -133h-187z" />
    <glyph glyph-name="caron" unicode="&#x2c7;" horiz-adv-x="585" 
d="M156 1536l-95 270h187l45 -133l47 133h184l-92 -270h-276z" />
    <glyph glyph-name="uni02C9" unicode="&#x2c9;" horiz-adv-x="700" 
d="M639 1741v-205h-578v205h578z" />
    <glyph glyph-name="breve" unicode="&#x2d8;" horiz-adv-x="581" 
d="M61 1769h152v-81h156v81h151v-120q0 -51 -30.5 -82t-81.5 -31h-234q-51 0 -82 31t-31 82v120z" />
    <glyph glyph-name="dotaccent" unicode="&#x2d9;" horiz-adv-x="327" 
d="M61 1536v205h205v-205h-205z" />
    <glyph glyph-name="ring" unicode="&#x2da;" horiz-adv-x="581" 
d="M215 1995h152q69 0 111 -42.5t42 -111.5v-151q0 -69 -42 -111.5t-111 -42.5h-152q-69 0 -111.5 42.5t-42.5 111.5v151q0 69 42.5 111.5t111.5 42.5zM369 1704v123q0 16 -17 16h-123q-16 0 -16 -16v-123q0 -16 16 -16h123q17 0 17 16z" />
    <glyph glyph-name="ogonek" unicode="&#x2db;" horiz-adv-x="407" 
d="M61 -135v135h187v-100q0 -11 7 -18t17 -7h74v-164h-131q-69 0 -111.5 42.5t-42.5 111.5z" />
    <glyph glyph-name="tilde" unicode="&#x2dc;" horiz-adv-x="772" 
d="M248 1536h-187l95 270h276l47 -133l45 133h187l-95 -270h-276l-45 133z" />
    <glyph glyph-name="hungarumlaut" unicode="&#x2dd;" horiz-adv-x="638" 
d="M299 1536l92 270h187l-93 -270h-186zM156 1806h184l-92 -270h-187z" />
    <glyph glyph-name="tonos" unicode="&#x384;" horiz-adv-x="401" 
d="M55 1266l92 270h187l-92 -270h-187z" />
    <glyph glyph-name="dieresistonos" unicode="&#x385;" horiz-adv-x="770" 
d="M375 1806h186l-92 -270h-186zM522 1536v121h187v-121h-187zM61 1536v121h187v-121h-187z" />
    <glyph glyph-name="Alphatonos" unicode="&#x386;" horiz-adv-x="1165" 
d="M348 1352q0 83 50.5 133.5t133.5 50.5h572v-1536h-289v276h-178v-276h-289v1352zM637 539h178v735h-153q-10 0 -17.5 -7t-7.5 -18v-710zM244 1266h-187l93 270h186z" />
    <glyph glyph-name="Epsilontonos" unicode="&#x388;" horiz-adv-x="935" 
d="M371 1536h503v-262h-215v-375h166v-262h-166v-375h215v-262h-503v1536zM55 1266l92 270h187l-92 -270h-187z" />
    <glyph glyph-name="Etatonos" unicode="&#x389;" horiz-adv-x="1181" 
d="M356 1536h289v-637h186v637h289v-1536h-289v637h-186v-637h-289v1536zM221 1266h-186l92 270h186z" />
    <glyph glyph-name="Iotatonos" unicode="&#x38a;" horiz-adv-x="700" 
d="M350 1536h289v-1536h-289v1536zM35 1266l92 270h186l-92 -270h-186z" />
    <glyph glyph-name="Omicrontonos" unicode="&#x38c;" horiz-adv-x="1128" 
d="M303 164v1208q0 74 45.5 119t118.5 45h436q73 0 118.5 -45t45.5 -119v-1208q0 -74 -45.5 -119t-118.5 -45h-436q-73 0 -118.5 45t-45.5 119zM592 287q0 -11 7 -18t17 -7h138q10 0 17 7t7 18v962q0 11 -7 18t-17 7h-138q-10 0 -17 -7t-7 -18v-962zM20 1266l93 270h186
l-92 -270h-187z" />
    <glyph glyph-name="Upsilontonos" unicode="&#x38e;" horiz-adv-x="1325" 
d="M668 645l-308 891h289l162 -473l164 473h289l-308 -891v-645h-288v645zM225 1266h-186l92 270h186z" />
    <glyph glyph-name="Omegatonos" unicode="&#x38f;" horiz-adv-x="1206" 
d="M324 262h90q-28 63 -45 144.5t-17 150.5v815q0 74 45 119t119 45h436q74 0 119 -45t45 -119v-815q0 -69 -16.5 -149.5t-44.5 -143.5v-2h90v-262h-379v262l45 105q16 37 16 77v805q0 11 -7 18t-17 7h-137q-10 0 -17.5 -7t-7.5 -18v-805q0 -40 16 -77l45 -105v-262h-378
v262zM236 1274h-187l92 270h187z" />
    <glyph glyph-name="iotadieresistonos" unicode="&#x390;" horiz-adv-x="411" 
d="M350 0h-289v1536h289v-1536zM104 1690l93 270h186l-92 -270h-187zM344 1690v120h186v-120h-186zM-117 1690v120h187v-120h-187z" />
    <glyph glyph-name="uni0413" unicode="&#x393;" horiz-adv-x="751" 
d="M690 1274h-340v-1274h-289v1536h629v-262z" />
    <glyph glyph-name="uni0413" unicode="&#x413;" horiz-adv-x="751" 
d="M690 1274h-340v-1274h-289v1536h629v-262z" />
    <glyph glyph-name="uni0394" unicode="&#x394;" horiz-adv-x="1050" 
d="M989 0h-928l258 1536h412zM354 262h342l-170 965z" />
    <glyph glyph-name="Theta" unicode="&#x398;" 
d="M225 0q-73 0 -118.5 45t-45.5 119v1208q0 74 45.5 119t118.5 45h437q73 0 118 -45t45 -119v-1208q0 -74 -45 -119t-118 -45h-437zM350 899h187v350q0 11 -7.5 18t-17.5 7h-137q-11 0 -18 -7t-7 -18v-350zM537 637h-187v-350q0 -11 7 -18t18 -7h137q10 0 17.5 7t7.5 18
v350z" />
    <glyph glyph-name="Lambda" unicode="&#x39b;" horiz-adv-x="1050" 
d="M61 0l258 1536h412l258 -1536h-289l-174 1042l-176 -1042h-289z" />
    <glyph glyph-name="Xi" unicode="&#x39e;" horiz-adv-x="944" 
d="M61 1274v262h822v-262h-822zM61 0v262h822v-262h-822zM823 637h-702v262h702v-262z" />
    <glyph glyph-name="Pi" unicode="&#x3a0;" 
d="M61 0v1536h764v-1536h-288v1274h-187v-1274h-289z" />
    <glyph glyph-name="Pi" unicode="&#x41f;" 
d="M61 0v1536h764v-1536h-288v1274h-187v-1274h-289z" />
    <glyph glyph-name="Sigma" unicode="&#x3a3;" horiz-adv-x="927" 
d="M61 262l258 637l-258 375v262h805v-262h-516l258 -375l-258 -637h516v-262h-805v262z" />
    <glyph glyph-name="uni0424" unicode="&#x3a6;" horiz-adv-x="1359" 
d="M246 195q-83 0 -134 50.5t-51 133.5v778q0 83 51 133.5t134 50.5h289v195h288v-195h291q83 0 133.5 -50.5t50.5 -133.5v-778q0 -83 -50.5 -133.5t-133.5 -50.5h-291v-195h-288v195h-289zM823 457h162q11 0 18 7t7 17v574q0 10 -7 17t-18 7h-162v-622zM350 1055v-574
q0 -10 7 -17t18 -7h160v622h-160q-11 0 -18 -7t-7 -17z" />
    <glyph glyph-name="uni0424" unicode="&#x424;" horiz-adv-x="1359" 
d="M246 195q-83 0 -134 50.5t-51 133.5v778q0 83 51 133.5t134 50.5h289v195h288v-195h291q83 0 133.5 -50.5t50.5 -133.5v-778q0 -83 -50.5 -133.5t-133.5 -50.5h-291v-195h-288v195h-289zM823 457h162q11 0 18 7t7 17v574q0 10 -7 17t-18 7h-162v-622zM350 1055v-574
q0 -10 7 -17t18 -7h160v622h-160q-11 0 -18 -7t-7 -17z" />
    <glyph glyph-name="Psi" unicode="&#x3a8;" horiz-adv-x="1359" 
d="M61 1536h289v-612q0 -10 7 -17.5t18 -7.5h160v637h288v-637h162q11 0 18 7.5t7 17.5v612h288v-715q0 -83 -50.5 -133.5t-133.5 -50.5h-291v-637h-288v637h-289q-83 0 -134 50.5t-51 133.5v715z" />
    <glyph glyph-name="Omega" unicode="&#x3a9;" horiz-adv-x="944" 
d="M61 262h91q-28 63 -45 144.5t-17 150.5v815q0 74 45 119t119 45h436q74 0 119 -45t45 -119v-815q0 -69 -16.5 -149.5t-44.5 -143.5v-2h90v-262h-379v262l45 105q16 37 16 77v805q0 11 -7 18t-17 7h-138q-10 0 -17 -7t-7 -18v-805q0 -40 16 -77l45 -105v-262h-379v262z
" />
    <glyph glyph-name="Omega" unicode="&#x2126;" horiz-adv-x="944" 
d="M61 262h91q-28 63 -45 144.5t-17 150.5v815q0 74 45 119t119 45h436q74 0 119 -45t45 -119v-815q0 -69 -16.5 -149.5t-44.5 -143.5v-2h90v-262h-379v262l45 105q16 37 16 77v805q0 11 -7 18t-17 7h-138q-10 0 -17 -7t-7 -18v-805q0 -40 16 -77l45 -105v-262h-379v262z
" />
    <glyph glyph-name="alphatonos" unicode="&#x3ac;" horiz-adv-x="825" 
d="M61 922q0 73 45 118t119 45h150q101 0 143 -77v77h246v-1085h-246v78q-43 -78 -143 -78h-150q-73 0 -118.5 45t-45.5 119v758zM307 844v-602q0 -17 17 -17h194v635h-194q-17 0 -17 -16zM508 1239h-186l92 270h186z" />
    <glyph glyph-name="epsilontonos" unicode="&#x3ad;" horiz-adv-x="630" 
d="M61 922q0 73 45 118t119 45h344v-225h-286q-17 0 -17 -16v-172q0 -17 17 -17h200v-225h-200q-17 0 -17 -16v-172q0 -17 17 -17h286v-225h-344q-73 0 -118.5 45t-45.5 119v758zM410 1239h-187l92 270h187z" />
    <glyph glyph-name="etatonos" unicode="&#x3ae;" horiz-adv-x="854" 
d="M61 0v1085h246v-77q42 77 144 77h178q74 0 119 -45t45 -118v-1307h-246v1229q0 16 -17 16h-223v-860h-246zM522 1239h-186l92 270h186z" />
    <glyph glyph-name="iotatonos" unicode="&#x3af;" horiz-adv-x="528" 
d="M119 164v696h-58v225h304v-843q0 -17 16 -17h86v-225h-184q-73 0 -118.5 45t-45.5 119zM121 1239l92 270h186l-92 -270h-186z" />
    <glyph glyph-name="upsilondieresistonos" unicode="&#x3b0;" horiz-adv-x="854" 
d="M61 164v921h246v-843q0 -17 17 -17h206q17 0 17 17v843h246v-921q0 -74 -45.5 -119t-118.5 -45h-404q-73 0 -118.5 45t-45.5 119zM326 1239l92 270h186l-92 -270h-186zM565 1239v121h187v-121h-187zM104 1360h187v-121h-187v121z" />
    <glyph glyph-name="alpha" unicode="&#x3b1;" horiz-adv-x="825" 
d="M61 922q0 73 45 118t119 45h150q101 0 143 -77v77h246v-1085h-246v78q-43 -78 -143 -78h-150q-73 0 -118.5 45t-45.5 119v758zM307 844v-602q0 -17 17 -17h194v635h-194q-17 0 -17 -16z" />
    <glyph glyph-name="beta" unicode="&#x3b2;" horiz-adv-x="800" 
d="M61 -385v1696q0 83 51 133.5t134 50.5h309q83 0 133.5 -50.5t50.5 -133.5v-342q0 -66 -38 -122t-99 -79q61 -23 99 -78t38 -121v-385q0 -83 -50.5 -133.5t-133.5 -50.5h-104q-101 0 -144 78v-463h-246zM307 225h162q11 0 18 7.5t7 17.5v373q0 10 -7 17t-18 7h-82v246h82
q11 0 18 7.5t7 17.5v327q0 11 -7 18t-18 7h-137q-10 0 -17.5 -7t-7.5 -18v-1020z" />
    <glyph glyph-name="gamma" unicode="&#x3b3;" horiz-adv-x="862" 
d="M61 1085h246l125 -723l123 723h246l-246 -1085v-385h-246v385z" />
    <glyph glyph-name="delta" unicode="&#x3b4;" horiz-adv-x="882" 
d="M61 1331q0 73 45.5 118.5t118.5 45.5h432q73 0 118.5 -45.5t45.5 -118.5v-133h-246v55q0 17 -16 17h-235q-17 0 -17 -17v-6q0 -17 12 -26l308 -275h30q73 0 118.5 -45t45.5 -119v-618q0 -74 -45.5 -119t-118.5 -45h-432q-73 0 -118.5 45t-45.5 119v618q0 74 45.5 119
t118.5 45h97l-216 195q-45 42 -45 102v88zM307 705v-463q0 -17 17 -17h235q16 0 16 17v463q0 16 -16 16h-235q-17 0 -17 -16z" />
    <glyph glyph-name="epsilon" unicode="&#x3b5;" horiz-adv-x="630" 
d="M61 922q0 73 45 118t119 45h344v-225h-286q-17 0 -17 -16v-172q0 -17 17 -17h200v-225h-200q-17 0 -17 -16v-172q0 -17 17 -17h286v-225h-344q-73 0 -118.5 45t-45.5 119v758z" />
    <glyph glyph-name="zeta" unicode="&#x3b6;" horiz-adv-x="745" 
d="M643 1290l-283 -573q-32 -69 -32 -135v-375q0 -18 16 -21l211 -59q58 -15 93.5 -61.5t35.5 -106.5v-344h-246v295q0 17 -16 20l-211 60q-58 15 -93.5 61.5t-35.5 106.5v393q0 84 37 156l278 563h-336v225h582v-205z" />
    <glyph glyph-name="eta" unicode="&#x3b7;" horiz-adv-x="854" 
d="M307 0h-246v1085h246v-77q42 77 144 77h178q74 0 119 -45t45 -118v-1307h-246v1229q0 16 -17 16h-223v-860z" />
    <glyph glyph-name="theta" unicode="&#x3b8;" horiz-adv-x="800" 
d="M225 0q-73 0 -118.5 45t-45.5 119v1167q0 73 45.5 118.5t118.5 45.5h350q73 0 118.5 -45.5t45.5 -118.5v-1167q0 -74 -45.5 -119t-118.5 -45h-350zM494 655h-187v-405q0 -10 7.5 -17.5t17.5 -7.5h137q11 0 18 7.5t7 17.5v405zM307 881h187v364q0 11 -7 18t-18 7h-137
q-10 0 -17.5 -7t-7.5 -18v-364z" />
    <glyph glyph-name="theta" unicode="&#x473;" horiz-adv-x="800" 
d="M225 0q-73 0 -118.5 45t-45.5 119v1167q0 73 45.5 118.5t118.5 45.5h350q73 0 118.5 -45.5t45.5 -118.5v-1167q0 -74 -45.5 -119t-118.5 -45h-350zM494 655h-187v-405q0 -10 7.5 -17.5t17.5 -7.5h137q11 0 18 7.5t7 17.5v405zM307 881h187v364q0 11 -7 18t-18 7h-137
q-10 0 -17.5 -7t-7.5 -18v-364z" />
    <glyph glyph-name="iota" unicode="&#x3b9;" horiz-adv-x="528" 
d="M119 164v696h-58v225h304v-843q0 -17 16 -17h86v-225h-184q-73 0 -118.5 45t-45.5 119z" />
    <glyph glyph-name="kappa" unicode="&#x3ba;" horiz-adv-x="763" 
d="M61 0v1085h226v-413l102 413h225l-131 -530l219 -555h-225l-190 483v-483h-226z" />
    <glyph glyph-name="lambda" unicode="&#x3bb;" horiz-adv-x="948" 
d="M61 2l267 1083l-117 408h246l430 -1491h-246l-180 625l-154 -625h-246z" />
    <glyph glyph-name="uni03BC" unicode="&#x3bc;" horiz-adv-x="854" 
d="M61 1085h246v-843q0 -17 17 -17h223v860h246v-1085h-246v78q-43 -78 -144 -78h-96v-385h-246v1470z" />
    <glyph glyph-name="xi" unicode="&#x3be;" horiz-adv-x="636" 
d="M61 1331q0 73 45.5 118.5t118.5 45.5h350v-225h-251q-17 0 -17 -17v-376q0 -17 17 -17h165v-225h-165q-17 0 -17 -17v-376q0 -17 17 -17h88q73 0 118 -45t45 -119v-446h-225v369q0 16 -16 16h-109q-73 0 -118.5 45t-45.5 119v434q0 52 28.5 96t76.5 66l14 6l-14 6
q-48 22 -76.5 66t-28.5 96v397z" />
    <glyph glyph-name="pi" unicode="&#x3c0;" horiz-adv-x="1140" 
d="M205 860h-144v225h1018v-225h-143v-618q0 -17 16 -17h86v-225h-184q-74 0 -119 45t-45 119v696h-239v-860h-246v860z" />
    <glyph glyph-name="rho" unicode="&#x3c1;" horiz-adv-x="837" 
d="M61 -385v1307q0 73 45 118t119 45h387q74 0 119 -45t45 -118v-758q0 -74 -45 -119t-119 -45h-305v-385h-246zM307 225h207q16 0 16 17v602q0 16 -16 16h-190q-17 0 -17 -16v-619z" />
    <glyph glyph-name="sigma1" unicode="&#x3c2;" horiz-adv-x="763" 
d="M82 922q0 73 45 118t119 45h438v-225h-340q-16 0 -16 -16v-637q0 -18 16 -21l211 -59q58 -15 93.5 -61.5t35.5 -106.5v-344h-246v295q0 17 -16 20l-182 52q-71 20 -114.5 76.5t-43.5 129.5v734z" />
    <glyph glyph-name="sigma" unicode="&#x3c3;" horiz-adv-x="1028" 
d="M61 922q0 73 45 118t119 45h742v-225h-224q78 -43 78 -143v-553q0 -74 -45.5 -119t-118.5 -45h-432q-73 0 -118.5 45t-45.5 119v758zM307 242q0 -17 17 -17h235q16 0 16 17v618h-251q-17 0 -17 -16v-602z" />
    <glyph glyph-name="tau" unicode="&#x3c4;" horiz-adv-x="704" 
d="M61 860v225h582v-225h-168v-618q0 -17 17 -17h143v-225h-242q-73 0 -118.5 45t-45.5 119v696h-168z" />
    <glyph glyph-name="upsilon" unicode="&#x3c5;" horiz-adv-x="854" 
d="M61 1085h246v-843q0 -17 17 -17h206q17 0 17 17v843h246v-921q0 -74 -45.5 -119t-118.5 -45h-404q-73 0 -118.5 45t-45.5 119v921z" />
    <glyph glyph-name="phi" unicode="&#x3c6;" horiz-adv-x="1146" 
d="M61 922q0 73 45 118t119 45h148v-225h-49q-17 0 -17 -16v-602q0 -17 17 -17h127v697q0 74 44.5 118.5t118.5 44.5h308q74 0 118.5 -44.5t44.5 -118.5v-758q0 -74 -45 -119t-118 -45h-226v-385h-245v385h-226q-73 0 -118.5 45t-45.5 119v758zM696 225h127q17 0 17 17v602
q0 16 -17 16h-110q-17 0 -17 -16v-619z" />
    <glyph glyph-name="chi" unicode="&#x3c7;" horiz-adv-x="835" 
d="M61 1085h246l111 -389l110 389h246l-233 -735l233 -735h-246l-110 389l-111 -389h-246l234 735z" />
    <glyph glyph-name="psi" unicode="&#x3c8;" horiz-adv-x="1146" 
d="M61 1085h246v-843q0 -17 17 -17h127v860h245v-860h127q17 0 17 17v843h245v-921q0 -74 -45 -119t-118 -45h-226v-385h-245v385h-226q-73 0 -118.5 45t-45.5 119v921z" />
    <glyph glyph-name="omega" unicode="&#x3c9;" horiz-adv-x="1146" 
d="M61 1085h246v-843q0 -17 17 -17h127v860h245v-860h127q17 0 17 17v843h245v-921q0 -74 -45 -119t-118 -45h-697q-73 0 -118.5 45t-45.5 119v921z" />
    <glyph glyph-name="iotadieresis" unicode="&#x3ca;" horiz-adv-x="528" 
d="M61 860v225h304v-843q0 -17 16 -17h86v-225h-184q-73 0 -118.5 45t-45.5 119v696h-58zM238 1360h186v-121h-186v121zM2 1360h186v-121h-186v121z" />
    <glyph glyph-name="upsilondieresis" unicode="&#x3cb;" horiz-adv-x="854" 
d="M61 164v921h246v-843q0 -17 17 -17h206q17 0 17 17v843h246v-921q0 -74 -45.5 -119t-118.5 -45h-404q-73 0 -118.5 45t-45.5 119zM453 1239v121h186v-121h-186zM403 1360v-121h-186v121h186z" />
    <glyph glyph-name="omicrontonos" unicode="&#x3cc;" horiz-adv-x="882" 
d="M61 164v758q0 73 45 118t119 45h432q74 0 119 -45t45 -118v-758q0 -74 -45.5 -119t-118.5 -45h-432q-73 0 -118.5 45t-45.5 119zM559 860h-235q-17 0 -17 -16v-602q0 -17 17 -17h235q16 0 16 17v602q0 16 -16 16zM350 1239l92 270h187l-92 -270h-187z" />
    <glyph glyph-name="upsilontonos" unicode="&#x3cd;" horiz-adv-x="854" 
d="M61 164v921h246v-843q0 -17 17 -17h206q17 0 17 17v843h246v-921q0 -74 -45.5 -119t-118.5 -45h-404q-73 0 -118.5 45t-45.5 119zM336 1239l92 270h186l-92 -270h-186z" />
    <glyph glyph-name="omegatonos" unicode="&#x3ce;" horiz-adv-x="1146" 
d="M61 1085h246v-843q0 -17 17 -17h127v860h245v-860h127q17 0 17 17v843h245v-921q0 -74 -45 -119t-118 -45h-697q-73 0 -118.5 45t-45.5 119v921zM668 1239h-187l92 270h187z" />
    <glyph glyph-name="uni0402" unicode="&#x402;" horiz-adv-x="1036" 
d="M61 1274v262h590v-262h-149v-375h289q83 0 133.5 -50.5t50.5 -133.5v-860q0 -83 -50.5 -134t-133.5 -51h-412v262h283q10 0 17 7t7 18v655q0 11 -7 18t-17 7h-160v-637h-289v1274h-152z" />
    <glyph glyph-name="uni0403" unicode="&#x403;" horiz-adv-x="751" 
d="M690 1274h-340v-1274h-289v1536h629v-262zM285 1690l92 270h186l-92 -270h-186z" />
    <glyph glyph-name="uni0404" unicode="&#x404;" horiz-adv-x="626" 
d="M246 0q-83 0 -134 50.5t-51 133.5v1168q0 83 51 133.5t134 50.5h319v-262h-190q-11 0 -18 -7t-7 -18v-350h166v-262h-166v-350q0 -11 7 -18t18 -7h190v-262h-319z" />
    <glyph glyph-name="uni0409" unicode="&#x409;" horiz-adv-x="1583" 
d="M61 262h199q10 0 17.5 7t7.5 18v1249h764v-637h288q83 0 134 -50.5t51 -133.5v-531q0 -83 -51 -133.5t-134 -50.5h-577v1274h-187v-1090q0 -83 -50.5 -133.5t-133.5 -50.5h-328v262zM1208 637h-159v-375h159q10 0 17.5 7t7.5 18v325q0 10 -7.5 17.5t-17.5 7.5z" />
    <glyph glyph-name="uni040A" unicode="&#x40a;" horiz-adv-x="1359" 
d="M61 1536h289v-637h187v637h288v-637h289q83 0 133.5 -50.5t50.5 -133.5v-531q0 -83 -50.5 -133.5t-133.5 -50.5h-577v637h-187v-637h-289v1536zM825 262h160q11 0 18 7t7 18v325q0 10 -7 17.5t-18 7.5h-160v-375z" />
    <glyph glyph-name="uni040B" unicode="&#x40b;" horiz-adv-x="1036" 
d="M61 1536h590v-262h-149v-375h289q83 0 133.5 -50.5t50.5 -133.5v-715h-289v612q0 11 -7 18t-17 7h-160v-637h-289v1274h-152v262z" />
    <glyph glyph-name="uni040C" unicode="&#x40c;" horiz-adv-x="907" 
d="M61 1536h289v-610q154 319 207 610h289q-64 -381 -283 -768l283 -768h-289l-207 608v-608h-289v1536zM549 1690h-187l93 270h186z" />
    <glyph glyph-name="uni040D" unicode="&#x40d;" 
d="M350 0h-289v1536h289v-651l187 651h288v-1536h-288v651zM350 1690l-92 270h186l93 -270h-187z" />
    <glyph glyph-name="uni040E" unicode="&#x40e;" 
d="M61 821v715h289v-612q0 -10 7 -17.5t18 -7.5h162v637h288v-1352q0 -83 -50.5 -133.5t-133.5 -50.5h-426v262h297q10 0 17.5 7t7.5 18v350h-291q-21 0 -31 2q-71 9 -112.5 58t-41.5 124zM215 1802v121h152v-82h155v82h152v-121q0 -51 -31 -81.5t-82 -30.5h-233
q-51 0 -82 30.5t-31 81.5z" />
    <glyph glyph-name="uni040F" unicode="&#x40f;" 
d="M61 1536h289v-1274h187v1274h288v-1536h-276v-180h-209v180h-279v1536z" />
    <glyph glyph-name="uni0411" unicode="&#x411;" 
d="M641 0h-580v1536h703v-262h-414v-291h291q83 0 133.5 -50.5t50.5 -133.5v-615q0 -83 -50.5 -133.5t-133.5 -50.5zM350 262h162q10 0 17.5 7t7.5 18v409q0 10 -7.5 17.5t-17.5 7.5h-162v-459z" />
    <glyph glyph-name="uni0414" unicode="&#x414;" horiz-adv-x="1361" 
d="M270 -180h-209v442h152q98 595 137 1274h742v-1274h208v-442h-208v180h-822v-180zM623 1274q-42 -556 -121 -1012h301v1012h-180z" />
    <glyph glyph-name="uni0416" unicode="&#x416;" horiz-adv-x="1603" 
d="M61 0l308 768l-308 768h289l254 -637h53v637h289v-637h51l256 637h289l-307 -768l307 -768h-289l-256 637h-51v-637h-289v637h-53l-254 -637h-289z" />
    <glyph glyph-name="uni0418" unicode="&#x418;" 
d="M61 0v1536h289v-651l187 651h288v-1536h-288v651l-187 -651h-289z" />
    <glyph glyph-name="uni0419" unicode="&#x419;" 
d="M350 0h-289v1536h289v-651l187 651h288v-1536h-288v651zM215 1923h152v-82h155v82h152v-121q0 -51 -31 -81.5t-82 -30.5h-233q-51 0 -82 30.5t-31 81.5v121z" />
    <glyph glyph-name="uni041A" unicode="&#x41a;" horiz-adv-x="907" 
d="M350 0h-289v1536h289v-610q154 319 207 610h289q-64 -381 -283 -768l283 -768h-289l-207 608v-608z" />
    <glyph glyph-name="uni041B" unicode="&#x41b;" horiz-adv-x="1110" 
d="M61 0v262h201q10 0 17.5 7t7.5 18v1249h762v-1536h-289v1274h-185v-1090q0 -83 -50.5 -133.5t-133.5 -50.5h-330z" />
    <glyph glyph-name="uni0423" unicode="&#x423;" 
d="M61 1536h289v-612q0 -10 7 -17.5t18 -7.5h162v637h288v-1352q0 -83 -50.5 -133.5t-133.5 -50.5h-426v262h297q10 0 17.5 7t7.5 18v350h-291q-83 0 -134 50.5t-51 133.5v715z" />
    <glyph glyph-name="uni0426" unicode="&#x426;" horiz-adv-x="1095" 
d="M764 0h-703v1536h289v-1274h187v1274h288v-1274h148v-442h-209v180z" />
    <glyph glyph-name="uni0427" unicode="&#x427;" 
d="M246 637q-83 0 -134 50.5t-51 133.5v715h289v-612q0 -10 7 -17.5t18 -7.5h162v637h288v-1536h-288v637h-291z" />
    <glyph glyph-name="uni0428" unicode="&#x428;" horiz-adv-x="1359" 
d="M1298 0h-1237v1536h289v-1274h185v1274h288v-1274h187v1274h288v-1536z" />
    <glyph glyph-name="uni0429" unicode="&#x429;" horiz-adv-x="1568" 
d="M61 1536h289v-1274h185v1274h288v-1274h187v1274h288v-1274h148v-442h-209v180h-1176v1536z" />
    <glyph glyph-name="uni042A" unicode="&#x42a;" horiz-adv-x="1081" 
d="M61 1274v262h484v-637h291q83 0 133.5 -50.5t50.5 -133.5v-531q0 -83 -50.5 -133.5t-133.5 -50.5h-580v1274h-195zM707 637h-162v-375h162q10 0 17 7t7 18v325q0 11 -7 18t-17 7z" />
    <glyph glyph-name="uni042B" unicode="&#x42b;" horiz-adv-x="1290" 
d="M61 0v1536h289v-637h291q83 0 133.5 -50.5t50.5 -133.5v-531q0 -83 -50.5 -133.5t-133.5 -50.5h-580zM1229 0h-289v1536h289v-1536zM350 637v-375h162q10 0 17.5 7t7.5 18v325q0 10 -7.5 17.5t-17.5 7.5h-162z" />
    <glyph glyph-name="uni042C" unicode="&#x42c;" 
d="M641 0h-580v1536h289v-637h291q83 0 133.5 -50.5t50.5 -133.5v-531q0 -83 -50.5 -133.5t-133.5 -50.5zM350 262h162q10 0 17.5 7t7.5 18v325q0 10 -7.5 17.5t-17.5 7.5h-162v-375z" />
    <glyph glyph-name="uni042D" unicode="&#x42d;" horiz-adv-x="626" 
d="M61 262h191q10 0 17 7t7 18v350h-165v262h165v350q0 11 -7 18t-17 7h-191v262h320q83 0 133.5 -50.5t50.5 -133.5v-1168q0 -83 -50.5 -133.5t-133.5 -50.5h-320v262z" />
    <glyph glyph-name="uni042E" unicode="&#x42e;" horiz-adv-x="1359" 
d="M61 0v1536h289v-637h187v453q0 83 50.5 133.5t133.5 50.5h393q83 0 133.5 -50.5t50.5 -133.5v-1168q0 -83 -50.5 -133.5t-133.5 -50.5h-393q-83 0 -133.5 50.5t-50.5 133.5v453h-187v-637h-289zM825 1249v-962q0 -11 7.5 -18t17.5 -7h135q11 0 18 7t7 18v962q0 11 -7 18
t-18 7h-135q-10 0 -17.5 -7t-7.5 -18z" />
    <glyph glyph-name="uni042F" unicode="&#x42f;" 
d="M215 555q-69 0 -111.5 42.5t-42.5 111.5v643q0 83 51 133.5t134 50.5h579v-1536h-288v555h-21l-139 -555h-289l139 555h-12zM350 1251v-411q0 -23 23 -23h164v457h-164q-23 0 -23 -23z" />
    <glyph glyph-name="uni0431" unicode="&#x431;" horiz-adv-x="800" 
d="M61 1331q0 73 45.5 118.5t118.5 45.5h375v-225h-276q-17 0 -17 -17v-168h248q83 0 133.5 -50.5t50.5 -133.5v-717q0 -83 -50.5 -133.5t-133.5 -50.5h-494v1331zM307 860v-635h162q11 0 18 7.5t7 17.5v586q0 10 -7 17t-18 7h-162z" />
    <glyph glyph-name="uni0432" unicode="&#x432;" horiz-adv-x="786" 
d="M541 0h-480v1085h480q83 0 133.5 -50.5t50.5 -133.5v-178q0 -50 -25.5 -94.5t-68.5 -67.5h-2q43 -23 69.5 -67t26.5 -93v-217q0 -83 -50.5 -133.5t-133.5 -50.5zM307 635h148q11 0 17.5 6.5t6.5 17.5v177q0 10 -6.5 17t-17.5 7h-148v-225zM307 225h148q10 0 17 7t7 18
v176q0 11 -7 18t-17 7h-148v-226z" />
    <glyph glyph-name="uni0433" unicode="&#x433;" horiz-adv-x="669" 
d="M61 1085h547v-225h-301v-860h-246v1085z" />
    <glyph glyph-name="uni0434" unicode="&#x434;" horiz-adv-x="1105" 
d="M217 -133h-156v358h115q42 261 64.5 448.5t33.5 411.5h611v-860h159v-358h-157v133h-670v-133zM420 225h219v635h-133q-3 -48 -7.5 -94.5t-7.5 -80t-9.5 -81t-9.5 -70t-12 -76t-11.5 -70t-14 -81t-14.5 -82.5z" />
    <glyph glyph-name="uni0436" unicode="&#x436;" horiz-adv-x="1294" 
d="M61 1085h246l178 -430h39v430h246v-430h37l180 430h246l-217 -542l217 -543h-246l-180 430h-37v-430h-246v430h-39l-178 -430h-246l218 543z" />
    <glyph glyph-name="uni0437" unicode="&#x437;" horiz-adv-x="688" 
d="M61 225h304q16 0 16 17v170q0 16 -16 16h-218v225h218q16 0 16 17v174q0 16 -16 16h-304v225h402q74 0 119 -45t45 -118v-199q0 -60 -34.5 -109t-90.5 -71l-15 -6l15 -7q56 -22 90.5 -71t34.5 -109v-186q0 -74 -45.5 -119t-118.5 -45h-402v225z" />
    <glyph glyph-name="uni0438" unicode="&#x438;" horiz-adv-x="854" 
d="M61 0v1085h246v-536l240 536h246v-1085h-246v537l-240 -537h-246z" />
    <glyph glyph-name="uni0439" unicode="&#x439;" horiz-adv-x="854" 
d="M307 549l240 536h246v-1085h-246v537l-240 -537h-246v1085h246v-536zM199 1473h151v-82h156v82h151v-121q0 -51 -30.5 -82t-81.5 -31h-234q-51 0 -81.5 31t-30.5 82v121z" />
    <glyph glyph-name="uni043A" unicode="&#x43a;" horiz-adv-x="759" 
d="M307 0h-246v1085h246v-432q114 251 146 432h245q-22 -134 -76 -280.5t-124 -261.5l200 -543h-245l-146 430v-430z" />
    <glyph glyph-name="uni043B" unicode="&#x43b;" horiz-adv-x="956" 
d="M61 0v225h86q17 0 17 17v843h731v-1085h-246v860h-239v-696q0 -74 -45 -119t-119 -45h-185z" />
    <glyph glyph-name="uni043C" unicode="&#x43c;" horiz-adv-x="917" 
d="M61 0v1085h246l152 -460l151 460h246v-1085h-246v461l-151 -461l-152 461v-461h-246z" />
    <glyph glyph-name="uni043D" unicode="&#x43d;" horiz-adv-x="800" 
d="M61 1085h246v-430h187v430h245v-1085h-245v430h-187v-430h-246v1085z" />
    <glyph glyph-name="uni043F" unicode="&#x43f;" horiz-adv-x="854" 
d="M307 0h-246v1085h732v-1085h-246v860h-240v-860z" />
    <glyph glyph-name="uni0442" unicode="&#x442;" horiz-adv-x="667" 
d="M61 860v225h545v-225h-149v-860h-246v860h-150z" />
    <glyph glyph-name="uni0444" unicode="&#x444;" horiz-adv-x="1146" 
d="M225 0q-73 0 -118.5 45t-45.5 119v758q0 73 45 118t119 45h226v242h245v-242h226q74 0 118.5 -44.5t44.5 -118.5v-758q0 -74 -45 -119t-118 -45h-226v-242h-245v242h-226zM696 225h127q17 0 17 17v602q0 16 -17 16h-127v-635zM307 844v-602q0 -17 17 -17h127v635h-127
q-17 0 -17 -16z" />
    <glyph glyph-name="uni0446" unicode="&#x446;" horiz-adv-x="1001" 
d="M731 0h-670v1085h246v-860h240v860h246v-860h147v-442h-209v217z" />
    <glyph glyph-name="uni0447" unicode="&#x447;" horiz-adv-x="800" 
d="M246 399q-83 0 -134 51t-51 134v499h246v-434q0 -10 7 -17t18 -7h162v458h245v-1083h-245v399h-248z" />
    <glyph glyph-name="uni0448" unicode="&#x448;" horiz-adv-x="1230" 
d="M1169 0h-1108v1085h246v-860h185v860h245v-860h187v860h245v-1085z" />
    <glyph glyph-name="uni0449" unicode="&#x449;" horiz-adv-x="1378" 
d="M1108 0h-1047v1085h246v-860h185v860h245v-860h187v860h245v-860h148v-442h-209v217z" />
    <glyph glyph-name="uni044A" unicode="&#x44a;" horiz-adv-x="858" 
d="M61 860v225h351v-393h221q73 0 118.5 -45t45.5 -119v-364q0 -74 -45.5 -119t-118.5 -45h-467v860h-105zM535 467h-123v-242h123q16 0 16 17v209q0 16 -16 16z" />
    <glyph glyph-name="uni044B" unicode="&#x44b;" horiz-adv-x="1101" 
d="M61 0v1085h246v-393h221q74 0 119 -45t45 -119v-364q0 -74 -45 -119t-119 -45h-467zM1040 0h-225v1085h225v-1085zM307 467v-242h123q16 0 16 17v209q0 16 -16 16h-123z" />
    <glyph glyph-name="uni044C" unicode="&#x44c;" horiz-adv-x="753" 
d="M528 0h-467v1085h246v-393h221q74 0 119 -45t45 -119v-364q0 -74 -45 -119t-119 -45zM307 225h123q16 0 16 17v209q0 16 -16 16h-123v-242z" />
    <glyph glyph-name="uni044D" unicode="&#x44d;" horiz-adv-x="630" 
d="M61 860v225h345q74 0 118.5 -44.5t44.5 -118.5v-758q0 -74 -45 -119t-118 -45h-345v225h287q17 0 17 17v172q0 16 -17 16h-201v225h201q17 0 17 17v172q0 16 -17 16h-287z" />
    <glyph glyph-name="uni044E" unicode="&#x44e;" horiz-adv-x="1312" 
d="M307 0h-246v1085h246v-430h185v267q0 74 45 118.5t118 44.5h432q74 0 119 -45t45 -118v-758q0 -74 -45.5 -119t-118.5 -45h-432q-73 0 -118 45t-45 119v266h-185v-430zM737 844v-602q0 -17 17 -17h235q17 0 17 17v602q0 16 -17 16h-235q-17 0 -17 -16z" />
    <glyph glyph-name="uni044F" unicode="&#x44f;" horiz-adv-x="780" 
d="M184 393q-56 0 -89.5 33.5t-33.5 89.5v406q0 73 45 118t119 45h494v-1085h-246v393h-20l-105 -393h-246l105 393h-23zM307 844v-209q0 -17 17 -17h149v242h-149q-17 0 -17 -16z" />
    <glyph glyph-name="uni0452" unicode="&#x452;" horiz-adv-x="921" 
d="M61 1085v226h123v84h246v-84h123v-226h-123v-186h246q83 0 133.5 -50.5t50.5 -133.5v-916q0 -83 -50.5 -133.5t-133.5 -50.5h-369v225h283q10 0 17 7t7 18v784q0 11 -7 18t-17 7h-160v-674h-246v1085h-123z" />
    <glyph glyph-name="uni0453" unicode="&#x453;" horiz-adv-x="669" 
d="M61 1085h547v-225h-301v-860h-246v1085zM430 1239h-186l92 270h186z" />
    <glyph glyph-name="uni0454" unicode="&#x454;" horiz-adv-x="630" 
d="M61 922q0 73 45 118t119 45h344v-225h-286q-17 0 -17 -16v-172q0 -17 17 -17h200v-225h-200q-17 0 -17 -16v-172q0 -17 17 -17h286v-225h-344q-73 0 -118.5 45t-45.5 119v758z" />
    <glyph glyph-name="uni0459" unicode="&#x459;" horiz-adv-x="1263" 
d="M61 225h119q17 0 17 17v843h620v-393h221q74 0 119 -45t45 -119v-364q0 -74 -45 -119t-119 -45h-467v860h-129v-696q0 -74 -45 -119t-118 -45h-218v225zM940 467h-123v-242h123q16 0 16 17v209q0 16 -16 16z" />
    <glyph glyph-name="uni045A" unicode="&#x45a;" horiz-adv-x="1230" 
d="M61 1085h246v-393h230v393h245v-393h224q73 0 118 -45t45 -119v-364q0 -74 -45 -119t-118 -45h-469v467h-230v-467h-246v1085zM782 225h117q11 0 18 7.5t7 17.5v192q0 10 -7 17.5t-18 7.5h-117v-242z" />
    <glyph glyph-name="uni045B" unicode="&#x45b;" horiz-adv-x="841" 
d="M61 1186h-161v205h161v104h246v-104h170v-205h-170v-178q42 77 144 77h161q74 0 119 -45t45 -118v-922h-246v844q0 16 -16 16h-207v-860h-246v1186z" />
    <glyph glyph-name="uni045C" unicode="&#x45c;" horiz-adv-x="759" 
d="M61 1085h246v-432q114 251 146 432h245q-22 -134 -76 -280.5t-124 -261.5l200 -543h-245l-146 430v-430h-246v1085zM475 1239h-186l92 270h186z" />
    <glyph glyph-name="uni045D" unicode="&#x45d;" horiz-adv-x="854" 
d="M307 549l240 536h246v-1085h-246v537l-240 -537h-246v1085h246v-536zM242 1509h186l92 -270h-186z" />
    <glyph glyph-name="uni045E" unicode="&#x45e;" horiz-adv-x="948" 
d="M61 1085h246l152 -686l182 686h246l-430 -1470h-246l113 385zM246 1352v121h151v-82h156v82h152v-121q0 -51 -31 -82t-82 -31h-234q-51 0 -81.5 31t-30.5 82z" />
    <glyph glyph-name="uni045F" unicode="&#x45f;" horiz-adv-x="854" 
d="M61 1085h246v-860h240v860h246v-1085h-261v-180h-208v180h-263v1085z" />
    <glyph glyph-name="uni0490" unicode="&#x490;" horiz-adv-x="878" 
d="M350 1274v-1274h-289v1536h467v293h289v-555h-467z" />
    <glyph glyph-name="uni0491" unicode="&#x491;" horiz-adv-x="729" 
d="M307 0h-246v1085h381v258h226v-483h-361v-860z" />
    <glyph glyph-name="Wgrave" unicode="&#x1e80;" horiz-adv-x="1486" 
d="M61 1536h289l135 -1055l136 1055h245l135 -1055l136 1055h288l-221 -1536h-405l-56 508l-55 -508h-405zM649 1690l-92 270h186l93 -270h-187z" />
    <glyph glyph-name="wgrave" unicode="&#x1e81;" horiz-adv-x="1335" 
d="M61 1085h246l125 -761l123 761h225l125 -761l123 761h246l-187 -1085h-366l-53 412l-54 -412h-366zM481 1509h187l92 -270h-187z" />
    <glyph glyph-name="Wacute" unicode="&#x1e82;" horiz-adv-x="1486" 
d="M283 0l-222 1536h289l135 -1055l136 1055h245l135 -1055l136 1055h288l-221 -1536h-405l-56 508l-55 -508h-405zM838 1690h-187l92 270h187z" />
    <glyph glyph-name="wacute" unicode="&#x1e83;" horiz-adv-x="1335" 
d="M61 1085h246l125 -761l123 761h225l125 -761l123 761h246l-187 -1085h-366l-53 412l-54 -412h-366zM762 1239h-187l93 270h186z" />
    <glyph glyph-name="Wdieresis" unicode="&#x1e84;" horiz-adv-x="1486" 
d="M61 1536h289l135 -1055l136 1055h245l135 -1055l136 1055h288l-221 -1536h-405l-56 508l-55 -508h-405zM954 1810v-120h-186v120h186zM532 1810h187v-120h-187v120z" />
    <glyph glyph-name="wdieresis" unicode="&#x1e85;" horiz-adv-x="1335" 
d="M61 1085h246l125 -761l123 761h225l125 -761l123 761h246l-187 -1085h-366l-53 412l-54 -412h-366zM692 1239v121h187v-121h-187zM457 1239v121h186v-121h-186z" />
    <glyph glyph-name="Ygrave" unicode="&#x1ef2;" horiz-adv-x="1026" 
d="M369 645l-308 891h289l162 -473l164 473h289l-308 -891v-645h-288v645zM328 1960h186l92 -270h-186z" />
    <glyph glyph-name="ygrave" unicode="&#x1ef3;" horiz-adv-x="948" 
d="M61 1085h246l152 -686l182 686h246l-430 -1470h-246l113 385zM381 1239l-92 270h186l92 -270h-186z" />
    <glyph glyph-name="endash" unicode="&#x2013;" horiz-adv-x="968" 
d="M907 870v-204h-846v204h846z" />
    <glyph glyph-name="emdash" unicode="&#x2014;" horiz-adv-x="1144" 
d="M1083 870v-204h-1022v204h1022z" />
    <glyph glyph-name="quoteleft" unicode="&#x2018;" horiz-adv-x="401" 
d="M61 1266l136 270h122l-71 -270h-187z" />
    <glyph glyph-name="quoteright" unicode="&#x2019;" horiz-adv-x="358" 
d="M319 1536l-135 -270h-123l72 270h186z" />
    <glyph glyph-name="quotesinglbase" unicode="&#x201a;" horiz-adv-x="380" 
d="M319 102l-135 -270h-123l72 270h186z" />
    <glyph glyph-name="quotedblleft" unicode="&#x201c;" horiz-adv-x="608" 
d="M289 1266l135 270h123l-72 -270h-186zM61 1266l136 270h122l-71 -270h-187z" />
    <glyph glyph-name="quotedblright" unicode="&#x201d;" horiz-adv-x="608" 
d="M289 1266l71 270h187l-135 -270h-123zM61 1266l72 270h186l-135 -270h-123z" />
    <glyph glyph-name="quotedblbase" unicode="&#x201e;" horiz-adv-x="608" 
d="M289 -168l71 270h187l-135 -270h-123zM61 -168l72 270h186l-135 -270h-123z" />
    <glyph glyph-name="dagger" unicode="&#x2020;" horiz-adv-x="905" 
d="M61 1161h248v375h289v-375h246v-262h-246v-899h-289v899h-248v262z" />
    <glyph glyph-name="daggerdbl" unicode="&#x2021;" horiz-adv-x="905" 
d="M309 899h-248v262h248v375h289v-375h246v-262h-246v-262h246v-262h-246v-375h-289v375h-248v262h248v262z" />
    <glyph glyph-name="bullet" unicode="&#x2022;" horiz-adv-x="563" 
d="M61 602v113q0 83 51 133.5t134 50.5h71q83 0 134 -50.5t51 -133.5v-113q0 -83 -51 -133.5t-134 -50.5h-71q-83 0 -134 50.5t-51 133.5z" />
    <glyph glyph-name="ellipsis" unicode="&#x2026;" horiz-adv-x="1234" 
d="M1174 0h-289v287h289v-287zM473 0v287h289v-287h-289zM61 287h289v-287h-289v287z" />
    <glyph glyph-name="perthousand" unicode="&#x2030;" horiz-adv-x="2297" 
d="M61 1341q0 51 31 82t82 31h332q51 0 81.5 -31t30.5 -82v-555q0 -51 -30.5 -81.5t-81.5 -30.5h-332q-51 0 -82 30.5t-31 81.5v555zM1174 84q-51 0 -82 31t-31 82v555q0 51 31 81.5t82 30.5h331q51 0 82 -30.5t31 -81.5v-555q0 -51 -31 -82t-82 -31h-331zM1679 752
q0 51 31 81.5t82 30.5h332q51 0 81.5 -30.5t30.5 -81.5v-555q0 -51 -30.5 -82t-81.5 -31h-332q-51 0 -82 31t-31 82v555zM756 0h-269l437 1536h268zM1866 362q0 -16 16 -16h154q16 0 16 16v224q0 16 -16 16h-154q-16 0 -16 -16v-224zM1247 586v-224q0 -16 17 -16h153
q17 0 17 16v224q0 16 -17 16h-153q-17 0 -17 -16zM264 1192q-16 0 -16 -16v-224q0 -16 16 -16h154q16 0 16 16v224q0 16 -16 16h-154z" />
    <glyph glyph-name="guilsinglleft" unicode="&#x2039;" horiz-adv-x="483" 
d="M217 1061h205l-156 -293l156 -293h-205l-156 293z" />
    <glyph glyph-name="guilsinglright" unicode="&#x203a;" horiz-adv-x="483" 
d="M61 1061h205l156 -293l-156 -293h-205l156 293z" />
    <glyph glyph-name="fraction" unicode="&#x2044;" horiz-adv-x="409" 
d="M319 1536h207l-436 -1536h-207z" />
    <glyph glyph-name="uni2070" unicode="&#x2070;" horiz-adv-x="655" 
d="M176 1536h303q53 0 84 -31t31 -84v-846q0 -52 -31 -83t-84 -31h-303q-53 0 -84 31t-31 83v846q0 53 31.5 84t83.5 31zM281 645h94q18 0 18 17v673q0 17 -18 17h-94q-17 0 -17 -17v-673q0 -17 17 -17z" />
    <glyph glyph-name="uni2074" unicode="&#x2074;" horiz-adv-x="657" 
d="M190 907q-58 0 -93.5 35.5t-35.5 93.5v500h203v-428q0 -18 17 -18h112v446h203v-1075h-203v446h-203z" />
    <glyph glyph-name="uni2075" unicode="&#x2075;" horiz-adv-x="557" 
d="M61 1036v500h435v-184h-232v-246q0 -16 15 -16h88q59 0 94 -35t35 -94v-371q0 -58 -35 -93.5t-94 -35.5h-306v184h218q14 0 14 14v232q0 16 -14 16h-89q-58 0 -93.5 35.5t-35.5 93.5z" />
    <glyph glyph-name="uni2076" unicode="&#x2076;" horiz-adv-x="657" 
d="M190 461q-58 0 -93.5 35.5t-35.5 93.5v817q0 59 35.5 94t93.5 35h363v-184h-272q-17 0 -17 -17v-186h203q59 0 94 -35.5t35 -93.5v-430q0 -58 -35 -93.5t-94 -35.5h-277zM264 965v-303q0 -17 17 -17h96q16 0 16 17v286q0 17 -16 17h-113z" />
    <glyph glyph-name="uni2077" unicode="&#x2077;" horiz-adv-x="616" 
d="M352 1352h-291v184h494v-184l-205 -891h-200z" />
    <glyph glyph-name="uni2078" unicode="&#x2078;" horiz-adv-x="657" 
d="M61 590v270q0 45 26 82.5t69 56.5q-42 15 -68.5 53.5t-26.5 84.5v270q0 59 35.5 94t93.5 35h277q59 0 94 -35t35 -94v-268q0 -46 -26.5 -84.5t-69.5 -55.5q43 -17 69.5 -56t26.5 -85v-268q0 -58 -35 -93.5t-94 -35.5h-277q-58 0 -93.5 35.5t-35.5 93.5zM264 889v-227
q0 -17 17 -17h96q16 0 16 17v227q0 18 -16 18h-96q-17 0 -17 -18zM264 1108q0 -18 17 -18h96q16 0 16 18v227q0 17 -16 17h-96q-17 0 -17 -17v-227z" />
    <glyph glyph-name="uni2079" unicode="&#x2079;" horiz-adv-x="657" 
d="M61 1407q0 59 35.5 94t93.5 35h277q59 0 94 -35t35 -94v-817q0 -58 -35 -93.5t-94 -35.5h-363v184h273q16 0 16 17v186h-203q-58 0 -93.5 35t-35.5 94v430zM264 1335v-286q0 -17 17 -17h112v303q0 17 -16 17h-96q-17 0 -17 -17z" />
    <glyph glyph-name="uni2080" unicode="&#x2080;" horiz-adv-x="655" 
d="M176 1075h303q53 0 84 -31t31 -83v-846q0 -53 -31 -84t-84 -31h-303q-52 0 -83.5 31t-31.5 84v846q0 52 31 83t84 31zM281 184h94q18 0 18 17v673q0 17 -18 17h-94q-17 0 -17 -17v-673q0 -17 17 -17z" />
    <glyph glyph-name="uni2081" unicode="&#x2081;" horiz-adv-x="440" 
d="M61 1075h273v-891h45v-184h-305v184h57v707h-70v184z" />
    <glyph glyph-name="uni2082" unicode="&#x2082;" horiz-adv-x="600" 
d="M61 891v184h349q58 0 93.5 -35.5t35.5 -93.5v-371q0 -59 -35.5 -94t-93.5 -35h-129q-17 0 -17 -18v-244h275v-184h-478v500q0 58 35.5 93.5t93.5 35.5h146v245q0 17 -17 17h-258z" />
    <glyph glyph-name="uni2083" unicode="&#x2083;" horiz-adv-x="536" 
d="M61 184h195q18 0 18 17v227q0 8 -5 13t-13 5h-135v183h135q8 0 13 5.5t5 12.5v227q0 17 -18 17h-195v184h285q58 0 93.5 -35.5t35.5 -93.5v-268q0 -45 -26.5 -83.5t-69.5 -55.5q43 -17 69.5 -56.5t26.5 -85.5v-268q0 -59 -35.5 -94t-93.5 -35h-285v184z" />
    <glyph glyph-name="uni2084" unicode="&#x2084;" horiz-adv-x="657" 
d="M188 446q-58 0 -93.5 35t-35.5 94v500h203v-428q0 -18 17 -18h112v446h203v-1075h-203v446h-203z" />
    <glyph glyph-name="uni2085" unicode="&#x2085;" horiz-adv-x="557" 
d="M61 575v500h435v-184h-232v-246q0 -16 15 -16h88q59 0 94 -35.5t35 -93.5v-371q0 -59 -35 -94t-94 -35h-306v184h218q14 0 14 15v231q0 16 -14 16h-89q-58 0 -93.5 35t-35.5 94z" />
    <glyph glyph-name="uni2086" unicode="&#x2086;" horiz-adv-x="657" 
d="M190 0q-58 0 -93.5 35t-35.5 94v817q0 58 35.5 93.5t93.5 35.5h363v-184h-272q-17 0 -17 -17v-186h203q59 0 94 -35t35 -94v-430q0 -59 -35 -94t-94 -35h-277zM264 504v-303q0 -17 17 -17h96q16 0 16 17v286q0 17 -16 17h-113z" />
    <glyph glyph-name="uni2087" unicode="&#x2087;" horiz-adv-x="616" 
d="M352 891h-291v184h494v-184l-205 -891h-200z" />
    <glyph glyph-name="uni2088" unicode="&#x2088;" horiz-adv-x="657" 
d="M61 129v270q0 45 26 83t69 57q-43 15 -69 53t-26 84v270q0 58 35.5 93.5t93.5 35.5h277q59 0 94 -35.5t35 -93.5v-268q0 -45 -26.5 -83.5t-69.5 -55.5q43 -17 69.5 -56.5t26.5 -85.5v-268q0 -59 -35 -94t-94 -35h-277q-58 0 -93.5 35t-35.5 94zM264 428v-227
q0 -17 17 -17h96q16 0 16 17v227q0 18 -16 18h-96q-17 0 -17 -18zM264 647q0 -18 17 -18h96q16 0 16 18v227q0 17 -16 17h-96q-17 0 -17 -17v-227z" />
    <glyph glyph-name="uni2089" unicode="&#x2089;" horiz-adv-x="657" 
d="M61 946q0 58 35.5 93.5t93.5 35.5h277q59 0 94 -35.5t35 -93.5v-817q0 -59 -35 -94t-94 -35h-363v184h273q16 0 16 17v186h-203q-58 0 -93.5 35.5t-35.5 93.5v430zM264 874v-286q0 -17 17 -17h112v303q0 17 -16 17h-96q-17 0 -17 -17z" />
    <glyph glyph-name="Euro" unicode="&#x20ac;" horiz-adv-x="985" 
d="M61 829v193h164v330q0 83 51 133.5t134 50.5h514v-262h-385q-11 0 -18 -7t-7 -18v-227h164v-193h-164v-122h164v-193h-164v-227q0 -11 7 -18t18 -7h385v-262h-514q-83 0 -134 50.5t-51 133.5v330h-164v193h164v122h-164z" />
    <glyph glyph-name="uni2116" unicode="&#x2116;" horiz-adv-x="1484" 
d="M61 0v1536h289l187 -651v651h288v-1536h-288l-187 651v-651h-289zM897 575v846q0 53 31.5 84t83.5 31h303q53 0 84 -31t31 -84v-846q0 -52 -31 -83t-84 -31h-303q-53 0 -84 31t-31 83zM1450 201h-578v205h578v-205zM1098 662q0 -17 18 -17h94q17 0 17 17v673q0 17 -17 17
h-94q-18 0 -18 -17v-673z" />
    <glyph glyph-name="uni2117" unicode="&#x2117;" horiz-adv-x="1290" 
d="M215 82q-69 0 -111.5 42.5t-42.5 111.5v1064q0 69 42.5 111.5t111.5 42.5h860q69 0 111.5 -42.5t42.5 -111.5v-1064q0 -69 -42.5 -111.5t-111.5 -42.5h-860zM291 1249q-11 0 -18 -7t-7 -17v-914q0 -10 7 -17t18 -7h708q11 0 18 7t7 17v914q0 10 -7 17t-18 7h-708z
M582 449h-168v636h352q51 0 82 -30.5t31 -81.5v-203q0 -51 -31 -82t-82 -31h-184v-208zM582 813h118q11 0 11 10v99q0 10 -11 10h-118v-119z" />
    <glyph glyph-name="trademark" unicode="&#x2122;" horiz-adv-x="624" 
d="M270 999v537h101l65 -227l66 227h100v-537h-100v228l-66 -228l-65 228v-228h-101zM74 1444h-51v92h204v-92h-53v-445h-100v445z" />
    <glyph glyph-name="Delta" unicode="&#x2206;" horiz-adv-x="1296" 
d="M61 0l381 1536h412l381 -1536h-1174zM649 1202l-233 -940h465z" />
    <glyph glyph-name="product" unicode="&#x220f;" horiz-adv-x="1173" 
d="M61 0v1536h1051v-1536h-289v1274h-473v-1274h-289z" />
    <glyph glyph-name="summation" unicode="&#x2211;" horiz-adv-x="927" 
d="M61 0l258 899l-258 375v262h805v-262h-516l258 -375l-258 -899h516v-262h-805v262z" />
    <glyph glyph-name="minus" unicode="&#x2212;" horiz-adv-x="700" 
d="M639 870v-204h-578v204h578z" />
    <glyph glyph-name="uniE000" unicode="&#xe000;" horiz-adv-x="878" 
d="M61 -133v1485q0 83 51 133.5t134 50.5h571v-1536h-289v276h-178v-409l-143 -252zM350 539h178v735h-153q-11 0 -18 -7t-7 -18v-710z" />
    <glyph glyph-name="uniE001" unicode="&#xe001;" horiz-adv-x="878" 
d="M61 0v1352q0 83 51 133.5t134 50.5h571v-1669l-145 -252l-144 252v409h-178v-276h-289zM350 1249v-710h178v735h-153q-11 0 -18 -7t-7 -18z" />
    <glyph glyph-name="uniE003" unicode="&#xe003;" horiz-adv-x="878" 
d="M61 -133v1870q0 83 51 133.5t134 50.5h571v-1921h-289v475h-178v-608l-143 -252zM350 737h178v922h-153q-11 0 -18 -7.5t-7 -17.5v-897z" />
    <glyph glyph-name="uniE004" unicode="&#xe004;" horiz-adv-x="878" 
d="M61 0v1737q0 83 51 133.5t134 50.5h571v-1921h-289v475h-178v-475h-289zM350 737h178v922h-153q-11 0 -18 -7.5t-7 -17.5v-897z" />
    <glyph glyph-name="uniE005" unicode="&#xe005;" 
d="M641 0h-580v1925h580q83 0 133.5 -50.5t50.5 -133.5v-578q0 -66 -38 -121.5t-99 -78.5q61 -23 99 -78t38 -121v-580q0 -83 -50.5 -133.5t-133.5 -50.5zM350 1094h162q11 0 18 7t7 17v520q0 10 -7.5 17.5t-17.5 7.5h-162v-569zM350 262h162q10 0 17.5 7t7.5 18v520
q0 10 -7 17t-18 7h-162v-569z" />
    <glyph glyph-name="uniE006" unicode="&#xe006;" horiz-adv-x="821" 
d="M61 184v1553q0 83 51 133.5t134 50.5h794l228 -131l-228 -131h-665q-11 0 -18 -7.5t-7 -17.5v-1347q0 -11 7 -18t18 -7h385v-262h-514q-83 0 -134 50.5t-51 133.5z" />
    <glyph glyph-name="uniE007" unicode="&#xe007;" horiz-adv-x="821" 
d="M246 1534h514v-262h-385q-11 0 -18 -7t-7 -18v-1347q0 -10 7 -17.5t18 -7.5h665l228 -131l-228 -131h-794q-83 0 -134 50.5t-51 133.5v1553q0 83 51 133.5t134 50.5z" />
    <glyph glyph-name="uniE008" unicode="&#xe008;" horiz-adv-x="1110" 
d="M375 262h385v-262h-514q-83 0 -134 50.5t-51 133.5v1168q0 83 51 133.5t134 50.5h575l228 -131l-228 -131h-446q-11 0 -18 -7t-7 -18v-962q0 -11 7 -18t18 -7z" />
    <glyph glyph-name="uniE009" unicode="&#xe009;" horiz-adv-x="1110" 
d="M246 1536h514v-262h-385q-11 0 -18 -7t-7 -18v-962q0 -11 7 -18t18 -7h446l228 -131l-228 -131h-575q-83 0 -134 50.5t-51 133.5v1168q0 83 51 133.5t134 50.5z" />
    <glyph glyph-name="uniE00A" unicode="&#xe00a;" horiz-adv-x="821" 
d="M246 0q-83 0 -134 50.5t-51 133.5v1553q0 83 51 133.5t134 50.5h514v-262h-385q-11 0 -18 -7.5t-7 -17.5v-1347q0 -11 7 -18t18 -7h385v-262h-514z" />
    <glyph glyph-name="uniE00B" unicode="&#xe00b;" 
d="M641 0h-580v1921h580q83 0 133.5 -50.5t50.5 -133.5v-1553q0 -83 -50.5 -133.5t-133.5 -50.5zM512 1659h-162v-1397h162q10 0 17.5 7t7.5 18v1347q0 10 -7.5 17.5t-17.5 7.5z" />
    <glyph glyph-name="uniE00C" unicode="&#xe00c;" horiz-adv-x="626" 
d="M61 1536h504v-262h-215v-567h166v-263h-166v-567h690l228 -131l-228 -131h-979v1921z" />
    <glyph glyph-name="uniE00D" unicode="&#xe00d;" horiz-adv-x="626" 
d="M565 0h-504v1921h979l228 -131l-228 -131h-690v-567h166v-263h-166v-567h215v-262z" />
    <glyph glyph-name="uniE00E" unicode="&#xe00e;" horiz-adv-x="626" 
d="M61 1921h504v-262h-215v-567h166v-263h-166v-567h215v-262h-504v1921z" />
    <glyph glyph-name="uniE00F" unicode="&#xe00f;" horiz-adv-x="669" 
d="M207 -385l-146 252v2054h760l228 -131l-228 -131h-471v-600h258v-262h-258v-930z" />
    <glyph glyph-name="uniE010" unicode="&#xe010;" horiz-adv-x="669" 
d="M350 0h-289v1921h760l228 -131l-228 -131h-471v-600h258v-262h-258v-797z" />
    <glyph glyph-name="uniE011" unicode="&#xe011;" horiz-adv-x="628" 
d="M61 1536h506v-262h-217v-375h168v-262h-168v-770l-143 -252l-146 252v1669z" />
    <glyph glyph-name="uniE012" unicode="&#xe012;" horiz-adv-x="628" 
d="M61 1921h506v-262h-217v-567h168v-263h-168v-829h-289v1921z" />
    <glyph glyph-name="uniE013" unicode="&#xe013;" 
d="M641 0h-395q-83 0 -134 50.5t-51 133.5v1553q0 83 51 133.5t134 50.5h971l227 -131l-227 -131h-842q-11 0 -18 -7.5t-7 -17.5v-1347q0 -11 7 -18t18 -7h137q10 0 17.5 7t7.5 18v1020h288v-1123q0 -83 -50.5 -133.5t-133.5 -50.5z" />
    <glyph glyph-name="uniE014" unicode="&#xe014;" 
d="M246 0q-83 0 -134 50.5t-51 133.5v1553q0 83 51 133.5t134 50.5h579v-262h-450q-11 0 -18 -7.5t-7 -17.5v-1347q0 -11 7 -18t18 -7h137q10 0 17.5 7t7.5 18v1020h288v-1123q0 -83 -50.5 -133.5t-133.5 -50.5h-395z" />
    <glyph glyph-name="uniE015" unicode="&#xe015;" 
d="M61 -133v1669h289v-637h187v637h288v-1536h-288v637h-187v-770l-143 -252z" />
    <glyph glyph-name="uniE016" unicode="&#xe016;" 
d="M61 1536h289v-637h187v770l143 252l145 -252v-1669h-288v637h-187v-637h-289v1536z" />
    <glyph glyph-name="uniE017" unicode="&#xe017;" 
d="M61 -133v2054h289v-829h187v829h288v-1921h-288v829h-187v-962l-143 -252z" />
    <glyph glyph-name="uniE018" unicode="&#xe018;" 
d="M61 1921h289v-829h187v829h288v-1921h-288v829h-187v-829h-289v1921z" />
    <glyph glyph-name="uniE019" unicode="&#xe019;" horiz-adv-x="411" 
d="M350 1536v-1669l-143 -252l-146 252v1669h289z" />
    <glyph glyph-name="uniE01A" unicode="&#xe01a;" horiz-adv-x="411" 
d="M350 1921v-2054l-143 -252l-146 252v2054h289z" />
    <glyph glyph-name="uniE01B" unicode="&#xe01b;" horiz-adv-x="411" 
d="M61 0v1921h289v-1921h-289z" />
    <glyph glyph-name="uniE01C" unicode="&#xe01c;" horiz-adv-x="884" 
d="M535 287v1372h-353l-227 131l227 131h641v-1737q0 -83 -50.5 -133.5t-133.5 -50.5h-393q-83 0 -134 50.5t-51 133.5v594h289v-491q0 -11 7 -18t18 -7h135q10 0 17.5 7t7.5 18z" />
    <glyph glyph-name="uniE01D" unicode="&#xe01d;" horiz-adv-x="884" 
d="M535 287v987h-353l-227 131l227 131h641v-1352q0 -83 -50.5 -133.5t-133.5 -50.5h-393q-83 0 -134 50.5t-51 133.5v209h289v-106q0 -11 7 -18t18 -7h135q10 0 17.5 7t7.5 18z" />
    <glyph glyph-name="uniE01E" unicode="&#xe01e;" horiz-adv-x="884" 
d="M639 0h-393q-83 0 -134 50.5t-51 133.5v463l144 252l145 -252v-360q0 -11 7 -18t18 -7h135q10 0 17.5 7t7.5 18v1372h-330v262h618v-1737q0 -83 -50.5 -133.5t-133.5 -50.5z" />
    <glyph glyph-name="uniE01F" unicode="&#xe01f;" horiz-adv-x="884" 
d="M535 287v1372h-330v262h618v-1737q0 -83 -50.5 -133.5t-133.5 -50.5h-393q-83 0 -134 50.5t-51 133.5v594h289v-491q0 -11 7 -18t18 -7h135q10 0 17.5 7t7.5 18z" />
    <glyph glyph-name="uniE020" unicode="&#xe020;" horiz-adv-x="954" 
d="M61 1536h289v-526l162 659l205 252l84 -252l-217 -883l309 -786h-289l-254 649v-649h-289v1536z" />
    <glyph glyph-name="uniE021" unicode="&#xe021;" horiz-adv-x="954" 
d="M61 1536h289v-526l129 526h289l-184 -750l360 -919l-45 -252l-244 252l-305 782v-649h-289v1536z" />
    <glyph glyph-name="uniE022" unicode="&#xe022;" horiz-adv-x="954" 
d="M350 0h-289v1921h289v-715l174 715h289l-229 -942l436 -1112l-43 -252l-246 252l-381 971v-838z" />
    <glyph glyph-name="uniE023" unicode="&#xe023;" horiz-adv-x="995" 
d="M350 0h-289v1921h289v-715l174 715h289l-229 -942l385 -979h-289l-330 838v-838z" />
    <glyph glyph-name="uniE024" unicode="&#xe024;" horiz-adv-x="626" 
d="M350 1673v-1411h215v-262h-504v1673l146 252z" />
    <glyph glyph-name="uniE025" unicode="&#xe025;" horiz-adv-x="409" 
d="M61 1536h289v-1659h690l228 -131l-228 -131h-979v1921z" />
    <glyph glyph-name="uniE026" unicode="&#xe026;" horiz-adv-x="626" 
d="M350 262h215v-262h-504v1923h289v-1661z" />
    <glyph glyph-name="uniE027" unicode="&#xe027;" horiz-adv-x="1073" 
d="M61 1536h289l187 -651l186 651h289v-1536h-289v651l-186 -651l-187 651v-784l-143 -252l-146 252v1669z" />
    <glyph glyph-name="uniE028" unicode="&#xe028;" horiz-adv-x="1073" 
d="M350 0h-289v1536h289l187 -651l186 651h289v-1669l-146 -252l-143 252v784l-186 -651l-187 651v-651z" />
    <glyph glyph-name="uniE029" unicode="&#xe029;" horiz-adv-x="1073" 
d="M61 0v1921h289l187 -651l186 651h289v-1921h-289v1036l-186 -651l-187 651v-1036h-289z" />
    <glyph glyph-name="uniE02A" unicode="&#xe02a;" 
d="M350 0h-289v1536h289l187 -651v788l143 252l145 -252v-1673h-288l-187 651v-651z" />
    <glyph glyph-name="uniE02B" unicode="&#xe02b;" 
d="M61 1536h289l187 -651v651h288v-1536h-288l-187 651v-788l-143 -252l-146 252v1673z" />
    <glyph glyph-name="uniE02C" unicode="&#xe02c;" 
d="M350 0h-289v1921h289l187 -868v870h288v-1923h-288l-187 868v-868z" />
    <glyph glyph-name="uniE02D" unicode="&#xe02d;" 
d="M225 1921h437q73 0 118 -45t45 -119v-1593q0 -74 -45 -119t-118 -45h-437q-73 0 -118.5 45t-45.5 119v1593q0 73 45.5 118.5t118.5 45.5zM375 262h137q10 0 17.5 7t7.5 18v1347q0 10 -7.5 17.5t-17.5 7.5h-137q-11 0 -18 -7.5t-7 -17.5v-1347q0 -11 7 -18t18 -7z" />
    <glyph glyph-name="uniE02E" unicode="&#xe02e;" horiz-adv-x="884" 
d="M61 -133v1669h578q83 0 133.5 -50.5t50.5 -133.5v-613q0 -83 -50.5 -133.5t-133.5 -50.5h-289v-688l-143 -252zM510 1274h-160v-457h160q10 0 17.5 7.5t7.5 17.5v407q0 11 -7.5 18t-17.5 7z" />
    <glyph glyph-name="uniE02F" unicode="&#xe02f;" horiz-adv-x="884" 
d="M61 -133v2054h578q83 0 133.5 -50.5t50.5 -133.5v-779q0 -83 -50.5 -133.5t-133.5 -50.5h-289v-907l-143 -252zM510 1659h-160v-623h160q10 0 17.5 7t7.5 18v573q0 10 -7.5 17.5t-17.5 7.5z" />
    <glyph glyph-name="uniE030" unicode="&#xe030;" horiz-adv-x="884" 
d="M61 0v1921h578q83 0 133.5 -50.5t50.5 -133.5v-856q0 -83 -50.5 -134t-133.5 -51h-289v-696h-289zM510 1659h-160v-701h160q10 0 17.5 7t7.5 18v651q0 10 -7.5 17.5t-17.5 7.5z" />
    <glyph glyph-name="uniE031" unicode="&#xe031;" 
d="M246 0q-83 0 -134 50.5t-51 133.5v1553q0 83 51 133.5t134 50.5h395q83 0 133.5 -50.5t50.5 -133.5v-1553q0 -83 -50.5 -133.5t-133.5 -50.5h-43l61 -158l-41 -227l-221 227l-61 158h-90zM350 287q0 -11 7 -18t18 -7h137q10 0 17.5 7t7.5 18v1347q0 10 -7.5 17.5
t-17.5 7.5h-137q-11 0 -18 -7.5t-7 -17.5v-1347z" />
    <glyph glyph-name="uniE032" unicode="&#xe032;" 
d="M246 0q-83 0 -134 50.5t-51 133.5v1168q0 83 51 133.5t134 50.5h395q83 0 133.5 -50.5t50.5 -133.5v-1168q0 -83 -50.5 -133.5t-133.5 -50.5h-43l61 -158l-41 -227l-221 227l-61 158h-90zM350 287q0 -11 7 -18t18 -7h137q10 0 17.5 7t7.5 18v962q0 11 -7.5 18t-17.5 7
h-137q-11 0 -18 -7t-7 -18v-962z" />
    <glyph glyph-name="uniE033" unicode="&#xe033;" 
d="M246 0q-83 0 -134 50.5t-51 133.5v1553q0 83 51 133.5t134 50.5h395q83 0 133.5 -50.5t50.5 -133.5v-1553q0 -83 -50.5 -133.5t-133.5 -50.5h-41l78 -201h-262l-78 201h-92zM375 1659q-11 0 -18 -7.5t-7 -17.5v-1347q0 -11 7 -18t18 -7h137q10 0 17.5 7t7.5 18v1347
q0 10 -7.5 17.5t-17.5 7.5h-137z" />
    <glyph glyph-name="uniE034" unicode="&#xe034;" horiz-adv-x="923" 
d="M61 0v1536h580q83 0 133.5 -50.5t50.5 -133.5v-643q0 -69 -42 -111.5t-111 -42.5h-13l172 -688l-79 -252l-209 252l-172 688h-21v-555h-289zM350 817h164q23 0 23 23v411q0 23 -23 23h-164v-457z" />
    <glyph glyph-name="uniE035" unicode="&#xe035;" 
d="M207 -385l-146 252v1669h580q83 0 133.5 -50.5t50.5 -133.5v-643q0 -69 -42 -111.5t-111 -42.5h-13l140 -555h-289l-139 555h-21v-688zM350 817h164q23 0 23 23v411q0 23 -23 23h-164v-457z" />
    <glyph glyph-name="uniE036" unicode="&#xe036;" 
d="M61 0v1921h580q83 0 133.5 -50.5t50.5 -133.5v-809q0 -69 -42 -111.5t-111 -42.5h-13l179 -907l-80 -252l-209 252l-178 907h-21v-774h-289zM350 1036h164q23 0 23 23v577q0 23 -23 23h-164v-623z" />
    <glyph glyph-name="uniE037" unicode="&#xe037;" 
d="M350 0h-289v1921h580q83 0 133.5 -50.5t50.5 -133.5v-887q0 -69 -42 -111.5t-111 -42.5h-13l175 -696h-289l-174 696h-21v-696zM350 1659v-701h164q23 0 23 23v655q0 23 -23 23h-164z" />
    <glyph glyph-name="uniE038" unicode="&#xe038;" horiz-adv-x="892" 
d="M395 1925h594l228 -131l-228 -131h-467q-22 0 -22 -23v-524q0 -22 22 -22h125q83 0 133.5 -51t50.5 -134v-725q0 -83 -50.5 -133.5t-133.5 -50.5h-586v262h459q23 0 23 23v524q0 22 -23 22h-125q-83 0 -133.5 51t-50.5 134v725q0 83 50.5 133.5t133.5 50.5z" />
    <glyph glyph-name="uniE039" unicode="&#xe039;" horiz-adv-x="892" 
d="M498 -389h-594l-228 131l228 131h467q22 0 22 23v524q0 22 -22 22h-125q-83 0 -134 51t-51 134v725q0 83 51 133.5t134 50.5h585v-262h-458q-23 0 -23 -23v-524q0 -22 23 -22h125q83 0 133.5 -51t50.5 -134v-725q0 -83 -50.5 -133.5t-133.5 -50.5z" />
    <glyph glyph-name="uniE03A" unicode="&#xe03a;" horiz-adv-x="1110" 
d="M61 262h310q22 0 22 23v329q0 23 -22 23h-125q-83 0 -134 50.5t-51 133.5v531q0 83 51 133.5t134 50.5h575l228 -131l-228 -131h-448q-23 0 -23 -23v-329q0 -23 23 -23h125q83 0 133.5 -50.5t50.5 -133.5v-531q0 -83 -50.5 -133.5t-133.5 -50.5h-437v262z" />
    <glyph glyph-name="uniE03B" unicode="&#xe03b;" horiz-adv-x="1110" 
d="M289 0l-228 131l228 131h448q23 0 23 23v329q0 23 -23 23h-125q-83 0 -133.5 50.5t-50.5 133.5v531q0 83 50.5 133.5t133.5 50.5h437v-262h-310q-22 0 -22 -23v-329q0 -23 22 -23h125q83 0 134 -50.5t51 -133.5v-531q0 -83 -51 -133.5t-134 -50.5h-575z" />
    <glyph glyph-name="uniE03C" unicode="&#xe03c;" horiz-adv-x="743" 
d="M61 0v262h310q22 0 22 23v522q0 22 -22 22h-125q-83 0 -134 51t-51 134v723q0 83 51 133.5t134 50.5h436v-262h-309q-23 0 -23 -23v-522q0 -22 23 -22h125q83 0 133.5 -51t50.5 -134v-723q0 -83 -50.5 -133.5t-133.5 -50.5h-437z" />
    <glyph glyph-name="uniE03D" unicode="&#xe03d;" horiz-adv-x="411" 
d="M61 1659h-565v262h1360l227 -131l-227 -131h-506v-1659h-289v1659z" />
    <glyph glyph-name="uniE03E" unicode="&#xe03e;" horiz-adv-x="710" 
d="M61 1536h588v-262h-149v-1407l-144 -252l-145 252v1407h-150v262z" />
    <glyph glyph-name="uniE03F" unicode="&#xe03f;" horiz-adv-x="411" 
d="M-444 1659l-228 131l228 131h1359v-262h-565v-1659h-289v1659h-505z" />
    <glyph glyph-name="uniE040" unicode="&#xe040;" horiz-adv-x="999" 
d="M61 1536h650l227 -131l-227 -131h-211v-1272h-289v1272h-150v262z" />
    <glyph glyph-name="uniE041" unicode="&#xe041;" horiz-adv-x="999" 
d="M61 1405l228 131h649v-262h-150v-1272h-288v1272h-211z" />
    <glyph glyph-name="uniE042" unicode="&#xe042;" horiz-adv-x="710" 
d="M61 1661v262h588v-262h-149v-1661h-289v1661h-150z" />
    <glyph glyph-name="uniE043" unicode="&#xe043;" horiz-adv-x="878" 
d="M375 262h153v1407l146 252l143 -252v-1669h-571q-83 0 -134 50.5t-51 133.5v1352h289v-1249q0 -11 7 -18t18 -7z" />
    <glyph glyph-name="uniE044" unicode="&#xe044;" horiz-adv-x="878" 
d="M375 262h153v1274h289v-1536h-571q-83 0 -134 50.5t-51 133.5v1485l146 252l143 -252v-1382q0 -11 7 -18t18 -7z" />
    <glyph glyph-name="uniE045" unicode="&#xe045;" horiz-adv-x="878" 
d="M246 0q-83 0 -134 50.5t-51 133.5v1737h289v-1636q0 -23 23 -23h155v1659h289v-1921h-571z" />
    <glyph glyph-name="uniE046" unicode="&#xe046;" horiz-adv-x="970" 
d="M485 481l156 1192l180 252l109 -252l-242 -1673h-405l-222 1536h289z" />
    <glyph glyph-name="uniE047" unicode="&#xe047;" horiz-adv-x="970" 
d="M485 481l136 1055h288l-221 -1536h-405l-242 1673l109 252l180 -252z" />
    <glyph glyph-name="uniE048" unicode="&#xe048;" horiz-adv-x="970" 
d="M283 0l-222 1923h289l135 -1442l136 1442h288l-221 -1923h-405z" />
    <glyph glyph-name="uniE049" unicode="&#xe049;" horiz-adv-x="1486" 
d="M61 1536h289l135 -1055l136 1055h245l135 -1055l156 1192l180 252l109 -252l-242 -1673h-405l-56 508l-55 -508h-405z" />
    <glyph glyph-name="uniE04A" unicode="&#xe04a;" horiz-adv-x="1486" 
d="M41 1673l109 252l180 -252l155 -1192l136 1055h245l135 -1055l136 1055h288l-221 -1536h-405l-56 508l-55 -508h-405z" />
    <glyph glyph-name="uniE04B" unicode="&#xe04b;" horiz-adv-x="1486" 
d="M283 0l-222 1921h289l135 -1440l136 1440h245l135 -1440l136 1440h288l-221 -1921h-405l-56 508l-55 -508h-405z" />
    <glyph glyph-name="uniE04C" unicode="&#xe04c;" horiz-adv-x="978" 
d="M350 0h-289l285 768l-285 768h289l139 -408l191 545l235 252l54 -252l-334 -905l283 -768h-289l-140 408z" />
    <glyph glyph-name="uniE04D" unicode="&#xe04d;" horiz-adv-x="978" 
d="M344 768l-334 905l53 252l236 -252l190 -545l140 408h289l-285 -768l285 -768h-289l-140 408l-139 -408h-289z" />
    <glyph glyph-name="uniE04E" unicode="&#xe04e;" horiz-adv-x="978" 
d="M61 0l244 961l-244 960h289l139 -559l140 559h289l-242 -960l242 -961h-289l-140 559l-139 -559h-289z" />
    <glyph glyph-name="uniE04F" unicode="&#xe04f;" horiz-adv-x="978" 
d="M346 768l-285 768h289l139 -408l140 408h289l-283 -768l334 -905l-54 -252l-235 252l-191 545l-139 -408h-289z" />
    <glyph glyph-name="uniE050" unicode="&#xe050;" horiz-adv-x="978" 
d="M63 -389l-53 252l334 905l-283 768h289l139 -408l140 408h289l-285 -768l285 -768h-289l-140 408l-190 -545z" />
    <glyph glyph-name="uniE051" unicode="&#xe051;" horiz-adv-x="1026" 
d="M512 1063l211 610l233 252l56 -252l-355 -1028v-645h-288v645l-308 891h289z" />
    <glyph glyph-name="uniE052" unicode="&#xe052;" horiz-adv-x="1026" 
d="M514 1063l162 473h289l-308 -891v-645h-288v645l-355 1028l56 252l233 -252z" />
    <glyph glyph-name="uniE053" unicode="&#xe053;" horiz-adv-x="1026" 
d="M369 799l-308 1122h289l162 -704l164 704h289l-308 -1122v-799h-288v799z" />
    <glyph glyph-name="uniE054" unicode="&#xe054;" horiz-adv-x="743" 
d="M61 -164l359 1438h-359v262h621v-221l-358 -1438h735l227 -131l-227 -131h-998v221z" />
    <glyph glyph-name="uniE055" unicode="&#xe055;" horiz-adv-x="743" 
d="M-543 1790l228 131h997v-221l-358 -1438h358v-262h-621v221l359 1438h-735z" />
    <glyph glyph-name="uniE056" unicode="&#xe056;" horiz-adv-x="1093" 
d="M61 1274v262h621v-221l-358 -1053h481l227 -131l-227 -131h-744v221l359 1053h-359z" />
    <glyph glyph-name="uniE057" unicode="&#xe057;" horiz-adv-x="1093" 
d="M289 1274l-228 131l228 131h743v-221l-358 -1053h358v-262h-620v221l358 1053h-481z" />
    <glyph glyph-name="uniE058" unicode="&#xe058;" horiz-adv-x="743" 
d="M61 221l359 1438h-359v262h621v-221l-358 -1438h358v-262h-621v221z" />
    </font>
</defs>
</svg>
