<svg width="24" height="24" viewBox="0 0 24 24" fill="none" xmlns="http://www.w3.org/2000/svg">
<g opacity="0.33">
<path d="M1.889 6.343L10.889 11.1778C11.1914 11.3398 11.5826 11.4166 11.9762 11.4166C12.3698 11.4166 12.761 11.3398 13.0634 11.1778L22.0634 6.343C22.6502 6.0274 23.2046 4.7998 22.1282 4.7998H1.8254C0.748997 4.7998 1.3034 6.0274 1.889 6.343ZM22.3358 8.9866L13.0634 13.819C12.6554 14.0326 12.3698 14.0578 11.9762 14.0578C11.5826 14.0578 11.297 14.0326 10.889 13.819C10.481 13.6054 2.3294 9.3322 1.6634 8.9854C1.1954 8.7406 1.2002 9.0274 1.2002 9.2482V17.9998C1.2002 18.5038 1.8794 19.1998 2.4002 19.1998H21.6002C22.121 19.1998 22.8002 18.5038 22.8002 17.9998V9.2494C22.8002 9.0286 22.805 8.7418 22.3358 8.9866Z" fill="white"/>
</g>
</svg>
