<svg width="12" height="16" viewBox="0 0 12 16" fill="none" xmlns="http://www.w3.org/2000/svg">
<path d="M1.87236e-06 0.800481L1.2429e-06 15.2009C0.000459954 15.3467 0.0407422 15.4896 0.116512 15.6142C0.192282 15.7389 0.30067 15.8405 0.43001 15.9083C0.559351 15.976 0.704747 16.0072 0.850545 15.9986C0.996343 15.99 1.13702 15.9418 1.25744 15.8593L11.676 8.65911C12.108 8.3607 12.108 7.64228 11.676 7.34307L1.25744 0.142863C1.13728 0.0595201 0.996524 0.0106461 0.850483 0.0015507C0.704442 -0.00754474 0.558696 0.0234863 0.429082 0.0912722C0.299467 0.159058 0.19094 0.261007 0.115293 0.386041C0.0396452 0.511075 -0.000227957 0.654413 1.87236e-06 0.800481Z" fill="white"/>
</svg>
