<svg width="95" height="52" viewBox="0 0 95 52" fill="none" xmlns="http://www.w3.org/2000/svg">
<path d="M9.73746 5.42477L9.73746 44.2671C9.7387 44.6603 9.84716 45.0458 10.0512 45.382C10.2552 45.7182 10.547 45.9924 10.8953 46.1751C11.2436 46.3578 11.635 46.442 12.0276 46.4187C12.4202 46.3955 12.799 46.2656 13.1232 46.043L41.176 26.6219C42.3391 25.817 42.3391 23.8792 41.176 23.0721L13.1232 3.65097C12.7997 3.42617 12.4207 3.29434 12.0274 3.26981C11.6342 3.24527 11.2418 3.32897 10.8928 3.51181C10.5438 3.69465 10.2516 3.96964 10.0479 4.3069C9.84421 4.64415 9.73684 5.03078 9.73746 5.42477Z" fill="#4F05AE" fill-opacity="0.2"/>
<path d="M35.6325 5.42477L35.6325 44.2671C35.6337 44.6603 35.7422 45.0458 35.9462 45.382C36.1502 45.7182 36.4421 45.9924 36.7903 46.1751C37.1386 46.3578 37.5301 46.442 37.9226 46.4187C38.3152 46.3955 38.694 46.2656 39.0182 46.043L67.071 26.6219C68.2341 25.817 68.2341 23.8792 67.071 23.0721L39.0182 3.65097C38.6947 3.42617 38.3157 3.29434 37.9225 3.26981C37.5292 3.24527 37.1368 3.32897 36.7878 3.51181C36.4388 3.69465 36.1466 3.96964 35.9429 4.3069C35.7392 4.64415 35.6319 5.03078 35.6325 5.42477Z" fill="#4F05AE" fill-opacity="0.6"/>
<path d="M62.6167 5.15129L62.6167 43.8524C62.6179 44.2442 62.7253 44.6283 62.9274 44.9633C63.1294 45.2983 63.4185 45.5715 63.7634 45.7535C64.1083 45.9355 64.496 46.0194 64.8848 45.9962C65.2736 45.973 65.6488 45.8436 65.9699 45.6219L93.7528 26.2713C94.9047 25.4694 94.9047 23.5386 93.7528 22.7345L65.9699 3.38394C65.6494 3.15996 65.2741 3.02861 64.8847 3.00417C64.4952 2.97972 64.1066 3.06312 63.7609 3.24529C63.4153 3.42747 63.1259 3.70146 62.9241 4.03748C62.7224 4.37351 62.6161 4.75874 62.6167 5.15129Z" fill="#4F05AE"/>
</svg>
