<svg width="24" height="24" viewBox="0 0 24 24" fill="none" xmlns="http://www.w3.org/2000/svg">
<path d="M14.78 13.1043L14.7798 13.1045C14.6014 13.3696 14.0701 13.9903 13.9083 14.1732C13.8964 14.1867 13.8803 14.204 13.8629 14.2188C13.8542 14.2262 13.8429 14.235 13.8298 14.2424C13.8185 14.2488 13.7954 14.2602 13.7657 14.2602C13.7542 14.2602 13.7449 14.2582 13.7425 14.2576L13.7423 14.2576C13.7383 14.2567 13.7348 14.2558 13.7323 14.255C13.727 14.2535 13.7215 14.2517 13.7163 14.2499C13.7097 14.2476 13.702 14.2449 13.6936 14.2417C13.6885 14.2398 13.6832 14.2378 13.6777 14.2357C13.648 14.2244 13.6096 14.2091 13.5696 14.193C13.4897 14.1606 13.401 14.1237 13.3591 14.1055C12.4081 13.6923 11.5758 12.9914 10.9589 12.3562C10.3422 11.7212 9.93379 11.1448 9.83173 10.9721L9.83158 10.9718C9.82761 10.9651 9.82401 10.9586 9.82073 10.9524H9.75777L9.79218 10.8261C9.7993 10.8 9.81512 10.7781 9.82257 10.7681C9.83261 10.7545 9.84446 10.7406 9.85572 10.7281C9.8781 10.7032 9.90342 10.6778 9.91939 10.6618L9.91995 10.6612L9.92041 10.6608C10.0111 10.5711 10.1106 10.4515 10.2109 10.3307C10.2579 10.2742 10.3057 10.2166 10.3527 10.1622M14.78 13.1043L8.33845 6.43139C8.62771 6.37082 8.88555 6.34084 8.96 6.3377C9.06177 6.33341 9.06898 6.33241 9.07622 6.33218C9.07902 6.33209 9.08183 6.33212 9.09015 6.33212C9.24029 6.33212 9.36561 6.37686 9.47551 6.46957C9.58777 6.56426 9.68907 6.71344 9.77964 6.93019L9.77969 6.9303C9.79842 6.97499 9.85497 7.11105 9.93071 7.29329C10.0128 7.49081 10.1174 7.74257 10.2209 7.99103C10.4182 8.46485 10.6147 8.9349 10.6373 8.9802L10.6377 8.9809C10.6862 9.07609 10.8194 9.34044 10.6611 9.65506L10.6609 9.65547L10.6219 9.73389L10.6217 9.7342C10.5479 9.88384 10.4882 10.0045 10.3527 10.1622M14.78 13.1043C14.9192 12.896 15.0881 12.8012 15.2835 12.8012C15.4084 12.8012 15.5291 12.8397 15.6554 12.885M14.78 13.1043L14.6968 13.0487C14.8507 12.8184 15.0483 12.7012 15.2835 12.7012C15.4275 12.7012 15.5628 12.7455 15.6892 12.7909M10.3527 10.1622C10.3527 10.1622 10.3528 10.1622 10.3528 10.1621L10.4284 10.2276L10.3526 10.1624C10.3526 10.1623 10.3527 10.1623 10.3527 10.1622ZM15.6892 12.7909L15.6553 12.885C15.6554 12.885 15.6554 12.885 15.6554 12.885M15.6892 12.7909L15.6554 12.885M15.6892 12.7909C15.9687 12.8915 17.4165 13.6008 17.7286 13.7538L15.6554 12.885M15.6554 12.885C15.804 12.9385 16.3104 13.1775 16.7933 13.4101C17.1812 13.5969 17.5544 13.7798 17.6904 13.8464C17.7213 13.8615 17.7399 13.8707 17.7438 13.8725C17.9788 13.9854 18.1281 14.0604 18.2143 14.202C18.2417 14.2473 18.2643 14.3218 18.2757 14.4262C18.2871 14.5288 18.2869 14.6527 18.2749 14.7908C18.251 15.0671 18.1805 15.3922 18.0685 15.7034L18.1626 15.7372L18.0685 15.7034C17.9342 16.0768 17.5639 16.4299 17.1409 16.6994C16.7186 16.9684 16.2684 17.1384 15.9993 17.1623L15.9986 17.1623L15.9131 17.1705L15.9128 17.1705C15.7783 17.1838 15.6297 17.1983 15.4442 17.1983C15.0064 17.1983 14.2205 17.1243 12.5417 16.4537C10.8128 15.7631 9.09881 14.2782 7.72026 12.2649L15.6554 12.885ZM6.48299 9.18944C6.48299 7.74555 7.17362 6.93892 7.56071 6.69488L7.70926 12.2488C7.69153 12.2229 7.67719 12.2018 7.66828 12.1899L7.66788 12.1894C7.3072 11.714 6.48299 10.4826 6.48299 9.18944ZM2.23506 17.6224L2.24981 17.5789L2.22642 17.5394C1.18255 15.7753 0.631453 13.7597 0.631453 11.7005C0.631453 5.33437 5.85025 0.153711 12.2664 0.153711C18.682 0.153711 23.9003 5.33436 23.9003 11.7005C23.9003 18.0659 18.682 23.246 12.2665 23.2459C10.3423 23.2459 8.44107 22.7714 6.75921 21.8728L6.722 21.8529L6.6818 21.8657L0.482319 23.8357L0.482204 23.8358C0.461397 23.8424 0.440017 23.8456 0.418665 23.8456C0.363045 23.8456 0.308664 23.8235 0.26864 23.7826L0.268537 23.7825C0.213053 23.726 0.194076 23.643 0.219531 23.5678C0.219534 23.5678 0.219537 23.5678 0.21954 23.5678L2.23506 17.6224ZM7.09677 19.4786L7.09682 19.4787C8.63343 20.487 10.4211 21.0199 12.2664 21.0199C17.4456 21.0199 21.6604 16.8401 21.6603 11.7005C21.6603 6.56025 17.4455 2.37982 12.2663 2.37982C7.08658 2.37982 2.8713 6.56024 2.8713 11.7005C2.8713 13.6759 3.49006 15.5655 4.66023 17.1644L4.74093 17.1054L4.66023 17.1644C4.70072 17.2198 4.71171 17.2913 4.68973 17.3562L3.68721 20.3139L3.62371 20.5012L3.81221 20.4413L6.91772 19.4541C6.93867 19.4475 6.96011 19.4442 6.98149 19.4442C7.02205 19.4442 7.06225 19.4559 7.09677 19.4786Z" fill="white" stroke="#B82325" stroke-width="0.2"/>
</svg>
