<svg width="25" height="25" viewBox="0 0 25 25" fill="none" xmlns="http://www.w3.org/2000/svg">
<path d="M18.6786 14.7286C18.6321 14.7063 16.8903 13.8486 16.5808 13.7372C16.4544 13.6918 16.3191 13.6475 16.1751 13.6475C15.9399 13.6475 15.7423 13.7647 15.5884 13.995C15.4144 14.2536 14.8877 14.8693 14.725 15.0532C14.7037 15.0775 14.6747 15.1065 14.6573 15.1065C14.6418 15.1065 14.3722 14.9955 14.2906 14.96C12.4221 14.1484 11.0039 12.1966 10.8094 11.8675C10.7817 11.8202 10.7803 11.7987 10.7803 11.7987C10.7871 11.7736 10.8499 11.7107 10.8823 11.6782C10.9772 11.5843 11.08 11.4606 11.1794 11.3409C11.2265 11.2842 11.2737 11.2274 11.32 11.1739C11.4643 11.006 11.5285 10.8757 11.603 10.7247L11.642 10.6463C11.8238 10.2851 11.6685 9.9802 11.6183 9.88176C11.5772 9.79938 10.8417 8.0244 10.7635 7.83792C10.5755 7.38793 10.327 7.17841 9.98175 7.17841C9.94971 7.17841 9.98175 7.17841 9.84739 7.18407C9.6838 7.19098 8.79289 7.30827 8.39899 7.55657C7.98127 7.81992 7.27459 8.6594 7.27459 10.1357C7.27459 11.4644 8.11779 12.719 8.47982 13.1961C8.48881 13.2082 8.50534 13.2326 8.52931 13.2677C9.91573 15.2924 11.6441 16.793 13.3962 17.4929C15.083 18.1667 15.8817 18.2445 16.3358 18.2445C16.5267 18.2445 16.6795 18.2296 16.8142 18.2163L16.8997 18.2082C17.4824 18.1565 18.763 17.493 19.0542 16.6835C19.2837 16.046 19.3442 15.3494 19.1915 15.0966C19.087 14.9247 18.9068 14.8382 18.6786 14.7286Z" fill="white"/>
<path d="M13.158 1C6.68734 1 1.42305 6.22472 1.42305 12.6468C1.42305 14.7239 1.97893 16.7571 3.03196 18.5366L1.01643 24.482C0.978883 24.5929 1.00681 24.7154 1.0888 24.7989C1.14799 24.8593 1.22827 24.8919 1.31027 24.8919C1.34168 24.8919 1.37333 24.8872 1.4042 24.8773L7.60369 22.9073C9.30016 23.8137 11.2176 24.2922 13.1581 24.2922C19.6281 24.2923 24.8919 19.0681 24.8919 12.6468C24.8919 6.22472 19.6281 1 13.158 1ZM13.158 21.8662C11.3321 21.8662 9.56352 21.3389 8.04328 20.3413C7.99216 20.3078 7.93282 20.2905 7.87309 20.2905C7.84152 20.2905 7.80987 20.2953 7.77907 20.3051L4.67352 21.2923L5.67604 18.3346C5.70847 18.2389 5.69226 18.1333 5.63253 18.0517C4.47486 16.4698 3.8629 14.6009 3.8629 12.6468C3.8629 7.56251 8.03265 3.42611 13.1579 3.42611C18.2826 3.42611 22.4519 7.56251 22.4519 12.6468C22.452 17.7304 18.2827 21.8662 13.158 21.8662Z" fill="white"/>
<path d="M18.6786 14.7286C18.6321 14.7063 16.8903 13.8486 16.5808 13.7372C16.4544 13.6918 16.3191 13.6475 16.1751 13.6475C15.9399 13.6475 15.7423 13.7647 15.5884 13.995C15.4144 14.2536 14.8877 14.8693 14.725 15.0532C14.7037 15.0775 14.6747 15.1065 14.6573 15.1065C14.6418 15.1065 14.3722 14.9955 14.2906 14.96C12.4221 14.1484 11.0039 12.1966 10.8094 11.8675C10.7817 11.8202 10.7803 11.7987 10.7803 11.7987C10.7871 11.7736 10.8499 11.7107 10.8823 11.6782C10.9772 11.5843 11.08 11.4606 11.1794 11.3409C11.2265 11.2842 11.2737 11.2274 11.32 11.1739C11.4643 11.006 11.5285 10.8757 11.603 10.7247L11.642 10.6463C11.8238 10.2851 11.6685 9.9802 11.6183 9.88176C11.5772 9.79938 10.8417 8.0244 10.7635 7.83792C10.5755 7.38793 10.327 7.17841 9.98175 7.17841C9.94971 7.17841 9.98175 7.17841 9.84739 7.18407C9.6838 7.19098 8.79289 7.30827 8.39899 7.55657C7.98127 7.81992 7.27459 8.6594 7.27459 10.1357C7.27459 11.4644 8.11779 12.719 8.47982 13.1961C8.48881 13.2082 8.50534 13.2326 8.52931 13.2677C9.91573 15.2924 11.6441 16.793 13.3962 17.4929C15.083 18.1667 15.8817 18.2445 16.3358 18.2445C16.5267 18.2445 16.6795 18.2296 16.8142 18.2163L16.8997 18.2082C17.4824 18.1565 18.763 17.493 19.0542 16.6835C19.2837 16.046 19.3442 15.3494 19.1915 15.0966C19.087 14.9247 18.9068 14.8382 18.6786 14.7286Z" stroke="white" stroke-width="0.2"/>
<path d="M13.158 1C6.68734 1 1.42305 6.22472 1.42305 12.6468C1.42305 14.7239 1.97893 16.7571 3.03196 18.5366L1.01643 24.482C0.978883 24.5929 1.00681 24.7154 1.0888 24.7989C1.14799 24.8593 1.22827 24.8919 1.31027 24.8919C1.34168 24.8919 1.37333 24.8872 1.4042 24.8773L7.60369 22.9073C9.30016 23.8137 11.2176 24.2922 13.1581 24.2922C19.6281 24.2923 24.8919 19.0681 24.8919 12.6468C24.8919 6.22472 19.6281 1 13.158 1ZM13.158 21.8662C11.3321 21.8662 9.56352 21.3389 8.04328 20.3413C7.99216 20.3078 7.93282 20.2905 7.87309 20.2905C7.84152 20.2905 7.80987 20.2953 7.77907 20.3051L4.67352 21.2923L5.67604 18.3346C5.70847 18.2389 5.69226 18.1333 5.63253 18.0517C4.47486 16.4698 3.8629 14.6009 3.8629 12.6468C3.8629 7.56251 8.03265 3.42611 13.1579 3.42611C18.2826 3.42611 22.4519 7.56251 22.4519 12.6468C22.452 17.7304 18.2827 21.8662 13.158 21.8662Z" stroke="white" stroke-width="0.2"/>
</svg>
